<mxfile host="65bd71144e">
    <diagram name="PÃ¡gina-1" id="LFNQ3AaUSRXnyObruW9S">
        <mxGraphModel dx="1489" dy="475" grid="1" gridSize="10" guides="1" tooltips="1" connect="1" arrows="1" fold="1" page="1" pageScale="1" pageWidth="827" pageHeight="1169" math="0" shadow="0">
            <root>
                <mxCell id="0"/>
                <mxCell id="1" parent="0"/>
                <mxCell id="5Ae9-UWgF2CEhyHREW0x-1" value="" style="shape=image;verticalLabelPosition=bottom;labelBackgroundColor=default;verticalAlign=top;aspect=fixed;imageAspect=0;image=data:image/svg+xml,PHN2ZyB4bWxuczp4bGluaz0iaHR0cDovL3d3dy53My5vcmcvMTk5OS94bGluayIgeG1sbnM9Imh0dHA6Ly93d3cudzMub3JnLzIwMDAvc3ZnIiBoZWlnaHQ9IjE0MTQiIHdpZHRoPSIxNjQ2LjM1IiB2aWV3Qm94PSIwIDAgMTY0Ni4zNSAxNDE0Ij48ZyB0cmFuc2Zvcm09InRyYW5zbGF0ZSgxNzQxIDIyMS45OTk5NTAwMDAwMDAwNCkiPjxwYXRoIGZpbGw9IiNmZmYiIGQ9Ik0tMjAwMC01MDBIMHYyMDAwaC0yMDAweiIvPjxwYXRoIGZpbGw9IiNlZGY1ZmYiIHN0cm9rZS13aWR0aD0iMiIgc3Ryb2tlPSIjNmRiMWZmIiBkPSJNLTcyMCAyODZhNiA2IDAgMCAxIDYtNmg0MDIuMzZhNiA2IDAgMCAxIDYgNnYyMzlhNiA2IDAgMCAxLTYgNkgtNzE0YTYgNiAwIDAgMS02LTZ6Ii8+PHBhdGggZmlsbD0ibm9uZSIgc3Ryb2tlLXdpZHRoPSIyIiBzdHJva2U9IiM2ZGIxZmYiIGQ9Ik0tNzIwIDMyMi42N2g0MTQuMzZNLTcyMCA0NjYuODNoNDE0LjM2Ii8+PHVzZSB0cmFuc2Zvcm09Im1hdHJpeCgxLDAsMCwxLC03MTIsMjg4KSB0cmFuc2xhdGUoMTY2Ljg0NTY3OTAxMjM0NTY3IDE3Ljk0NDQ0NDQ0NDQ0NDQ0MykiIHhsaW5rOmhyZWY9IiNhIi8+PHVzZSB0cmFuc2Zvcm09Im1hdHJpeCgxLDAsMCwxLC03MDgsMzMwLjY2NjY2NjY2NjY2NjcpIHRyYW5zbGF0ZSgwIDI4Ljk0NDQ0NDQ0NDQ0NDQ1KSIgeGxpbms6aHJlZj0iI2IiLz48dXNlIHRyYW5zZm9ybT0ibWF0cml4KDEsMCwwLDEsLTcwOCwzMzAuNjY2NjY2NjY2NjY2NykgdHJhbnNsYXRlKDEzLjUxODUxODUxODUxODUxOSAyOC45NDQ0NDQ0NDQ0NDQ0NSkiIHhsaW5rOmhyZWY9IiNjIi8+PHVzZSB0cmFuc2Zvcm09Im1hdHJpeCgxLDAsMCwxLC03MDgsMzMwLjY2NjY2NjY2NjY2NjcpIHRyYW5zbGF0ZSg4NC41Njc5MDEyMzQ1Njc5IDI4Ljk0NDQ0NDQ0NDQ0NDQ1KSIgeGxpbms6aHJlZj0iI2QiLz48dXNlIHRyYW5zZm9ybT0ibWF0cml4KDEsMCwwLDEsLTcwOCwzMzAuNjY2NjY2NjY2NjY2NykgdHJhbnNsYXRlKDAgNTUuNjExMTExMTExMTExMTIpIiB4bGluazpocmVmPSIjYiIvPjx1c2UgdHJhbnNmb3JtPSJtYXRyaXgoMSwwLDAsMSwtNzA4LDMzMC42NjY2NjY2NjY2NjY3KSB0cmFuc2xhdGUoMTMuNTE4NTE4NTE4NTE4NTE5IDU1LjYxMTExMTExMTExMTEyKSIgeGxpbms6aHJlZj0iI2UiLz48dXNlIHRyYW5zZm9ybT0ibWF0cml4KDEsMCwwLDEsLTcwOCwzMzAuNjY2NjY2NjY2NjY2NykgdHJhbnNsYXRlKDE1MS42MDQ5MzgyNzE2MDQ5NiA1NS42MTExMTExMTExMTExMikiIHhsaW5rOmhyZWY9IiNmIi8+PHVzZSB0cmFuc2Zvcm09Im1hdHJpeCgxLDAsMCwxLC03MDgsMzMwLjY2NjY2NjY2NjY2NjcpIHRyYW5zbGF0ZSgwIDgyLjI3Nzc3Nzc3Nzc3Nzc3KSIgeGxpbms6aHJlZj0iI2IiLz48dXNlIHRyYW5zZm9ybT0ibWF0cml4KDEsMCwwLDEsLTcwOCwzMzAuNjY2NjY2NjY2NjY2NykgdHJhbnNsYXRlKDEzLjUxODUxODUxODUxODUxOSA4Mi4yNzc3Nzc3Nzc3Nzc3NykiIHhsaW5rOmhyZWY9IiNnIi8+PHVzZSB0cmFuc2Zvcm09Im1hdHJpeCgxLDAsMCwxLC03MDgsMzMwLjY2NjY2NjY2NjY2NjcpIHRyYW5zbGF0ZSg3My45NTA2MTcyODM5NTA2MiA4Mi4yNzc3Nzc3Nzc3Nzc3NykiIHhsaW5rOmhyZWY9IiNoIi8+PHVzZSB0cmFuc2Zvcm09Im1hdHJpeCgxLDAsMCwxLC03MDgsMzMwLjY2NjY2NjY2NjY2NjcpIHRyYW5zbGF0ZSgwIDEwOC45NDQ0NDQ0NDQ0NDQ0NikiIHhsaW5rOmhyZWY9IiNpIi8+PHVzZSB0cmFuc2Zvcm09Im1hdHJpeCgxLDAsMCwxLC03MDgsMzMwLjY2NjY2NjY2NjY2NjcpIHRyYW5zbGF0ZSgxOS4xMzU4MDI0NjkxMzU4IDEwOC45NDQ0NDQ0NDQ0NDQ0NikiIHhsaW5rOmhyZWY9IiNqIi8+PHVzZSB0cmFuc2Zvcm09Im1hdHJpeCgxLDAsMCwxLC03MDgsNDc0LjgzMzMzMzMzMzMzMzM3KSB0cmFuc2xhdGUoMCAyOC45NDQ0NDQ0NDQ0NDQ0NDMpIiB4bGluazpocmVmPSIjayIvPjx1c2UgdHJhbnNmb3JtPSJtYXRyaXgoMSwwLDAsMSwtNzA4LDQ3NC44MzMzMzMzMzMzMzMzNykgdHJhbnNsYXRlKDE5LjEzNTgwMjQ2OTEzNTggMjguOTQ0NDQ0NDQ0NDQ0NDQzKSIgeGxpbms6aHJlZj0iI2wiLz48dXNlIHRyYW5zZm9ybT0ibWF0cml4KDEsMCwwLDEsLTcwOCw0NzQuODMzMzMzMzMzMzMzMzcpIHRyYW5zbGF0ZSgxNjQuNDQ0NDQ0NDQ0NDQ0NDMgMjguOTQ0NDQ0NDQ0NDQ0NDQzKSIgeGxpbms6aHJlZj0iI20iLz48cGF0aCBmaWxsPSIjZWRmNWZmIiBzdHJva2Utd2lkdGg9IjIiIHN0cm9rZT0iIzZkYjFmZiIgZD0iTS04MjQuNjItMTc0YTYgNiAwIDAgMSA2LTZoNzE2Ljk3YTYgNiAwIDAgMSA2IDZ2MjkyYTYgNiAwIDAgMS02IDZoLTcxNi45N2E2IDYgMCAwIDEtNi02eiIvPjxwYXRoIGZpbGw9Im5vbmUiIHN0cm9rZS13aWR0aD0iMiIgc3Ryb2tlPSIjNmRiMWZmIiBkPSJNLTgyNC42Mi0xMzcuMzNoNzI4Ljk3bS03MjguOTcgNjQuMTZoNzI4Ljk3Ii8+PHVzZSB0cmFuc2Zvcm09Im1hdHJpeCgxLDAsMCwxLC04MTYuNjIwOTAyMzIxNTA3MiwtMTcyKSB0cmFuc2xhdGUoMjg5LjQwMTIzNDU2NzkwMTIgMTcuOTQ0NDQ0NDQ0NDQ0NDQzKSIgeGxpbms6aHJlZj0iI24iLz48dXNlIHRyYW5zZm9ybT0ibWF0cml4KDEsMCwwLDEsLTgxMi42MjA5MDIzMjE1MDcyLC0xMjkuMzMzMzMzMzMzMzMzMzEpIHRyYW5zbGF0ZSgwIDI4Ljk0NDQ0NDQ0NDQ0NDQ0MykiIHhsaW5rOmhyZWY9IiNiIi8+PHVzZSB0cmFuc2Zvcm09Im1hdHJpeCgxLDAsMCwxLC04MTIuNjIwOTAyMzIxNTA3MiwtMTI5LjMzMzMzMzMzMzMzMzMxKSB0cmFuc2xhdGUoMTMuNTE4NTE4NTE4NTE4NTE5IDI4Ljk0NDQ0NDQ0NDQ0NDQ0MykiIHhsaW5rOmhyZWY9IiNvIi8+PHVzZSB0cmFuc2Zvcm09Im1hdHJpeCgxLDAsMCwxLC04MTIuNjIwOTAyMzIxNTA3MiwtMTI5LjMzMzMzMzMzMzMzMzMxKSB0cmFuc2xhdGUoOTAuMDYxNzI4Mzk1MDYxNzIgMjguOTQ0NDQ0NDQ0NDQ0NDQzKSIgeGxpbms6aHJlZj0iI3AiLz48dXNlIHRyYW5zZm9ybT0ibWF0cml4KDEsMCwwLDEsLTgxMi42MjA5MDIzMjE1MDcyLC02NS4xNjY2NjY2NjY2NjY2NCkgdHJhbnNsYXRlKDAgMjguNzc3Nzc3Nzc3Nzc3NzgpIiB4bGluazpocmVmPSIjayIvPjx1c2UgdHJhbnNmb3JtPSJtYXRyaXgoMSwwLDAsMSwtODEyLjYyMDkwMjMyMTUwNzIsLTY1LjE2NjY2NjY2NjY2NjY0KSB0cmFuc2xhdGUoMTkuMTM1ODAyNDY5MTM1OCAyOC43Nzc3Nzc3Nzc3Nzc3OCkiIHhsaW5rOmhyZWY9IiNxIi8+PHVzZSB0cmFuc2Zvcm09Im1hdHJpeCgxLDAsMCwxLC04MTIuNjIwOTAyMzIxNTA3MiwtNjUuMTY2NjY2NjY2NjY2NjQpIHRyYW5zbGF0ZSg3OC4yMDk4NzY1NDMyMDk4NyAyOC43Nzc3Nzc3Nzc3Nzc3OCkiIHhsaW5rOmhyZWY9IiNyIi8+PHVzZSB0cmFuc2Zvcm09Im1hdHJpeCgxLDAsMCwxLC04MTIuNjIwOTAyMzIxNTA3MiwtNjUuMTY2NjY2NjY2NjY2NjQpIHRyYW5zbGF0ZSgwIDU1LjQ0NDQ0NDQ0NDQ0NDQ1KSIgeGxpbms6aHJlZj0iI2IiLz48dXNlIHRyYW5zZm9ybT0ibWF0cml4KDEsMCwwLDEsLTgxMi42MjA5MDIzMjE1MDcyLC02NS4xNjY2NjY2NjY2NjY2NCkgdHJhbnNsYXRlKDEzLjUxODUxODUxODUxODUxOSA1NS40NDQ0NDQ0NDQ0NDQ0NSkiIHhsaW5rOmhyZWY9IiNzIi8+PHVzZSB0cmFuc2Zvcm09Im1hdHJpeCgxLDAsMCwxLC04MTIuNjIwOTAyMzIxNTA3MiwtNjUuMTY2NjY2NjY2NjY2NjQpIHRyYW5zbGF0ZSgyODkuNDQ0NDQ0NDQ0NDQ0NCA1NS40NDQ0NDQ0NDQ0NDQ0NSkiIHhsaW5rOmhyZWY9IiNkIi8+PHVzZSB0cmFuc2Zvcm09Im1hdHJpeCgxLDAsMCwxLC04MTIuNjIwOTAyMzIxNTA3MiwtNjUuMTY2NjY2NjY2NjY2NjQpIHRyYW5zbGF0ZSgwIDgyLjExMTExMTExMTExMTExKSIgeGxpbms6aHJlZj0iI2IiLz48dXNlIHRyYW5zZm9ybT0ibWF0cml4KDEsMCwwLDEsLTgxMi42MjA5MDIzMjE1MDcyLC02NS4xNjY2NjY2NjY2NjY2NCkgdHJhbnNsYXRlKDEzLjUxODUxODUxODUxODUxOSA4Mi4xMTExMTExMTExMTExMSkiIHhsaW5rOmhyZWY9IiN0Ii8+PHVzZSB0cmFuc2Zvcm09Im1hdHJpeCgxLDAsMCwxLC04MTIuNjIwOTAyMzIxNTA3MiwtNjUuMTY2NjY2NjY2NjY2NjQpIHRyYW5zbGF0ZSgyMTYuNzkwMTIzNDU2NzkwMDcgODIuMTExMTExMTExMTExMTEpIiB4bGluazpocmVmPSIjdSIvPjx1c2UgdHJhbnNmb3JtPSJtYXRyaXgoMSwwLDAsMSwtODEyLjYyMDkwMjMyMTUwNzIsLTY1LjE2NjY2NjY2NjY2NjY0KSB0cmFuc2xhdGUoMCAxMDguNzc3Nzc3Nzc3Nzc3NzcpIiB4bGluazpocmVmPSIjYiIvPjx1c2UgdHJhbnNmb3JtPSJtYXRyaXgoMSwwLDAsMSwtODEyLjYyMDkwMjMyMTUwNzIsLTY1LjE2NjY2NjY2NjY2NjY0KSB0cmFuc2xhdGUoMTMuNTE4NTE4NTE4NTE4NTE5IDEwOC43Nzc3Nzc3Nzc3Nzc3NykiIHhsaW5rOmhyZWY9IiN2Ii8+PHVzZSB0cmFuc2Zvcm09Im1hdHJpeCgxLDAsMCwxLC04MTIuNjIwOTAyMzIxNTA3MiwtNjUuMTY2NjY2NjY2NjY2NjQpIHRyYW5zbGF0ZSgyMTUuNDkzODI3MTYwNDkzNzcgMTA4Ljc3Nzc3Nzc3Nzc3Nzc3KSIgeGxpbms6aHJlZj0iI3UiLz48dXNlIHRyYW5zZm9ybT0ibWF0cml4KDEsMCwwLDEsLTgxMi42MjA5MDIzMjE1MDcyLC02NS4xNjY2NjY2NjY2NjY2NCkgdHJhbnNsYXRlKDAgMTM1LjQ0NDQ0NDQ0NDQ0NDQ2KSIgeGxpbms6aHJlZj0iI2IiLz48dXNlIHRyYW5zZm9ybT0ibWF0cml4KDEsMCwwLDEsLTgxMi42MjA5MDIzMjE1MDcyLC02NS4xNjY2NjY2NjY2NjY2NCkgdHJhbnNsYXRlKDEzLjUxODUxODUxODUxODUxOSAxMzUuNDQ0NDQ0NDQ0NDQ0NDYpIiB4bGluazpocmVmPSIjdyIvPjx1c2UgdHJhbnNmb3JtPSJtYXRyaXgoMSwwLDAsMSwtODEyLjYyMDkwMjMyMTUwNzIsLTY1LjE2NjY2NjY2NjY2NjY0KSB0cmFuc2xhdGUoMTgyLjIyMjIyMjIyMjIyMjE3IDEzNS40NDQ0NDQ0NDQ0NDQ0NikiIHhsaW5rOmhyZWY9IiNyIi8+PHVzZSB0cmFuc2Zvcm09Im1hdHJpeCgxLDAsMCwxLC04MTIuNjIwOTAyMzIxNTA3MiwtNjUuMTY2NjY2NjY2NjY2NjQpIHRyYW5zbGF0ZSgwIDE2Mi4xMTExMTExMTExMTExMSkiIHhsaW5rOmhyZWY9IiNiIi8+PHVzZSB0cmFuc2Zvcm09Im1hdHJpeCgxLDAsMCwxLC04MTIuNjIwOTAyMzIxNTA3MiwtNjUuMTY2NjY2NjY2NjY2NjQpIHRyYW5zbGF0ZSgxMy41MTg1MTg1MTg1MTg1MTkgMTYyLjExMTExMTExMTExMTExKSIgeGxpbms6aHJlZj0iI3giLz48dXNlIHRyYW5zZm9ybT0ibWF0cml4KDEsMCwwLDEsLTgxMi42MjA5MDIzMjE1MDcyLC02NS4xNjY2NjY2NjY2NjY2NCkgdHJhbnNsYXRlKDE2MS4zNTgwMjQ2OTEzNTgwMyAxNjIuMTExMTExMTExMTExMTEpIiB4bGluazpocmVmPSIjbSIvPjxwYXRoIGZpbGw9IiNlZGY1ZmYiIHN0cm9rZS13aWR0aD0iMiIgc3Ryb2tlPSIjNmRiMWZmIiBkPSJNLTE3NDAgNDI2YTYgNiAwIDAgMSA2LTZoNTY2LjA2YTYgNiAwIDAgMSA2IDZ2MzQ2YTYgNiAwIDAgMS02IDZILTE3MzRhNiA2IDAgMCAxLTYtNnoiLz48cGF0aCBmaWxsPSJub25lIiBzdHJva2Utd2lkdGg9IjIiIHN0cm9rZT0iIzZkYjFmZiIgZD0iTS0xNzQwIDQ2Mi42N2g1NzguMDZNLTE3NDAgNjA2LjgzaDU3OC4wNiIvPjx1c2UgdHJhbnNmb3JtPSJtYXRyaXgoMSwwLDAsMSwtMTczMiw0MjgpIHRyYW5zbGF0ZSgyMjIuOTUwNjE3MjgzOTUwNiAxNy45NDQ0NDQ0NDQ0NDQ0NDMpIiB4bGluazpocmVmPSIjeSIvPjx1c2UgdHJhbnNmb3JtPSJtYXRyaXgoMSwwLDAsMSwtMTcyOCw0NzAuNjY2NjY2NjY2NjY2NykgdHJhbnNsYXRlKDAgMjguOTQ0NDQ0NDQ0NDQ0NDUpIiB4bGluazpocmVmPSIjYiIvPjx1c2UgdHJhbnNmb3JtPSJtYXRyaXgoMSwwLDAsMSwtMTcyOCw0NzAuNjY2NjY2NjY2NjY2NykgdHJhbnNsYXRlKDEzLjUxODUxODUxODUxODUxOSAyOC45NDQ0NDQ0NDQ0NDQ0NSkiIHhsaW5rOmhyZWY9IiN6Ii8+PHVzZSB0cmFuc2Zvcm09Im1hdHJpeCgxLDAsMCwxLC0xNzI4LDQ3MC42NjY2NjY2NjY2NjY3KSB0cmFuc2xhdGUoNDMuMDg2NDE5NzUzMDg2NDIgMjguOTQ0NDQ0NDQ0NDQ0NDUpIiB4bGluazpocmVmPSIjZCIvPjx1c2UgdHJhbnNmb3JtPSJtYXRyaXgoMSwwLDAsMSwtMTcyOCw0NzAuNjY2NjY2NjY2NjY2NykgdHJhbnNsYXRlKDAgNTUuNjExMTExMTExMTExMTIpIiB4bGluazpocmVmPSIjYiIvPjx1c2UgdHJhbnNmb3JtPSJtYXRyaXgoMSwwLDAsMSwtMTcyOCw0NzAuNjY2NjY2NjY2NjY2NykgdHJhbnNsYXRlKDEzLjUxODUxODUxODUxODUxOSA1NS42MTExMTExMTExMTExMikiIHhsaW5rOmhyZWY9IiNBIi8+PHVzZSB0cmFuc2Zvcm09Im1hdHJpeCgxLDAsMCwxLC0xNzI4LDQ3MC42NjY2NjY2NjY2NjY3KSB0cmFuc2xhdGUoODEuMzU4MDI0NjkxMzU4MDMgNTUuNjExMTExMTExMTExMTIpIiB4bGluazpocmVmPSIjdSIvPjx1c2UgdHJhbnNmb3JtPSJtYXRyaXgoMSwwLDAsMSwtMTcyOCw0NzAuNjY2NjY2NjY2NjY2NykgdHJhbnNsYXRlKDAgODIuMjc3Nzc3Nzc3Nzc3NzcpIiB4bGluazpocmVmPSIjYiIvPjx1c2UgdHJhbnNmb3JtPSJtYXRyaXgoMSwwLDAsMSwtMTcyOCw0NzAuNjY2NjY2NjY2NjY2NykgdHJhbnNsYXRlKDEzLjUxODUxODUxODUxODUxOSA4Mi4yNzc3Nzc3Nzc3Nzc3NykiIHhsaW5rOmhyZWY9IiNCIi8+PHVzZSB0cmFuc2Zvcm09Im1hdHJpeCgxLDAsMCwxLC0xNzI4LDQ3MC42NjY2NjY2NjY2NjY3KSB0cmFuc2xhdGUoMTExLjA0OTM4MjcxNjA0OTM3IDgyLjI3Nzc3Nzc3Nzc3Nzc3KSIgeGxpbms6aHJlZj0iI2QiLz48dXNlIHRyYW5zZm9ybT0ibWF0cml4KDEsMCwwLDEsLTE3MjgsNDcwLjY2NjY2NjY2NjY2NjcpIHRyYW5zbGF0ZSgwIDEwOC45NDQ0NDQ0NDQ0NDQ0NikiIHhsaW5rOmhyZWY9IiNiIi8+PHVzZSB0cmFuc2Zvcm09Im1hdHJpeCgxLDAsMCwxLC0xNzI4LDQ3MC42NjY2NjY2NjY2NjY3KSB0cmFuc2xhdGUoMTMuNTE4NTE4NTE4NTE4NTE5IDEwOC45NDQ0NDQ0NDQ0NDQ0NikiIHhsaW5rOmhyZWY9IiNDIi8+PHVzZSB0cmFuc2Zvcm09Im1hdHJpeCgxLDAsMCwxLC0xNzI4LDQ3MC42NjY2NjY2NjY2NjY3KSB0cmFuc2xhdGUoODQuOTk5OTk5OTk5OTk5OTkgMTA4Ljk0NDQ0NDQ0NDQ0NDQ2KSIgeGxpbms6aHJlZj0iI0QiLz48dXNlIHRyYW5zZm9ybT0ibWF0cml4KDEsMCwwLDEsLTE3MjgsNjE0LjgzMzMzMzMzMzMzMzQpIHRyYW5zbGF0ZSgwIDI4LjYxMTExMTExMTExMTEwNykiIHhsaW5rOmhyZWY9IiNrIi8+PHVzZSB0cmFuc2Zvcm09Im1hdHJpeCgxLDAsMCwxLC0xNzI4LDYxNC44MzMzMzMzMzMzMzM0KSB0cmFuc2xhdGUoMTkuMTM1ODAyNDY5MTM1OCAyOC42MTExMTExMTExMTExMDcpIiB4bGluazpocmVmPSIjRSIvPjx1c2UgdHJhbnNmb3JtPSJtYXRyaXgoMSwwLDAsMSwtMTcyOCw2MTQuODMzMzMzMzMzMzMzNCkgdHJhbnNsYXRlKDEzNi4xNzI4Mzk1MDYxNzI4MyAyOC42MTExMTExMTExMTExMDcpIiB4bGluazpocmVmPSIjdSIvPjx1c2UgdHJhbnNmb3JtPSJtYXRyaXgoMSwwLDAsMSwtMTcyOCw2MTQuODMzMzMzMzMzMzMzNCkgdHJhbnNsYXRlKDAgNTUuMjc3Nzc3Nzc3Nzc3NzgpIiB4bGluazpocmVmPSIjayIvPjx1c2UgdHJhbnNmb3JtPSJtYXRyaXgoMSwwLDAsMSwtMTcyOCw2MTQuODMzMzMzMzMzMzMzNCkgdHJhbnNsYXRlKDE5LjEzNTgwMjQ2OTEzNTggNTUuMjc3Nzc3Nzc3Nzc3NzgpIiB4bGluazpocmVmPSIjRiIvPjx1c2UgdHJhbnNmb3JtPSJtYXRyaXgoMSwwLDAsMSwtMTcyOCw2MTQuODMzMzMzMzMzMzMzNCkgdHJhbnNsYXRlKDIzNi4wNDkzODI3MTYwNDkzNCA1NS4yNzc3Nzc3Nzc3Nzc3OCkiIHhsaW5rOmhyZWY9IiNyIi8+PHVzZSB0cmFuc2Zvcm09Im1hdHJpeCgxLDAsMCwxLC0xNzI4LDYxNC44MzMzMzMzMzMzMzM0KSB0cmFuc2xhdGUoMCA4MS45NDQ0NDQ0NDQ0NDQ0MykiIHhsaW5rOmhyZWY9IiNrIi8+PHVzZSB0cmFuc2Zvcm09Im1hdHJpeCgxLDAsMCwxLC0xNzI4LDYxNC44MzMzMzMzMzMzMzM0KSB0cmFuc2xhdGUoMTkuMTM1ODAyNDY5MTM1OCA4MS45NDQ0NDQ0NDQ0NDQ0MykiIHhsaW5rOmhyZWY9IiNHIi8+PHVzZSB0cmFuc2Zvcm09Im1hdHJpeCgxLDAsMCwxLC0xNzI4LDYxNC44MzMzMzMzMzMzMzM0KSB0cmFuc2xhdGUoMjAyLjY1NDMyMDk4NzY1NDI3IDgxLjk0NDQ0NDQ0NDQ0NDQzKSIgeGxpbms6aHJlZj0iI3IiLz48dXNlIHRyYW5zZm9ybT0ibWF0cml4KDEsMCwwLDEsLTE3MjgsNjE0LjgzMzMzMzMzMzMzMzQpIHRyYW5zbGF0ZSgwIDEwOC42MTExMTExMTExMTExMSkiIHhsaW5rOmhyZWY9IiNrIi8+PHVzZSB0cmFuc2Zvcm09Im1hdHJpeCgxLDAsMCwxLC0xNzI4LDYxNC44MzMzMzMzMzMzMzM0KSB0cmFuc2xhdGUoMTkuMTM1ODAyNDY5MTM1OCAxMDguNjExMTExMTExMTExMTEpIiB4bGluazpocmVmPSIjSCIvPjx1c2UgdHJhbnNmb3JtPSJtYXRyaXgoMSwwLDAsMSwtMTcyOCw2MTQuODMzMzMzMzMzMzMzNCkgdHJhbnNsYXRlKDE2OS41Njc5MDEyMzQ1Njc5IDEwOC42MTExMTExMTExMTExMSkiIHhsaW5rOmhyZWY9IiNkIi8+PHVzZSB0cmFuc2Zvcm09Im1hdHJpeCgxLDAsMCwxLC0xNzI4LDYxNC44MzMzMzMzMzMzMzM0KSB0cmFuc2xhdGUoMCAxMzUuMjc3Nzc3Nzc3Nzc3NzcpIiB4bGluazpocmVmPSIjayIvPjx1c2UgdHJhbnNmb3JtPSJtYXRyaXgoMSwwLDAsMSwtMTcyOCw2MTQuODMzMzMzMzMzMzMzNCkgdHJhbnNsYXRlKDE5LjEzNTgwMjQ2OTEzNTggMTM1LjI3Nzc3Nzc3Nzc3Nzc3KSIgeGxpbms6aHJlZj0iI0kiLz48dXNlIHRyYW5zZm9ybT0ibWF0cml4KDEsMCwwLDEsLTE3MjgsNjE0LjgzMzMzMzMzMzMzMzQpIHRyYW5zbGF0ZSgxMzYuMTcyODM5NTA2MTcyODMgMTM1LjI3Nzc3Nzc3Nzc3Nzc3KSIgeGxpbms6aHJlZj0iI0QiLz48cGF0aCBmaWxsPSIjZWRmNWZmIiBzdHJva2Utd2lkdGg9IjIiIHN0cm9rZT0iIzZkYjFmZiIgZD0iTS0xNjgwLTIxNGE2IDYgMCAwIDEgNi02aDY0NC45OGE2IDYgMCAwIDEgNiA2djM3MmE2IDYgMCAwIDEtNiA2SC0xNjc0YTYgNiAwIDAgMS02LTZ6Ii8+PHBhdGggZmlsbD0ibm9uZSIgc3Ryb2tlLXdpZHRoPSIyIiBzdHJva2U9IiM2ZGIxZmYiIGQ9Ik0tMTY4MC0xNzcuMzNoNjU2Ljk4TS0xNjgwLTMzLjE3aDY1Ni45OCIvPjxnPjx1c2UgdHJhbnNmb3JtPSJtYXRyaXgoMSwwLDAsMSwtMTY3MiwtMjEyKSB0cmFuc2xhdGUoMjMzLjY0ODE0ODE0ODE0ODE1IDE3Ljk0NDQ0NDQ0NDQ0NDQ0MykiIHhsaW5rOmhyZWY9IiNKIi8+PC9nPjxnPjx1c2UgdHJhbnNmb3JtPSJtYXRyaXgoMSwwLDAsMSwtMTY2OCwtMTY5LjMzMzMzMzMzMzMzMzMxKSB0cmFuc2xhdGUoMCAyOC45NDQ0NDQ0NDQ0NDQ0NSkiIHhsaW5rOmhyZWY9IiNiIi8+PHVzZSB0cmFuc2Zvcm09Im1hdHJpeCgxLDAsMCwxLC0xNjY4LC0xNjkuMzMzMzMzMzMzMzMzMzEpIHRyYW5zbGF0ZSgxMy41MTg1MTg1MTg1MTg1MTkgMjguOTQ0NDQ0NDQ0NDQ0NDUpIiB4bGluazpocmVmPSIjSyIvPjx1c2UgdHJhbnNmb3JtPSJtYXRyaXgoMSwwLDAsMSwtMTY2OCwtMTY5LjMzMzMzMzMzMzMzMzMxKSB0cmFuc2xhdGUoMjM2LjIzNDU2NzkwMTIzNDUzIDI4Ljk0NDQ0NDQ0NDQ0NDQ1KSIgeGxpbms6aHJlZj0iI3UiLz48dXNlIHRyYW5zZm9ybT0ibWF0cml4KDEsMCwwLDEsLTE2NjgsLTE2OS4zMzMzMzMzMzMzMzMzMSkgdHJhbnNsYXRlKDAgNTUuNjExMTExMTExMTExMTIpIiB4bGluazpocmVmPSIjYiIvPjx1c2UgdHJhbnNmb3JtPSJtYXRyaXgoMSwwLDAsMSwtMTY2OCwtMTY5LjMzMzMzMzMzMzMzMzMxKSB0cmFuc2xhdGUoMTMuNTE4NTE4NTE4NTE4NTE5IDU1LjYxMTExMTExMTExMTEyKSIgeGxpbms6aHJlZj0iI0wiLz48dXNlIHRyYW5zZm9ybT0ibWF0cml4KDEsMCwwLDEsLTE2NjgsLTE2OS4zMzMzMzMzMzMzMzMzMSkgdHJhbnNsYXRlKDE4Ny43MTYwNDkzODI3MTYgNTUuNjExMTExMTExMTExMTIpIiB4bGluazpocmVmPSIjZCIvPjx1c2UgdHJhbnNmb3JtPSJtYXRyaXgoMSwwLDAsMSwtMTY2OCwtMTY5LjMzMzMzMzMzMzMzMzMxKSB0cmFuc2xhdGUoMCA4Mi4yNzc3Nzc3Nzc3Nzc3NykiIHhsaW5rOmhyZWY9IiNiIi8+PHVzZSB0cmFuc2Zvcm09Im1hdHJpeCgxLDAsMCwxLC0xNjY4LC0xNjkuMzMzMzMzMzMzMzMzMzEpIHRyYW5zbGF0ZSgxMy41MTg1MTg1MTg1MTg1MTkgODIuMjc3Nzc3Nzc3Nzc3NzcpIiB4bGluazpocmVmPSIjeiIvPjx1c2UgdHJhbnNmb3JtPSJtYXRyaXgoMSwwLDAsMSwtMTY2OCwtMTY5LjMzMzMzMzMzMzMzMzMxKSB0cmFuc2xhdGUoNDMuMDg2NDE5NzUzMDg2NDIgODIuMjc3Nzc3Nzc3Nzc3NzcpIiB4bGluazpocmVmPSIjZCIvPjx1c2UgdHJhbnNmb3JtPSJtYXRyaXgoMSwwLDAsMSwtMTY2OCwtMTY5LjMzMzMzMzMzMzMzMzMxKSB0cmFuc2xhdGUoMCAxMDguOTQ0NDQ0NDQ0NDQ0NDYpIiB4bGluazpocmVmPSIjYiIvPjx1c2UgdHJhbnNmb3JtPSJtYXRyaXgoMSwwLDAsMSwtMTY2OCwtMTY5LjMzMzMzMzMzMzMzMzMxKSB0cmFuc2xhdGUoMTMuNTE4NTE4NTE4NTE4NTE5IDEwOC45NDQ0NDQ0NDQ0NDQ0NikiIHhsaW5rOmhyZWY9IiNBIi8+PHVzZSB0cmFuc2Zvcm09Im1hdHJpeCgxLDAsMCwxLC0xNjY4LC0xNjkuMzMzMzMzMzMzMzMzMzEpIHRyYW5zbGF0ZSg4MS4zNTgwMjQ2OTEzNTgwMyAxMDguOTQ0NDQ0NDQ0NDQ0NDYpIiB4bGluazpocmVmPSIjTSIvPjwvZz48Zz48dXNlIHRyYW5zZm9ybT0ibWF0cml4KDEsMCwwLDEsLTE2NjgsLTI1LjE2NjY2NjY2NjY2NjY1NykgdHJhbnNsYXRlKDAgMjguNzc3Nzc3Nzc3Nzc3NzgpIiB4bGluazpocmVmPSIjayIvPjx1c2UgdHJhbnNmb3JtPSJtYXRyaXgoMSwwLDAsMSwtMTY2OCwtMjUuMTY2NjY2NjY2NjY2NjU3KSB0cmFuc2xhdGUoMTkuMTM1ODAyNDY5MTM1OCAyOC43Nzc3Nzc3Nzc3Nzc3OCkiIHhsaW5rOmhyZWY9IiNsIi8+PHVzZSB0cmFuc2Zvcm09Im1hdHJpeCgxLDAsMCwxLC0xNjY4LC0yNS4xNjY2NjY2NjY2NjY2NTcpIHRyYW5zbGF0ZSgxNjQuNDQ0NDQ0NDQ0NDQ0NDMgMjguNzc3Nzc3Nzc3Nzc3NzgpIiB4bGluazpocmVmPSIjciIvPjx1c2UgdHJhbnNmb3JtPSJtYXRyaXgoMSwwLDAsMSwtMTY2OCwtMjUuMTY2NjY2NjY2NjY2NjU3KSB0cmFuc2xhdGUoMCA1NS40NDQ0NDQ0NDQ0NDQ0NSkiIHhsaW5rOmhyZWY9IiNrIi8+PHVzZSB0cmFuc2Zvcm09Im1hdHJpeCgxLDAsMCwxLC0xNjY4LC0yNS4xNjY2NjY2NjY2NjY2NTcpIHRyYW5zbGF0ZSgxOS4xMzU4MDI0NjkxMzU4IDU1LjQ0NDQ0NDQ0NDQ0NDQ1KSIgeGxpbms6aHJlZj0iI04iLz48dXNlIHRyYW5zZm9ybT0ibWF0cml4KDEsMCwwLDEsLTE2NjgsLTI1LjE2NjY2NjY2NjY2NjY1NykgdHJhbnNsYXRlKDg5LjMyMDk4NzY1NDMyMDk3IDU1LjQ0NDQ0NDQ0NDQ0NDQ1KSIgeGxpbms6aHJlZj0iI3IiLz48dXNlIHRyYW5zZm9ybT0ibWF0cml4KDEsMCwwLDEsLTE2NjgsLTI1LjE2NjY2NjY2NjY2NjY1NykgdHJhbnNsYXRlKDAgODIuMTExMTExMTExMTExMTEpIiB4bGluazpocmVmPSIjYiIvPjx1c2UgdHJhbnNmb3JtPSJtYXRyaXgoMSwwLDAsMSwtMTY2OCwtMjUuMTY2NjY2NjY2NjY2NjU3KSB0cmFuc2xhdGUoMTMuNTE4NTE4NTE4NTE4NTE5IDgyLjExMTExMTExMTExMTExKSIgeGxpbms6aHJlZj0iI08iLz48dXNlIHRyYW5zZm9ybT0ibWF0cml4KDEsMCwwLDEsLTE2NjgsLTI1LjE2NjY2NjY2NjY2NjY1NykgdHJhbnNsYXRlKDE4Mi45NjI5NjI5NjI5NjI5MyA4Mi4xMTExMTExMTExMTExMSkiIHhsaW5rOmhyZWY9IiNQIi8+PHVzZSB0cmFuc2Zvcm09Im1hdHJpeCgxLDAsMCwxLC0xNjY4LC0yNS4xNjY2NjY2NjY2NjY2NTcpIHRyYW5zbGF0ZSgzNTAuMjQ2OTEzNTgwMjQ2OSA4Mi4xMTExMTExMTExMTExMSkiIHhsaW5rOmhyZWY9IiNRIi8+PHVzZSB0cmFuc2Zvcm09Im1hdHJpeCgxLDAsMCwxLC0xNjY4LC0yNS4xNjY2NjY2NjY2NjY2NTcpIHRyYW5zbGF0ZSg0NTMuNzY1NDMyMDk4NzY1MzYgODIuMTExMTExMTExMTExMTEpIiB4bGluazpocmVmPSIjciIvPjx1c2UgdHJhbnNmb3JtPSJtYXRyaXgoMSwwLDAsMSwtMTY2OCwtMjUuMTY2NjY2NjY2NjY2NjU3KSB0cmFuc2xhdGUoMCAxMDguNzc3Nzc3Nzc3Nzc3NzcpIiB4bGluazpocmVmPSIjYiIvPjx1c2UgdHJhbnNmb3JtPSJtYXRyaXgoMSwwLDAsMSwtMTY2OCwtMjUuMTY2NjY2NjY2NjY2NjU3KSB0cmFuc2xhdGUoMTMuNTE4NTE4NTE4NTE4NTE5IDEwOC43Nzc3Nzc3Nzc3Nzc3NykiIHhsaW5rOmhyZWY9IiNSIi8+PHVzZSB0cmFuc2Zvcm09Im1hdHJpeCgxLDAsMCwxLC0xNjY4LC0yNS4xNjY2NjY2NjY2NjY2NTcpIHRyYW5zbGF0ZSgyNTQuNDQ0NDQ0NDQ0NDQ0NCAxMDguNzc3Nzc3Nzc3Nzc3NzcpIiB4bGluazpocmVmPSIjUyIvPjx1c2UgdHJhbnNmb3JtPSJtYXRyaXgoMSwwLDAsMSwtMTY2OCwtMjUuMTY2NjY2NjY2NjY2NjU3KSB0cmFuc2xhdGUoNDMwLjMwODY0MTk3NTMwODU1IDEwOC43Nzc3Nzc3Nzc3Nzc3NykiIHhsaW5rOmhyZWY9IiNUIi8+PHVzZSB0cmFuc2Zvcm09Im1hdHJpeCgxLDAsMCwxLC0xNjY4LC0yNS4xNjY2NjY2NjY2NjY2NTcpIHRyYW5zbGF0ZSgwIDEzNS40NDQ0NDQ0NDQ0NDQ0NikiIHhsaW5rOmhyZWY9IiNiIi8+PHVzZSB0cmFuc2Zvcm09Im1hdHJpeCgxLDAsMCwxLC0xNjY4LC0yNS4xNjY2NjY2NjY2NjY2NTcpIHRyYW5zbGF0ZSgxMy41MTg1MTg1MTg1MTg1MTkgMTM1LjQ0NDQ0NDQ0NDQ0NDQ2KSIgeGxpbms6aHJlZj0iI1UiLz48dXNlIHRyYW5zZm9ybT0ibWF0cml4KDEsMCwwLDEsLTE2NjgsLTI1LjE2NjY2NjY2NjY2NjY1NykgdHJhbnNsYXRlKDE2Ni45NzUzMDg2NDE5NzUzIDEzNS40NDQ0NDQ0NDQ0NDQ0NikiIHhsaW5rOmhyZWY9IiNQIi8+PHVzZSB0cmFuc2Zvcm09Im1hdHJpeCgxLDAsMCwxLC0xNjY4LC0yNS4xNjY2NjY2NjY2NjY2NTcpIHRyYW5zbGF0ZSgzMzQuMjU5MjU5MjU5MjU5MjQgMTM1LjQ0NDQ0NDQ0NDQ0NDQ2KSIgeGxpbms6aHJlZj0iI1EiLz48dXNlIHRyYW5zZm9ybT0ibWF0cml4KDEsMCwwLDEsLTE2NjgsLTI1LjE2NjY2NjY2NjY2NjY1NykgdHJhbnNsYXRlKDQzNy43Nzc3Nzc3Nzc3Nzc3IDEzNS40NDQ0NDQ0NDQ0NDQ0NikiIHhsaW5rOmhyZWY9IiNyIi8+PHVzZSB0cmFuc2Zvcm09Im1hdHJpeCgxLDAsMCwxLC0xNjY4LC0yNS4xNjY2NjY2NjY2NjY2NTcpIHRyYW5zbGF0ZSgwIDE2Mi4xMTExMTExMTExMTExMSkiIHhsaW5rOmhyZWY9IiNiIi8+PHVzZSB0cmFuc2Zvcm09Im1hdHJpeCgxLDAsMCwxLC0xNjY4LC0yNS4xNjY2NjY2NjY2NjY2NTcpIHRyYW5zbGF0ZSgxMy41MTg1MTg1MTg1MTg1MTkgMTYyLjExMTExMTExMTExMTExKSIgeGxpbms6aHJlZj0iI1YiLz48dXNlIHRyYW5zZm9ybT0ibWF0cml4KDEsMCwwLDEsLTE2NjgsLTI1LjE2NjY2NjY2NjY2NjY1NykgdHJhbnNsYXRlKDI1My4xNDgxNDgxNDgxNDgxIDE2Mi4xMTExMTExMTExMTExMSkiIHhsaW5rOmhyZWY9IiNTIi8+PHVzZSB0cmFuc2Zvcm09Im1hdHJpeCgxLDAsMCwxLC0xNjY4LC0yNS4xNjY2NjY2NjY2NjY2NTcpIHRyYW5zbGF0ZSg0MjkuMDEyMzQ1Njc5MDEyMjQgMTYyLjExMTExMTExMTExMTExKSIgeGxpbms6aHJlZj0iI20iLz48L2c+PHBhdGggZmlsbD0iIzVlNWU1ZSIgc3Ryb2tlLXdpZHRoPSIuMDUiIHN0cm9rZT0iIzVlNWU1ZSIgZD0iTS05NDAgNTY1Ljk2bC4wNy44My4yLjc1LjMuNzMuNC42Ny41LjYuNi41LjY4LjQzLjczLjMuNzcuMTguODIuMDZoMzQ2LjQ2bC44My0uMDYuNzYtLjE4LjczLS4zLjY3LS40Mi42LS41LjUtLjYuNDMtLjY4LjMtLjczLjE4LS43Ni4wNy0uODRWNTMzaDEuOTV2MzMuMDRsLS4xIDEuMDUtLjI0IDEuMDYtLjQgMS0uNTguOTQtLjcyLjgzLS44My43Mi0uOTMuNTctMSAuNDItMS4wOC4yNS0xLjA1LjA4SC05MzVsLTEuMDYtLjEtMS4wNy0uMjQtMS0uNDItLjk0LS41OC0uODMtLjctLjctLjg0LS42LS45My0uNC0xLS4yNi0xLjA4LS4wOC0xLjA2VjQ1OC44OGgxLjk1em0tNS44OC0xODcuODVsMS4wNy4yNiAxIC40Mi45My41OC44NC43LjcuODQuNTguOTMuNDIgMSAuMjUgMS4wOC4xIDEuMDZ2NTIuNThoLTEuOTZ2LTUyLjVsLS4wNy0uODMtLjItLjc1LS4zLS43My0uNC0uNjctLjUyLS42LS42LS41LS42Ny0uNDMtLjcyLS4zLS43Ni0uMTgtLjgzLS4wNmgtNDAxLjA1bC0uODIuMDYtLjc3LjE4LS43My4zLS42Ny40Mi0uNi41LS41LjYtLjQyLjY4LS4zLjczLS4yLjc2LS4wNS44NHYzMi4xNGgtMS45NnYtMzIuMjJsLjA4LTEuMDUuMjYtMS4wNi40Mi0xIC41Ny0uOTQuNy0uODMuODQtLjcuOTUtLjYgMS0uNCAxLjA3LS4yNiAxLjA2LS4wOGg0MDEuMnoiLz48cGF0aCBmaWxsPSIjNWU1ZTVlIiBkPSJNLTU4MS40NSA1MzMuMDNoLTEuOTVWNTMyaDEuOTV6Ii8+PHBhdGggZmlsbD0iIzVlNWU1ZSIgc3Ryb2tlLXdpZHRoPSIuMDUiIHN0cm9rZT0iIzVlNWU1ZSIvPjxwYXRoIGZpbGw9IiM1ZTVlNWUiIHN0cm9rZS13aWR0aD0iLjA1IiBzdHJva2U9IiM1ZTVlNWUiIGQ9Ik0tMTM0My4yNCA0MDAuMTdsLTEwLjg1IDE4Ljc4LTEwLjgzLTE4Ljc4IDEuNy0uOTggOS4xNCAxNS44NSA5LjE3LTE1Ljg2eiIvPjxnPjx1c2UgdHJhbnNmb3JtPSJtYXRyaXgoMSwwLDAsMSwtOTc5LjQzNzM0Mzg5NDk1NDgsNDM3LjU0NDA3MTQ5Nzg3OTQzKSB0cmFuc2xhdGUoMCAxNC4yMjIyMjIyMjIyMjIyMjMpIiB4bGluazpocmVmPSIjVyIvPjwvZz48cGF0aCBmaWxsPSJub25lIiBzdHJva2Utd2lkdGg9IjIiIHN0cm9rZT0iIzVlNWU1ZSIgZD0iTS00NDMuMiA1MzN2MzQxYTYgNiAwIDAgMS02IDZoLTM2OGE2IDYgMCAwIDAtNiA2djUxLjE4Ii8+PHBhdGggZmlsbD0iIzVlNWU1ZSIgc3Ryb2tlLXdpZHRoPSIuMDUiIHN0cm9rZT0iIzVlNWU1ZSIgZD0iTS00NDIuMjMgNTMzLjAzaC0xLjk1VjUzMmgxLjk1eiIvPjxwYXRoIGZpbGw9Im5vbmUiIHN0cm9rZS13aWR0aD0iMiIgc3Ryb2tlPSIjNWU1ZTVlIiBkPSJNLTgxMy4yIDkxOS42OGwtMTAgMTcuMzItMTAtMTcuMzIiLz48Zz48dXNlIHRyYW5zZm9ybT0ibWF0cml4KDEsMCwwLDEsLTQ3MC42NDcwNDUyMDQ1MzA4NSw4ODQpIHRyYW5zbGF0ZSgwIDE0LjIyMjIyMjIyMjIyMjIyMykiIHhsaW5rOmhyZWY9IiNYIi8+PC9nPjxwYXRoIGZpbGw9IiM1ZTVlNWUiIHN0cm9rZS13aWR0aD0iLjA1IiBzdHJva2U9IiM1ZTVlNWUiIGQ9Ik0tMTI0MC40NyAxOTguOTZsLjA2LjgzLjE4Ljc1LjMuNzMuNC42Ny41Mi42LjYuNS42OC40Mi43Mi4zLjc3LjIuODIuMDZoMTAuMTR2MS45NGgtMTAuMjJsLTEuMDYtLjA4LTEuMDYtLjI2LTEtLjQyLS45NS0uNTctLjgzLS43Mi0uNy0uODMtLjU4LS45My0uNDItMS0uMjYtMS4wOC0uMDgtMS4wNlYxODhoMS45NXptNDUuNzcgN2gtMjAuMzd2LTEuOTRoMjAuMzd6bTMwLjU3IDBoLTIwLjM4di0xLjk0aDIwLjM3em0zMC41NiAwaC0yMC4zOHYtMS45NGgyMC4zOHptMzAuNTYgMGgtMjAuMzh2LTEuOTRoMjAuMzd6bTMwLjU1IDBoLTIwLjM3di0xLjk0aDIwLjM3em0zMC41NyAwaC0yMC4zOHYtMS45NGgyMC4zOHptMzAuNTYgMGgtMjAuMzh2LTEuOTRoMjAuMzh6bTMwLjU2IDBoLTIwLjM3di0xLjk0aDIwLjM3em0zMC41NiAwaC0yMC4zN3YtMS45NGgyMC4zN3ptMjcuMzUtNi45MmwtLjA4IDEuMDUtLjI2IDEuMDYtLjQgMS0uNTguOTQtLjcuODMtLjg0LjcyLS45My41Ny0xLjAyLjQyLTEuMDYuMjUtMS4wNS4wN0gtOTQwdi0xLjk0aDEwLjE0bC44Mi0uMDcuNzctLjE4LjczLS4zLjY3LS40Mi42LS41LjUtLjYuNDItLjY4LjMtLjczLjItLjc2LjA1LS44NHYtOS44MmgxLjk1em0wLTE5Ljc1aC0xLjk1di0xOS43M2gxLjk1em0tMzE3LjYyLTIuM2gtMS45NXYtMTFoMS45NXptMzE3LjYyLTI3LjNoLTEuOTVWMTMwaDEuOTV6bTAtMjkuNTZoLTEuOTV2LTE5LjdoMS45NXptMC0yOS41N2gtMS45NXYtMTkuN2gxLjk1em0wLTI5LjU3aC0xLjk1VjQxLjNoMS45NXptMC0yOS41N2gtMS45NVYxMS43aDEuOTV6bTAtMjkuNTdoLTEuOTV2LTE5LjcyaDEuOTV6bTAtMjkuNTdoLTEuOTV2LTE5LjczaDEuOTV6bTAtMjkuNmgtMS45NXYtMTMuMDdoMS45NXptMC0zNC40aC0xLjk1di0xNC44N2gxLjk1em0wLTI0LjczaC0xLjk1di0xOS43aDEuOTV6bTAtMjkuNTdoLTEuOTV2LTE5LjdoMS45NXptMC0yOS41N2gtMS45NXYtMTkuNzJoMS45NXptNDYzLjctNy4yNWgtMS45NnYtMTAuNzJoMS45NHptLTUuOS0zOS4wN2wxLjA3LjI2IDEgLjQyLjk1LjU3LjgzLjcyLjcuODMuNTguOTMuNDIgMSAuMjYgMS4wOC4wOCAxLjA2djEwLjc3aC0xLjk1di0xMC43bC0uMDctLjgyLS4yLS43NS0uMy0uNzMtLjQtLjY3LS41LS42LS42LS41LS42OC0uNDItLjczLS4zLS43Ny0uMi0uODItLjA2aC0xMHYtMS45NGgxMC4wN3pNLTkwNy43Ny0yMjBoLTEwbC0uODMuMDYtLjc3LjE4LS43My4zLS42Ny40Mi0uNi41LS41LjYtLjQzLjY4LS4zLjczLS4xOC43Ni0uMDcuODR2OS44MmgtMS45NXYtOS45bC4xLTEuMDUuMjQtMS4wNi40Mi0xIC41Ny0uOTQuNy0uODMuODUtLjcyLjkzLS41NyAxLjAyLS40MiAxLjA3LS4yNSAxLjA0LS4wN2gxMC4wOHptMzAuMSAwaC0yMC4wN3YtMS45NWgyMC4wOHptMzAuMTIgMGgtMjAuMDh2LTEuOTVoMjAuMDh6bTMwLjEgMGgtMjAuMDZ2LTEuOTVoMjAuMDd6bTMwLjEzIDBoLTIwLjA4di0xLjk1aDIwLjA3em0zMC4xIDBoLTIwLjA3di0xLjk1aDIwLjA4em0zMC4xMiAwaC0yMC4wOHYtMS45NWgyMC4wN3ptMzAuMSAwaC0yMC4wN3YtMS45NUgtNjk3em0zMC4xMiAwaC0yMC4wOHYtMS45NWgyMC4wOHptMzAuMSAwaC0yMC4wN3YtMS45NWgyMC4wOHptMzAuMTIgMGgtMjAuMDd2LTEuOTVoMjAuMDd6bTMwLjEgMGgtMjAuMDZ2LTEuOTVoMjAuMDd6bTMwLjEzIDBoLTIwLjA4di0xLjk1aDIwLjA3em0zMC4xIDBoLTIwLjA3di0xLjk1aDIwLjA4em0zMC4xMiAwaC0yMC4wOHYtMS45NWgyMC4wN3oiLz48cGF0aCBmaWxsPSIjNWU1ZTVlIiBkPSJNLTEyNDAuNDcgMTY2LjAzaC0xLjk1VjE2NWgxLjk1eiIvPjxwYXRoIGZpbGw9IiM1ZTVlNWUiIHN0cm9rZS13aWR0aD0iLjA1IiBzdHJva2U9IiM1ZTVlNWUiLz48cGF0aCBmaWxsPSIjNWU1ZTVlIiBzdHJva2Utd2lkdGg9Ii4wNSIgc3Ryb2tlPSIjNWU1ZTVlIiBkPSJNLTQ0OS4zLTE5OS44M2wtMTAuODMgMTguNzgtMTAuODUtMTguNzggMS43LS45OCA5LjE1IDE1Ljg1IDkuMTUtMTUuODZ6Ii8+PGc+PHVzZSB0cmFuc2Zvcm09Im1hdHJpeCgxLDAsMCwxLC05NjAuNzg1MTM1MzgyNTQ3OCwtOTEuNjk5MjA2MzQ3MjgxNzMpIHRyYW5zbGF0ZSgwIDE0LjIyMjIyMjIyMjIyMjIyMykiIHhsaW5rOmhyZWY9IiNZIi8+PC9nPjxwYXRoIGZpbGw9IiM1ZTVlNWUiIHN0cm9rZS13aWR0aD0iLjA1IiBzdHJva2U9IiM1ZTVlNWUiIGQ9Ik0tNDI0LjAzIDIwMi45N2gtMTMuMTRsLS44Mi4wNy0uNzYuMTgtLjczLjMtLjY2LjQyLS42LjUtLjUuNi0uNDIuNjgtLjMuNzMtLjIuNzYtLjA1Ljg0djY5LjE0aC0xLjk1di02OS4yMmwuMDgtMS4wNS4yNi0xLjA2LjQyLTEgLjU3LS45NC43LS44My44NC0uNzIuOTMtLjU3IDEtLjQyIDEuMDctLjI1IDEuMDYtLjA3aDEzLjJ6bTg3LjE3LTYuOTNsLS4xIDEuMDUtLjI0IDEuMDYtLjQyIDEtLjU3Ljk0LS43LjgzLS44NC43Mi0uOTMuNTctMSAuNDItMS4wOC4yNS0xLjA1LjA3aC0xMy4yMnYtMS45NGgxMy4xNGwuODMtLjA3Ljc2LS4xOC43NC0uMy42Ny0uNDIuNi0uNS41Mi0uNi40Mi0uNjguMy0uNzMuMTgtLjc2LjA3LS44NFYxMjZoMS45NHoiLz48cGF0aCBmaWxsPSIjNWU1ZTVlIiBkPSJNLTMzNi44NiAxMjYuMDNoLTEuOTVWMTI1aDEuOTR6Ii8+PHBhdGggZmlsbD0iIzVlNWU1ZSIgc3Ryb2tlLXdpZHRoPSIuMDUiIHN0cm9rZT0iIzVlNWU1ZSIvPjxwYXRoIGZpbGw9IiM1ZTVlNWUiIHN0cm9rZS13aWR0aD0iLjA1IiBzdHJva2U9IiM1ZTVlNWUiIGQ9Ik0tNDMyLjM2IDI2MC4xN2wtMTAuODUgMTguNzgtMTAuODUtMTguNzggMS43LS45OCA5LjE0IDE1Ljg1IDkuMTUtMTUuODZ6Ii8+PGc+PHVzZSB0cmFuc2Zvcm09Im1hdHJpeCgxLDAsMCwxLC00MjQuMDI5MTQ0MDM2NDQyLDE5MS4zMzMzMTYxNTQ1NDI5MykgdHJhbnNsYXRlKDAgMTQuMjIyMjIyMjIyMjIyMjIzKSIgeGxpbms6aHJlZj0iI1oiLz48L2c+PHBhdGggZmlsbD0iIzVlNWU1ZSIgc3Ryb2tlLXdpZHRoPSIuMDUiIHN0cm9rZT0iIzVlNWU1ZSIgZD0iTS0xNTQ2Ljg4IDQxNy4xOGgtMS45NHYtMTE0LjVoMS45NHptODYuMjgtMTM1Ljg1aC0xLjk1VjE2NmgxLjk1eiIvPjxwYXRoIGZpbGw9IiM1ZTVlNWUiIGQ9Ik0tMTQ2MC42IDE2Ni4wM2gtMS45NVYxNjVoMS45NXoiLz48cGF0aCBmaWxsPSIjNWU1ZTVlIiBzdHJva2Utd2lkdGg9Ii4wNSIgc3Ryb2tlPSIjNWU1ZTVlIi8+PHBhdGggZmlsbD0iIzVlNWU1ZSIgc3Ryb2tlLXdpZHRoPSIuMDUiIHN0cm9rZT0iIzVlNWU1ZSIgZD0iTS0xNTM3IDQwMC4xN2wtMTAuODUgMTguNzgtMTAuODUtMTguNzggMS43LS45OCA5LjE1IDE1Ljg1IDkuMTUtMTUuODZ6Ii8+PGc+PHVzZSB0cmFuc2Zvcm09Im1hdHJpeCgxLDAsMCwxLC0xNTY2LjgzNzY2ODk4NzQ5MSwyODEuMzMzMzUwNDIzNDUwNDQpIHRyYW5zbGF0ZSgwIDE0LjIyMjIyMjIyMjIyMjIyMykiIHhsaW5rOmhyZWY9IiNhYSIvPjwvZz48cGF0aCBmaWxsPSIjNWU1ZTVlIiBzdHJva2Utd2lkdGg9Ii4wNSIgc3Ryb2tlPSIjNWU1ZTVlIiBkPSJNLTU4MS40NSAyNDguMjVoLTEuOTV2LTM1LjU4aDEuOTV6bTAtNTYuOTJoLTEuOTVWMTI2aDEuOTV6Ii8+PHBhdGggZmlsbD0iI2ZmZiIgZD0iTS01NjcuNTggMjYyLjc0bC0xNC44NSAxNC44NS0xNC44NS0xNC44NiAxNC44NS0xNC44NXoiLz48cGF0aCBmaWxsPSIjNWU1ZTVlIiBzdHJva2Utd2lkdGg9Ii4wNSIgc3Ryb2tlPSIjNWU1ZTVlIiBkPSJNLTU2Ni4yIDI2Mi43NGwtMTYuMjMgMTYuMjItMTYuMjMtMTYuMjIgMTYuMjMtMTYuMjN6bS0yOS43IDBsMTMuNDcgMTMuNDcgMTMuNDctMTMuNDYtMTMuNDctMTMuNDd6Ii8+PHBhdGggZmlsbD0iIzVlNWU1ZSIgZD0iTS01ODEuNDUgMTI2LjAzaC0xLjk1VjEyNWgxLjk1eiIvPjxwYXRoIGZpbGw9IiM1ZTVlNWUiIHN0cm9rZS13aWR0aD0iLjA1IiBzdHJva2U9IiM1ZTVlNWUiLz48Zz48dXNlIHRyYW5zZm9ybT0ibWF0cml4KDEsMCwwLDEsLTYzNC42MDE2OTk2MDAwMTY2LDE5MS4zMzMzNTA1MTIxMjMyNSkgdHJhbnNsYXRlKDAgMTQuMjIyMjIyMjIyMjIyMjIzKSIgeGxpbms6aHJlZj0iI2FiIi8+PC9nPjxwYXRoIGZpbGw9IiM1ZTVlNWUiIHN0cm9rZS13aWR0aD0iLjA1IiBzdHJva2U9IiM1ZTVlNWUiIGQ9Ik0tOTY4LjQgOTE2LjAybDEuMDYuMSAxLjA3LjI0IDEgLjQyLjk0LjU4Ljg0LjcuNzIuODQuNTcuOTMuNCAxIC4yNiAxLjA4LjEgMS4wNlY5MzhoLTEuOTZ2LTE0Ljk2bC0uMDctLjgzLS4xOC0uNzUtLjMtLjczLS40Mi0uNjctLjUtLjYtLjYtLjUtLjY4LS40My0uNzMtLjMtLjc2LS4xOC0uODMtLjA2aC0yNDQuMDZWOTE2em0tNDgxLjUzLTQuMjNsLjIuNzUuMy43My40LjY3LjUuNi42LjUuNjguNDMuNzMuMy43Ny4xOC44Mi4wNmgxMjguMDZWOTE4SC0xNDQ1bC0xLjA2LS4xLTEuMDctLjI0LTEtLjQyLS45NC0uNTgtLjgzLS43LS43LS44NC0uNi0uOTMtLjQtMS0uMjYtMS4wOC0uMDgtMS4wNnYtMTAxLjNoMS45NXYxMDEuMjJ6Ii8+PHBhdGggZmlsbD0iI2ZmZiIgZD0iTS0xNDM2LjEyIDc5NS4yNmwtMTQuODUgMTQuODUtMTQuODUtMTQuODQgMTQuODUtMTQuODV6Ii8+PHBhdGggZmlsbD0iIzVlNWU1ZSIgc3Ryb2tlLXdpZHRoPSIuMDUiIHN0cm9rZT0iIzVlNWU1ZSIgZD0iTS0xNDM0Ljc0IDc5NS4yNmwtMTYuMjMgMTYuMjMtMTYuMjMtMTYuMjQgMTYuMjMtMTYuMjN6bS0yOS43IDBsMTMuNDcgMTMuNDcgMTMuNDctMTMuNDctMTMuNDctMTMuNDd6Ii8+PHBhdGggZmlsbD0iIzVlNWU1ZSIgZD0iTS05NjEuNDUgOTM5aC0xLjk1di0xLjAzaDEuOTV6Ii8+PHBhdGggZmlsbD0iIzVlNWU1ZSIgc3Ryb2tlLXdpZHRoPSIuMDUiIHN0cm9rZT0iIzVlNWU1ZSIvPjxnPjx1c2UgdHJhbnNmb3JtPSJtYXRyaXgoMSwwLDAsMSwtMTMxNi44NzE0MzIyNDk1Nzg3LDkwNi4zMzM0MDA2MzM4MTU4KSB0cmFuc2xhdGUoMCAxNC4yMjIyMjIyMjIyMjIyMjMpIiB4bGluazpocmVmPSIjYWIiLz48L2c+PHBhdGggZmlsbD0iI2VkZjVmZiIgc3Ryb2tlLXdpZHRoPSIyIiBzdHJva2U9IiM2ZGIxZmYiIGQ9Ik0tMTEwMCA5NDZhNiA2IDAgMCAxIDYtNmg0MDIuMzZhNiA2IDAgMCAxIDYgNnYyMzlhNiA2IDAgMCAxLTYgNkgtMTA5NGE2IDYgMCAwIDEtNi02eiIvPjxwYXRoIGZpbGw9Im5vbmUiIHN0cm9rZS13aWR0aD0iMiIgc3Ryb2tlPSIjNmRiMWZmIiBkPSJNLTExMDAgOTgyLjY3aDQxNC4zNk0tMTEwMCAxMDczLjVoNDE0LjM2Ii8+PGc+PHVzZSB0cmFuc2Zvcm09Im1hdHJpeCgxLDAsMCwxLC0xMDkyLDk0OCkgdHJhbnNsYXRlKDE3Ny4zMzk1MDYxNzI4Mzk1IDE3Ljk0NDQ0NDQ0NDQ0NDQ0MykiIHhsaW5rOmhyZWY9IiNhYyIvPjwvZz48Zz48dXNlIHRyYW5zZm9ybT0ibWF0cml4KDEsMCwwLDEsLTEwODgsOTkwLjY2NjY2NjY2NjY2NjYpIHRyYW5zbGF0ZSgwIDI4LjYxMTExMTExMTExMTExNCkiIHhsaW5rOmhyZWY9IiNiIi8+PHVzZSB0cmFuc2Zvcm09Im1hdHJpeCgxLDAsMCwxLC0xMDg4LDk5MC42NjY2NjY2NjY2NjY2KSB0cmFuc2xhdGUoMTMuNTE4NTE4NTE4NTE4NTE5IDI4LjYxMTExMTExMTExMTExNCkiIHhsaW5rOmhyZWY9IiN6Ii8+PHVzZSB0cmFuc2Zvcm09Im1hdHJpeCgxLDAsMCwxLC0xMDg4LDk5MC42NjY2NjY2NjY2NjY2KSB0cmFuc2xhdGUoNDMuMDg2NDE5NzUzMDg2NDIgMjguNjExMTExMTExMTExMTE0KSIgeGxpbms6aHJlZj0iI2QiLz48dXNlIHRyYW5zZm9ybT0ibWF0cml4KDEsMCwwLDEsLTEwODgsOTkwLjY2NjY2NjY2NjY2NjYpIHRyYW5zbGF0ZSgwIDU1LjI3Nzc3Nzc3Nzc3Nzc4KSIgeGxpbms6aHJlZj0iI2IiLz48dXNlIHRyYW5zZm9ybT0ibWF0cml4KDEsMCwwLDEsLTEwODgsOTkwLjY2NjY2NjY2NjY2NjYpIHRyYW5zbGF0ZSgxMy41MTg1MTg1MTg1MTg1MTkgNTUuMjc3Nzc3Nzc3Nzc3NzgpIiB4bGluazpocmVmPSIjYWQiLz48dXNlIHRyYW5zZm9ybT0ibWF0cml4KDEsMCwwLDEsLTEwODgsOTkwLjY2NjY2NjY2NjY2NjYpIHRyYW5zbGF0ZSgxMTMuMzMzMzMzMzMzMzMzMzMgNTUuMjc3Nzc3Nzc3Nzc3NzgpIiB4bGluazpocmVmPSIjYWUiLz48L2c+PGc+PHVzZSB0cmFuc2Zvcm09Im1hdHJpeCgxLDAsMCwxLC0xMDg4LDEwODEuNSkgdHJhbnNsYXRlKDAgMjguNzc3Nzc3Nzc3Nzc3NzgpIiB4bGluazpocmVmPSIjayIvPjx1c2UgdHJhbnNmb3JtPSJtYXRyaXgoMSwwLDAsMSwtMTA4OCwxMDgxLjUpIHRyYW5zbGF0ZSgxOS4xMzU4MDI0NjkxMzU4IDI4Ljc3Nzc3Nzc3Nzc3Nzc4KSIgeGxpbms6aHJlZj0iI2FmIi8+PHVzZSB0cmFuc2Zvcm09Im1hdHJpeCgxLDAsMCwxLC0xMDg4LDEwODEuNSkgdHJhbnNsYXRlKDE1MS42NjY2NjY2NjY2NjY2OSAyOC43Nzc3Nzc3Nzc3Nzc3OCkiIHhsaW5rOmhyZWY9IiNUIi8+PHVzZSB0cmFuc2Zvcm09Im1hdHJpeCgxLDAsMCwxLC0xMDg4LDEwODEuNSkgdHJhbnNsYXRlKDAgNTUuNDQ0NDQ0NDQ0NDQ0NDUpIiB4bGluazpocmVmPSIjayIvPjx1c2UgdHJhbnNmb3JtPSJtYXRyaXgoMSwwLDAsMSwtMTA4OCwxMDgxLjUpIHRyYW5zbGF0ZSgxOS4xMzU4MDI0NjkxMzU4IDU1LjQ0NDQ0NDQ0NDQ0NDQ1KSIgeGxpbms6aHJlZj0iI2FnIi8+PHVzZSB0cmFuc2Zvcm09Im1hdHJpeCgxLDAsMCwxLC0xMDg4LDEwODEuNSkgdHJhbnNsYXRlKDExMy45NTA2MTcyODM5NTA2IDU1LjQ0NDQ0NDQ0NDQ0NDQ1KSIgeGxpbms6aHJlZj0iI3IiLz48dXNlIHRyYW5zZm9ybT0ibWF0cml4KDEsMCwwLDEsLTEwODgsMTA4MS41KSB0cmFuc2xhdGUoMCA4Mi4xMTExMTExMTExMTExMSkiIHhsaW5rOmhyZWY9IiNrIi8+PHVzZSB0cmFuc2Zvcm09Im1hdHJpeCgxLDAsMCwxLC0xMDg4LDEwODEuNSkgdHJhbnNsYXRlKDE5LjEzNTgwMjQ2OTEzNTggODIuMTExMTExMTExMTExMTEpIiB4bGluazpocmVmPSIjYWgiLz48dXNlIHRyYW5zZm9ybT0ibWF0cml4KDEsMCwwLDEsLTEwODgsMTA4MS41KSB0cmFuc2xhdGUoMTMzLjcwMzcwMzcwMzcwMzcgODIuMTExMTExMTExMTExMTEpIiB4bGluazpocmVmPSIjbSIvPjwvZz48ZGVmcz48cGF0aCBpZD0iYWkiIGQ9Ik0xODUtMTg5Yy01LTQ4LTEyMy01NC0xMjQgMiAxNCA3NSAxNTggMTQgMTYzIDExOSAzIDc4LTEyMSA4Ny0xNzUgNTUtMTctMTAtMjgtMjYtMzMtNDZsMzMtN2M1IDU2IDE0MSA2MyAxNDEtMSAwLTc4LTE1NS0xNC0xNjItMTE4LTUtODIgMTQ1LTg0IDE3OS0zNCA1IDcgOCAxNiAxMSAyNSIvPjxwYXRoIGlkPSJhaiIgZD0iTTEwMC0xOTRjNjMgMCA4NiA0MiA4NCAxMDZINDljMCA0MCAxNCA2NyA1MyA2OCAyNiAxIDQzLTEyIDQ5LTI5bDI4IDhjLTExIDI4LTM3IDQ1LTc3IDQ1QzQ0IDQgMTQtMzMgMTUtOTZjMS02MSAyNi05OCA4NS05OHptNTIgODFjNi02MC03Ni03Ny05Ny0yOC0zIDctNiAxNy02IDI4aDEwMyIvPjxwYXRoIGlkPSJhayIgZD0iTTExNC0xNjNDMzYtMTc5IDYxLTcyIDU3IDBIMjVsLTEtMTkwaDMwYzEgMTItMSAyOSAyIDM5IDYtMjcgMjMtNDkgNTgtNDF2MjkiLz48cGF0aCBpZD0iYWwiIGQ9Ik0xMDggMEg3MEwxLTE5MGgzNEw4OS0yNWw1Ni0xNjVoMzQiLz48ZyBpZD0iYSI+PHVzZSB4bGluazpocmVmPSIjYWkiIHRyYW5zZm9ybT0ibWF0cml4KDAuMDYxNzI4Mzk1MDYxNzI4MzksMCwwLDAuMDYxNzI4Mzk1MDYxNzI4MzksMCwwKSIvPjx1c2UgeGxpbms6aHJlZj0iI2FqIiB0cmFuc2Zvcm09Im1hdHJpeCgwLjA2MTcyODM5NTA2MTcyODM5LDAsMCwwLjA2MTcyODM5NTA2MTcyODM5LDE0LjgxNDgxNDgxNDgxNDgxMywwKSIvPjx1c2UgeGxpbms6aHJlZj0iI2FrIiB0cmFuc2Zvcm09Im1hdHJpeCgwLjA2MTcyODM5NTA2MTcyODM5LDAsMCwwLjA2MTcyODM5NTA2MTcyODM5LDI3LjE2MDQ5MzgyNzE2MDQ5NCwwKSIvPjx1c2UgeGxpbms6aHJlZj0iI2FsIiB0cmFuc2Zvcm09Im1hdHJpeCgwLjA2MTcyODM5NTA2MTcyODM5LDAsMCwwLjA2MTcyODM5NTA2MTcyODM5LDM0LjUwNjE3MjgzOTUwNjE3LDApIi8+PHVzZSB4bGluazpocmVmPSIjYWoiIHRyYW5zZm9ybT0ibWF0cml4KDAuMDYxNzI4Mzk1MDYxNzI4MzksMCwwLDAuMDYxNzI4Mzk1MDYxNzI4MzksNDUuNjE3MjgzOTUwNjE3MjgsMCkiLz48dXNlIHhsaW5rOmhyZWY9IiNhayIgdHJhbnNmb3JtPSJtYXRyaXgoMC4wNjE3MjgzOTUwNjE3MjgzOSwwLDAsMC4wNjE3MjgzOTUwNjE3MjgzOSw1Ny45NjI5NjI5NjI5NjI5NTUsMCkiLz48L2c+PHBhdGggaWQ9ImFtIiBkPSJNMTYtODJ2LTI4aDg4djI4SDE2Ii8+PHVzZSBpZD0iYiIgeGxpbms6aHJlZj0iI2FtIiB0cmFuc2Zvcm09Im1hdHJpeCgwLjA2MTcyODM5NTA2MTcyODM5LDAsMCwwLjA2MTcyODM5NTA2MTcyODM5LDAsMCkiLz48cGF0aCBpZD0iYW4iIGQ9Ik0zMC0yNDhjODcgMSAxOTEtMTUgMTkxIDc1IDAgNzgtNzcgODAtMTU4IDc2VjBIMzB2LTI0OHptMzMgMTI1YzU3IDAgMTI0IDExIDEyNC01MCAwLTU5LTY4LTQ3LTEyNC00OHY5OCIvPjxwYXRoIGlkPSJhbyIgZD0iTTE0MC0yNTFjODEgMCAxMjMgNDYgMTIzIDEyNkMyNjMtNDYgMjE5IDQgMTQwIDQgNTkgNCAxNy00NSAxNy0xMjVzNDItMTI2IDEyMy0xMjZ6bTAgMjI3YzYzIDAgODktNDEgODktMTAxcy0yOS05OS04OS05OWMtNjEgMC04OSAzOS04OSA5OVM3OS0yNSAxNDAtMjQiLz48cGF0aCBpZD0iYXAiIGQ9Ik0yMzMtMTc3Yy0xIDQxLTIzIDY0LTYwIDcwTDI0MyAwaC0zOGwtNjUtMTAzSDYzVjBIMzB2LTI0OGM4OCAzIDIwNS0yMSAyMDMgNzF6TTYzLTEyOWM2MC0yIDEzNyAxMyAxMzctNDcgMC02MS04MC00Mi0xMzctNDV2OTIiLz48cGF0aCBpZD0iYXEiIGQ9Ik0xMjctMjIwVjBIOTN2LTIyMEg4di0yOGgyMDR2MjhoLTg1Ii8+PHBhdGggaWQ9ImFyIiBkPSJNMzMtMTU0di0zNmgzNHYzNkgzM3pNMzMgMHYtMzZoMzRWMEgzMyIvPjxnIGlkPSJjIj48dXNlIHhsaW5rOmhyZWY9IiNhbiIgdHJhbnNmb3JtPSJtYXRyaXgoMC4wNjE3MjgzOTUwNjE3MjgzOSwwLDAsMC4wNjE3MjgzOTUwNjE3MjgzOSwwLDApIi8+PHVzZSB4bGluazpocmVmPSIjYW8iIHRyYW5zZm9ybT0ibWF0cml4KDAuMDYxNzI4Mzk1MDYxNzI4MzksMCwwLDAuMDYxNzI4Mzk1MDYxNzI4MzksMTQuODE0ODE0ODE0ODE0ODEzLDApIi8+PHVzZSB4bGluazpocmVmPSIjYXAiIHRyYW5zZm9ybT0ibWF0cml4KDAuMDYxNzI4Mzk1MDYxNzI4MzksMCwwLDAuMDYxNzI4Mzk1MDYxNzI4MzksMzIuMDk4NzY1NDMyMDk4NzYsMCkiLz48dXNlIHhsaW5rOmhyZWY9IiNhcSIgdHJhbnNmb3JtPSJtYXRyaXgoMC4wNjE3MjgzOTUwNjE3MjgzOSwwLDAsMC4wNjE3MjgzOTUwNjE3MjgzOSw0Ny42NTQzMjA5ODc2NTQzMTYsMCkiLz48dXNlIHhsaW5rOmhyZWY9IiNhciIgdHJhbnNmb3JtPSJtYXRyaXgoMC4wNjE3MjgzOTUwNjE3MjgzOSwwLDAsMC4wNjE3MjgzOTUwNjE3MjgzOSw1OC43MDM3MDM3MDM3MDM3LDApIi8+PC9nPjxwYXRoIGlkPSJhcyIgZD0iTTI0LTIzMXYtMzBoMzJ2MzBIMjR6TTI0IDB2LTE5MGgzMlYwSDI0Ii8+PHBhdGggaWQ9ImF0IiBkPSJNMTE3LTE5NGM4OS00IDUzIDExNiA2MCAxOTRoLTMydi0xMjFjMC0zMS04LTQ5LTM5LTQ4QzM0LTE2NyA2Mi02NyA1NyAwSDI1bC0xLTE5MGgzMGMxIDEwLTEgMjQgMiAzMiAxMS0yMiAyOS0zNSA2MS0zNiIvPjxwYXRoIGlkPSJhdSIgZD0iTTU5LTQ3Yy0yIDI0IDE4IDI5IDM4IDIydjI0QzY0IDkgMjcgNCAyNy00MHYtMTI3SDV2LTIzaDI0bDktNDNoMjF2NDNoMzV2MjNINTl2MTIwIi8+PGcgaWQ9ImQiPjx1c2UgeGxpbms6aHJlZj0iI2FzIiB0cmFuc2Zvcm09Im1hdHJpeCgwLjA2MTcyODM5NTA2MTcyODM5LDAsMCwwLjA2MTcyODM5NTA2MTcyODM5LDAsMCkiLz48dXNlIHhsaW5rOmhyZWY9IiNhdCIgdHJhbnNmb3JtPSJtYXRyaXgoMC4wNjE3MjgzOTUwNjE3MjgzOSwwLDAsMC4wNjE3MjgzOTUwNjE3MjgzOSw0Ljg3NjU0MzIwOTg3NjU0MywwKSIvPjx1c2UgeGxpbms6aHJlZj0iI2F1IiB0cmFuc2Zvcm09Im1hdHJpeCgwLjA2MTcyODM5NTA2MTcyODM5LDAsMCwwLjA2MTcyODM5NTA2MTcyODM5LDE3LjIyMjIyMjIyMjIyMjIyLDApIi8+PC9nPjxwYXRoIGlkPSJhdiIgZD0iTTExNS0xOTRjNTUgMSA3MCA0MSA3MCA5OFMxNjkgMiAxMTUgNEM4NCA0IDY2LTkgNTUtMzBsMSAxMDVIMjRsLTEtMjY1aDMxbDIgMzBjMTAtMjEgMjgtMzQgNTktMzR6bS04IDE3NGM0MCAwIDQ1LTM0IDQ1LTc1cy02LTczLTQ1LTc0Yy00MiAwLTUxIDMyLTUxIDc2IDAgNDMgMTAgNzMgNTEgNzMiLz48cGF0aCBpZD0iYXciIGQ9Ik0xMDYtMTY5QzM0LTE2OSA2Mi02NyA1NyAwSDI1di0yNjFoMzJsLTEgMTAzYzEyLTIxIDI4LTM2IDYxLTM2IDg5IDAgNTMgMTE2IDYwIDE5NGgtMzJ2LTEyMWMyLTMyLTgtNDktMzktNDgiLz48cGF0aCBpZD0iYXgiIGQ9Ik0yNCAwdi0yNjFoMzJWMEgyNCIvPjxwYXRoIGlkPSJheSIgZD0iTTEwMC0xOTRjNjItMSA4NSAzNyA4NSA5OSAxIDYzLTI3IDk5LTg2IDk5UzE2LTM1IDE1LTk1YzAtNjYgMjgtOTkgODUtOTl6TTk5LTIwYzQ0IDEgNTMtMzEgNTMtNzUgMC00My04LTc1LTUxLTc1cy01MyAzMi01MyA3NSAxMCA3NCA1MSA3NSIvPjxwYXRoIGlkPSJheiIgZD0iTTEzNS0xNDNjLTMtMzQtODYtMzgtODcgMCAxNSA1MyAxMTUgMTIgMTE5IDkwUzE3IDIxIDEwLTQ1bDI4LTVjNCAzNiA5NyA0NSA5OCAwLTEwLTU2LTExMy0xNS0xMTgtOTAtNC01NyA4Mi02MyAxMjItNDIgMTIgNyAyMSAxOSAyNCAzNSIvPjxnIGlkPSJlIj48dXNlIHhsaW5rOmhyZWY9IiNhdiIgdHJhbnNmb3JtPSJtYXRyaXgoMC4wNjE3MjgzOTUwNjE3MjgzOSwwLDAsMC4wNjE3MjgzOTUwNjE3MjgzOSwwLDApIi8+PHVzZSB4bGluazpocmVmPSIjYXciIHRyYW5zZm9ybT0ibWF0cml4KDAuMDYxNzI4Mzk1MDYxNzI4MzksMCwwLDAuMDYxNzI4Mzk1MDYxNzI4MzksMTIuMzQ1Njc5MDEyMzQ1Njc5LDApIi8+PHVzZSB4bGluazpocmVmPSIjYXMiIHRyYW5zZm9ybT0ibWF0cml4KDAuMDYxNzI4Mzk1MDYxNzI4MzksMCwwLDAuMDYxNzI4Mzk1MDYxNzI4MzksMjQuNjkxMzU4MDI0NjkxMzU4LDApIi8+PHVzZSB4bGluazpocmVmPSIjYXgiIHRyYW5zZm9ybT0ibWF0cml4KDAuMDYxNzI4Mzk1MDYxNzI4MzksMCwwLDAuMDYxNzI4Mzk1MDYxNzI4MzksMjkuNTY3OTAxMjM0NTY3OSwwKSIvPjx1c2UgeGxpbms6aHJlZj0iI2F5IiB0cmFuc2Zvcm09Im1hdHJpeCgwLjA2MTcyODM5NTA2MTcyODM5LDAsMCwwLjA2MTcyODM5NTA2MTcyODM5LDM0LjQ0NDQ0NDQ0NDQ0NDQ0LDApIi8+PHVzZSB4bGluazpocmVmPSIjYXoiIHRyYW5zZm9ybT0ibWF0cml4KDAuMDYxNzI4Mzk1MDYxNzI4MzksMCwwLDAuMDYxNzI4Mzk1MDYxNzI4MzksNDYuNzkwMTIzNDU2NzkwMTIsMCkiLz48dXNlIHhsaW5rOmhyZWY9IiNheSIgdHJhbnNmb3JtPSJtYXRyaXgoMC4wNjE3MjgzOTUwNjE3MjgzOSwwLDAsMC4wNjE3MjgzOTUwNjE3MjgzOSw1Ny45MDEyMzQ1Njc5MDEyMywwKSIvPjx1c2UgeGxpbms6aHJlZj0iI2F2IiB0cmFuc2Zvcm09Im1hdHJpeCgwLjA2MTcyODM5NTA2MTcyODM5LDAsMCwwLjA2MTcyODM5NTA2MTcyODM5LDcwLjI0NjkxMzU4MDI0NjkxLDApIi8+PHVzZSB4bGluazpocmVmPSIjYXciIHRyYW5zZm9ybT0ibWF0cml4KDAuMDYxNzI4Mzk1MDYxNzI4MzksMCwwLDAuMDYxNzI4Mzk1MDYxNzI4MzksODIuNTkyNTkyNTkyNTkyNiwwKSIvPjx1c2UgeGxpbms6aHJlZj0iI2FqIiB0cmFuc2Zvcm09Im1hdHJpeCgwLjA2MTcyODM5NTA2MTcyODM5LDAsMCwwLjA2MTcyODM5NTA2MTcyODM5LDk0LjkzODI3MTYwNDkzODI4LDApIi8+PHVzZSB4bGluazpocmVmPSIjYWsiIHRyYW5zZm9ybT0ibWF0cml4KDAuMDYxNzI4Mzk1MDYxNzI4MzksMCwwLDAuMDYxNzI4Mzk1MDYxNzI4MzksMTA3LjI4Mzk1MDYxNzI4Mzk2LDApIi8+PHVzZSB4bGluazpocmVmPSIjYXoiIHRyYW5zZm9ybT0ibWF0cml4KDAuMDYxNzI4Mzk1MDYxNzI4MzksMCwwLDAuMDYxNzI4Mzk1MDYxNzI4MzksMTE0LjYyOTYyOTYyOTYyOTY1LDApIi8+PHVzZSB4bGluazpocmVmPSIjYXIiIHRyYW5zZm9ybT0ibWF0cml4KDAuMDYxNzI4Mzk1MDYxNzI4MzksMCwwLDAuMDYxNzI4Mzk1MDYxNzI4MzksMTI1Ljc0MDc0MDc0MDc0MDc2LDApIi8+PC9nPjxwYXRoIGlkPSJhQSIgZD0iTTI0MCAwbDItMjE4Yy0yMyA3Ni01NCAxNDUtODAgMjE4aC0yM0w1OC0yMTggNTkgMEgzMHYtMjQ4aDQ0bDc3IDIxMWMyMS03NSA1MS0xNDAgNzYtMjExaDQzVjBoLTMwIi8+PHBhdGggaWQ9ImFCIiBkPSJNMTQxLTM2QzEyNi0xNSAxMTAgNSA3MyA0IDM3IDMgMTUtMTcgMTUtNTNjLTEtNjQgNjMtNjMgMTI1LTYzIDMtMzUtOS01NC00MS01NC0yNCAxLTQxIDctNDIgMzFsLTMzLTNjNS0zNyAzMy01MiA3Ni01MiA0NSAwIDcyIDIwIDcyIDY0djgyYy0xIDIwIDcgMzIgMjggMjd2MjBjLTMxIDktNjEtMi01OS0zNXpNNDgtNTNjMCAyMCAxMiAzMyAzMiAzMyA0MS0zIDYzLTI5IDYwLTc0LTQzIDItOTItNS05MiA0MSIvPjxnIGlkPSJmIj48dXNlIHhsaW5rOmhyZWY9IiNhQSIgdHJhbnNmb3JtPSJtYXRyaXgoMC4wNjE3MjgzOTUwNjE3MjgzOSwwLDAsMC4wNjE3MjgzOTUwNjE3MjgzOSwwLDApIi8+PHVzZSB4bGluazpocmVmPSIjYUIiIHRyYW5zZm9ybT0ibWF0cml4KDAuMDYxNzI4Mzk1MDYxNzI4MzksMCwwLDAuMDYxNzI4Mzk1MDYxNzI4MzksMTguNDU2NzkwMTIzNDU2Nzg4LDApIi8+PHVzZSB4bGluazpocmVmPSIjYXYiIHRyYW5zZm9ybT0ibWF0cml4KDAuMDYxNzI4Mzk1MDYxNzI4MzksMCwwLDAuMDYxNzI4Mzk1MDYxNzI4MzksMzAuODAyNDY5MTM1ODAyNDcsMCkiLz48L2c+PHBhdGggaWQ9ImFDIiBkPSJNMTAxLTIzNGMtMzEtOS00MiAxMC0zOCA0NGgzOHYyM0g2M1YwSDMydi0xNjdINXYtMjNoMjdjLTctNTIgMTctODIgNjktNjh2MjQiLz48cGF0aCBpZD0iYUQiIGQ9Ik0xNDMgMEw3OS04NyA1Ni02OFYwSDI0di0yNjFoMzJ2MTYzbDgzLTkyaDM3bC03NyA4MkwxODEgMGgtMzgiLz48ZyBpZD0iZyI+PHVzZSB4bGluazpocmVmPSIjYUMiIHRyYW5zZm9ybT0ibWF0cml4KDAuMDYxNzI4Mzk1MDYxNzI4MzksMCwwLDAuMDYxNzI4Mzk1MDYxNzI4MzksMCwwKSIvPjx1c2UgeGxpbms6aHJlZj0iI2F5IiB0cmFuc2Zvcm09Im1hdHJpeCgwLjA2MTcyODM5NTA2MTcyODM5LDAsMCwwLjA2MTcyODM5NTA2MTcyODM5LDYuMTcyODM5NTA2MTcyODM5LDApIi8+PHVzZSB4bGluazpocmVmPSIjYWsiIHRyYW5zZm9ybT0ibWF0cml4KDAuMDYxNzI4Mzk1MDYxNzI4MzksMCwwLDAuMDYxNzI4Mzk1MDYxNzI4MzksMTguNTE4NTE4NTE4NTE4NTIsMCkiLz48dXNlIHhsaW5rOmhyZWY9IiNhRCIgdHJhbnNmb3JtPSJtYXRyaXgoMC4wNjE3MjgzOTUwNjE3MjgzOSwwLDAsMC4wNjE3MjgzOTUwNjE3MjgzOSwyNS44NjQxOTc1MzA4NjQxOTYsMCkiLz48dXNlIHhsaW5rOmhyZWY9IiNheiIgdHJhbnNmb3JtPSJtYXRyaXgoMC4wNjE3MjgzOTUwNjE3MjgzOSwwLDAsMC4wNjE3MjgzOTUwNjE3MjgzOSwzNi45NzUzMDg2NDE5NzUzLDApIi8+PHVzZSB4bGluazpocmVmPSIjYXIiIHRyYW5zZm9ybT0ibWF0cml4KDAuMDYxNzI4Mzk1MDYxNzI4MzksMCwwLDAuMDYxNzI4Mzk1MDYxNzI4MzksNDguMDg2NDE5NzUzMDg2NDIsMCkiLz48L2c+PHBhdGggaWQ9ImFFIiBkPSJNNjMtMjIwdjkyaDEzOHYyOEg2M1YwSDMwdi0yNDhoMTc1djI4SDYzIi8+PHBhdGggaWQ9ImFGIiBkPSJNMjYgNzV2LTMzNmg3MXYyM0g1NlY1Mmg0MXYyM0gyNiIvPjxwYXRoIGlkPSJhRyIgZD0iTTMgNzVWNTJoNDF2LTI5MEgzdi0yM2g3MVY3NUgzIi8+PGcgaWQ9ImgiPjx1c2UgeGxpbms6aHJlZj0iI2FFIiB0cmFuc2Zvcm09Im1hdHJpeCgwLjA2MTcyODM5NTA2MTcyODM5LDAsMCwwLjA2MTcyODM5NTA2MTcyODM5LDAsMCkiLz48dXNlIHhsaW5rOmhyZWY9IiNheSIgdHJhbnNmb3JtPSJtYXRyaXgoMC4wNjE3MjgzOTUwNjE3MjgzOSwwLDAsMC4wNjE3MjgzOTUwNjE3MjgzOSwxMy41MTg1MTg1MTg1MTg1MTcsMCkiLz48dXNlIHhsaW5rOmhyZWY9IiNhayIgdHJhbnNmb3JtPSJtYXRyaXgoMC4wNjE3MjgzOTUwNjE3MjgzOSwwLDAsMC4wNjE3MjgzOTUwNjE3MjgzOSwyNS44NjQxOTc1MzA4NjQxOTYsMCkiLz48dXNlIHhsaW5rOmhyZWY9IiNhRCIgdHJhbnNmb3JtPSJtYXRyaXgoMC4wNjE3MjgzOTUwNjE3MjgzOSwwLDAsMC4wNjE3MjgzOTUwNjE3MjgzOSwzMy4yMDk4NzY1NDMyMDk4NywwKSIvPjx1c2UgeGxpbms6aHJlZj0iI2FGIiB0cmFuc2Zvcm09Im1hdHJpeCgwLjA2MTcyODM5NTA2MTcyODM5LDAsMCwwLjA2MTcyODM5NTA2MTcyODM5LDQ0LjMyMDk4NzY1NDMyMDk5LDApIi8+PHVzZSB4bGluazpocmVmPSIjYUciIHRyYW5zZm9ybT0ibWF0cml4KDAuMDYxNzI4Mzk1MDYxNzI4MzksMCwwLDAuMDYxNzI4Mzk1MDYxNzI4MzksNTAuNDkzODI3MTYwNDkzODMsMCkiLz48L2c+PHBhdGggaWQ9ImFIIiBkPSJNMTYtMTI3YzM3LTMxIDkzLTIgMTM1IDYgMTgtMSAzMi04IDQzLTE2djI2Yy01MCA0Mi0xMzAtMzUtMTc4IDl2LTI1Ii8+PHVzZSBpZD0iaSIgeGxpbms6aHJlZj0iI2FIIiB0cmFuc2Zvcm09Im1hdHJpeCgwLjA2MTcyODM5NTA2MTcyODM5LDAsMCwwLjA2MTcyODM5NTA2MTcyODM5LDAsMCkiLz48cGF0aCBpZD0iYUkiIGQ9Ik0yMTItMTc5Yy0xMC0yOC0zNS00NS03My00NS01OSAwLTg3IDQwLTg3IDk5IDAgNjAgMjkgMTAxIDg5IDEwMSA0MyAwIDYyLTI0IDc4LTUybDI3IDE0QzIyOC0yNCAxOTUgNCAxMzkgNCA1OSA0IDIyLTQ2IDE4LTEyNWMtNi0xMDQgOTktMTUzIDE4Ny0xMTEgMTkgOSAzMSAyNiAzOSA0NiIvPjxwYXRoIGlkPSJhSiIgZD0iTTE5NyAwdi0xMTVINjNWMEgzMHYtMjQ4aDMzdjEwNWgxMzR2LTEwNWgzNFYwaC0zNCIvPjxwYXRoIGlkPSJhSyIgZD0iTTg1LTE5NGMzMSAwIDQ4IDEzIDYwIDMzbC0xLTEwMGgzMmwxIDI2MWgtMzBjLTItMTAgMC0yMy0zLTMxQzEzNC04IDExNiA0IDg1IDQgMzIgNCAxNi0zNSAxNS05NGMwLTY2IDIzLTEwMCA3MC0xMDB6bTkgMjRjLTQwIDAtNDYgMzQtNDYgNzUgMCA0MCA2IDc0IDQ1IDc0IDQyIDAgNTEtMzIgNTEtNzYgMC00Mi05LTc0LTUwLTczIi8+PGcgaWQ9ImoiPjx1c2UgeGxpbms6aHJlZj0iI2FJIiB0cmFuc2Zvcm09Im1hdHJpeCgwLjA2MTcyODM5NTA2MTcyODM5LDAsMCwwLjA2MTcyODM5NTA2MTcyODM5LDAsMCkiLz48dXNlIHhsaW5rOmhyZWY9IiNheCIgdHJhbnNmb3JtPSJtYXRyaXgoMC4wNjE3MjgzOTUwNjE3MjgzOSwwLDAsMC4wNjE3MjgzOTUwNjE3MjgzOSwxNS45ODc2NTQzMjA5ODc2NTMsMCkiLz48dXNlIHhsaW5rOmhyZWY9IiNhcyIgdHJhbnNmb3JtPSJtYXRyaXgoMC4wNjE3MjgzOTUwNjE3MjgzOSwwLDAsMC4wNjE3MjgzOTUwNjE3MjgzOSwyMC44NjQxOTc1MzA4NjQxOTYsMCkiLz48dXNlIHhsaW5rOmhyZWY9IiNhaiIgdHJhbnNmb3JtPSJtYXRyaXgoMC4wNjE3MjgzOTUwNjE3MjgzOSwwLDAsMC4wNjE3MjgzOTUwNjE3MjgzOSwyNS43NDA3NDA3NDA3NDA3NCwwKSIvPjx1c2UgeGxpbms6aHJlZj0iI2F0IiB0cmFuc2Zvcm09Im1hdHJpeCgwLjA2MTcyODM5NTA2MTcyODM5LDAsMCwwLjA2MTcyODM5NTA2MTcyODM5LDM4LjA4NjQxOTc1MzA4NjQyLDApIi8+PHVzZSB4bGluazpocmVmPSIjYXUiIHRyYW5zZm9ybT0ibWF0cml4KDAuMDYxNzI4Mzk1MDYxNzI4MzksMCwwLDAuMDYxNzI4Mzk1MDYxNzI4MzksNTAuNDMyMDk4NzY1NDMyMDk0LDApIi8+PHVzZSB4bGluazpocmVmPSIjYUoiIHRyYW5zZm9ybT0ibWF0cml4KDAuMDYxNzI4Mzk1MDYxNzI4MzksMCwwLDAuMDYxNzI4Mzk1MDYxNzI4MzksNTYuNjA0OTM4MjcxNjA0OTQsMCkiLz48dXNlIHhsaW5rOmhyZWY9IiNhQiIgdHJhbnNmb3JtPSJtYXRyaXgoMC4wNjE3MjgzOTUwNjE3MjgzOSwwLDAsMC4wNjE3MjgzOTUwNjE3MjgzOSw3Mi41OTI1OTI1OTI1OTI2LDApIi8+PHVzZSB4bGluazpocmVmPSIjYXQiIHRyYW5zZm9ybT0ibWF0cml4KDAuMDYxNzI4Mzk1MDYxNzI4MzksMCwwLDAuMDYxNzI4Mzk1MDYxNzI4MzksODQuOTM4MjcxNjA0OTM4MjgsMCkiLz48dXNlIHhsaW5rOmhyZWY9IiNhSyIgdHJhbnNmb3JtPSJtYXRyaXgoMC4wNjE3MjgzOTUwNjE3MjgzOSwwLDAsMC4wNjE3MjgzOTUwNjE3MjgzOSw5Ny4yODM5NTA2MTcyODM5NiwwKSIvPjx1c2UgeGxpbms6aHJlZj0iI2F4IiB0cmFuc2Zvcm09Im1hdHJpeCgwLjA2MTcyODM5NTA2MTcyODM5LDAsMCwwLjA2MTcyODM5NTA2MTcyODM5LDEwOS42Mjk2Mjk2Mjk2Mjk2NSwwKSIvPjx1c2UgeGxpbms6aHJlZj0iI2FqIiB0cmFuc2Zvcm09Im1hdHJpeCgwLjA2MTcyODM5NTA2MTcyODM5LDAsMCwwLjA2MTcyODM5NTA2MTcyODM5LDExNC41MDYxNzI4Mzk1MDYxOSwwKSIvPjx1c2UgeGxpbms6aHJlZj0iI2FrIiB0cmFuc2Zvcm09Im1hdHJpeCgwLjA2MTcyODM5NTA2MTcyODM5LDAsMCwwLjA2MTcyODM5NTA2MTcyODM5LDEyNi44NTE4NTE4NTE4NTE4OCwwKSIvPjwvZz48cGF0aCBpZD0iYUwiIGQ9Ik0xMTgtMTA3djc1SDkydi03NUgxOHYtMjZoNzR2LTc1aDI2djc1aDc0djI2aC03NCIvPjx1c2UgaWQ9ImsiIHhsaW5rOmhyZWY9IiNhTCIgdHJhbnNmb3JtPSJtYXRyaXgoMC4wNjE3MjgzOTUwNjE3MjgzOSwwLDAsMC4wNjE3MjgzOTUwNjE3MjgzOSwwLDApIi8+PHBhdGggaWQ9ImFNIiBkPSJNMjEwLTE2OWMtNjcgMy0zOCAxMDUtNDQgMTY5aC0zMXYtMTIxYzAtMjktNS01MC0zNS00OEMzNC0xNjUgNjItNjUgNTYgMEgyNWwtMS0xOTBoMzBjMSAxMC0xIDI0IDIgMzIgMTAtNDQgOTktNTAgMTA3IDAgMTEtMjEgMjctMzUgNTgtMzYgODUtMiA0NyAxMTkgNTUgMTk0aC0zMXYtMTIxYzAtMjktNS00OS0zNS00OCIvPjxwYXRoIGlkPSJhTiIgZD0iTTg3IDc1QzQ5IDMzIDIyLTE3IDIyLTk0YzAtNzYgMjgtMTI2IDY1LTE2N2gzMWMtMzggNDEtNjQgOTItNjQgMTY4UzgwIDM0IDExOCA3NUg4NyIvPjxwYXRoIGlkPSJhTyIgZD0iTTE3Ny0xOTBDMTY3LTY1IDIxOCAxMDMgNjcgNzFjLTIzLTYtMzgtMjAtNDQtNDNsMzItNWMxNSA0NyAxMDAgMzIgODktMjh2LTMwQzEzMy0xNCAxMTUgMSA4MyAxIDI5IDEgMTUtNDAgMTUtOTVjMC01NiAxNi05NyA3MS05OCAyOS0xIDQ4IDE2IDU5IDM1IDEtMTAgMC0yMyAyLTMyaDMwek05NC0yMmMzNiAwIDUwLTMyIDUwLTczIDAtNDItMTQtNzUtNTAtNzUtMzkgMC00NiAzNC00NiA3NXM2IDczIDQ2IDczIi8+PHBhdGggaWQ9ImFQIiBkPSJNMzMtMjYxYzM4IDQxIDY1IDkyIDY1IDE2OFM3MSAzNCAzMyA3NUgyQzM5IDM0IDY2LTE3IDY2LTkzUzM5LTIyMCAyLTI2MWgzMSIvPjxnIGlkPSJsIj48dXNlIHhsaW5rOmhyZWY9IiNhTSIgdHJhbnNmb3JtPSJtYXRyaXgoMC4wNjE3MjgzOTUwNjE3MjgzOSwwLDAsMC4wNjE3MjgzOTUwNjE3MjgzOSwwLDApIi8+PHVzZSB4bGluazpocmVmPSIjYUIiIHRyYW5zZm9ybT0ibWF0cml4KDAuMDYxNzI4Mzk1MDYxNzI4MzksMCwwLDAuMDYxNzI4Mzk1MDYxNzI4MzksMTguNDU2NzkwMTIzNDU2Nzg4LDApIi8+PHVzZSB4bGluazpocmVmPSIjYXMiIHRyYW5zZm9ybT0ibWF0cml4KDAuMDYxNzI4Mzk1MDYxNzI4MzksMCwwLDAuMDYxNzI4Mzk1MDYxNzI4MzksMzAuODAyNDY5MTM1ODAyNDcsMCkiLz48dXNlIHhsaW5rOmhyZWY9IiNhdCIgdHJhbnNmb3JtPSJtYXRyaXgoMC4wNjE3MjgzOTUwNjE3MjgzOSwwLDAsMC4wNjE3MjgzOTUwNjE3MjgzOSwzNS42NzkwMTIzNDU2NzkwMSwwKSIvPjx1c2UgeGxpbms6aHJlZj0iI2FOIiB0cmFuc2Zvcm09Im1hdHJpeCgwLjA2MTcyODM5NTA2MTcyODM5LDAsMCwwLjA2MTcyODM5NTA2MTcyODM5LDQ4LjAyNDY5MTM1ODAyNDY5LDApIi8+PHVzZSB4bGluazpocmVmPSIjYWkiIHRyYW5zZm9ybT0ibWF0cml4KDAuMDYxNzI4Mzk1MDYxNzI4MzksMCwwLDAuMDYxNzI4Mzk1MDYxNzI4MzksNTUuMzcwMzcwMzcwMzcwMzcsMCkiLz48dXNlIHhsaW5rOmhyZWY9IiNhdSIgdHJhbnNmb3JtPSJtYXRyaXgoMC4wNjE3MjgzOTUwNjE3MjgzOSwwLDAsMC4wNjE3MjgzOTUwNjE3MjgzOSw3MC4xODUxODUxODUxODUxOCwwKSIvPjx1c2UgeGxpbms6aHJlZj0iI2FrIiB0cmFuc2Zvcm09Im1hdHJpeCgwLjA2MTcyODM5NTA2MTcyODM5LDAsMCwwLjA2MTcyODM5NTA2MTcyODM5LDc2LjM1ODAyNDY5MTM1ODAxLDApIi8+PHVzZSB4bGluazpocmVmPSIjYXMiIHRyYW5zZm9ybT0ibWF0cml4KDAuMDYxNzI4Mzk1MDYxNzI4MzksMCwwLDAuMDYxNzI4Mzk1MDYxNzI4MzksODMuNzAzNzAzNzAzNzAzNywwKSIvPjx1c2UgeGxpbms6aHJlZj0iI2F0IiB0cmFuc2Zvcm09Im1hdHJpeCgwLjA2MTcyODM5NTA2MTcyODM5LDAsMCwwLjA2MTcyODM5NTA2MTcyODM5LDg4LjU4MDI0NjkxMzU4MDI0LDApIi8+PHVzZSB4bGluazpocmVmPSIjYU8iIHRyYW5zZm9ybT0ibWF0cml4KDAuMDYxNzI4Mzk1MDYxNzI4MzksMCwwLDAuMDYxNzI4Mzk1MDYxNzI4MzksMTAwLjkyNTkyNTkyNTkyNTkyLDApIi8+PHVzZSB4bGluazpocmVmPSIjYUYiIHRyYW5zZm9ybT0ibWF0cml4KDAuMDYxNzI4Mzk1MDYxNzI4MzksMCwwLDAuMDYxNzI4Mzk1MDYxNzI4MzksMTEzLjI3MTYwNDkzODI3MTYxLDApIi8+PHVzZSB4bGluazpocmVmPSIjYUciIHRyYW5zZm9ybT0ibWF0cml4KDAuMDYxNzI4Mzk1MDYxNzI4MzksMCwwLDAuMDYxNzI4Mzk1MDYxNzI4MzksMTE5LjQ0NDQ0NDQ0NDQ0NDQ0LDApIi8+PHVzZSB4bGluazpocmVmPSIjYVAiIHRyYW5zZm9ybT0ibWF0cml4KDAuMDYxNzI4Mzk1MDYxNzI4MzksMCwwLDAuMDYxNzI4Mzk1MDYxNzI4MzksMTI1LjYxNzI4Mzk1MDYxNzI4LDApIi8+PHVzZSB4bGluazpocmVmPSIjYXIiIHRyYW5zZm9ybT0ibWF0cml4KDAuMDYxNzI4Mzk1MDYxNzI4MzksMCwwLDAuMDYxNzI4Mzk1MDYxNzI4MzksMTMyLjk2Mjk2Mjk2Mjk2Mjk2LDApIi8+PC9nPjxnIGlkPSJtIj48dXNlIHhsaW5rOmhyZWY9IiNhbCIgdHJhbnNmb3JtPSJtYXRyaXgoMC4wNjE3MjgzOTUwNjE3MjgzOSwwLDAsMC4wNjE3MjgzOTUwNjE3MjgzOSwwLDApIi8+PHVzZSB4bGluazpocmVmPSIjYXkiIHRyYW5zZm9ybT0ibWF0cml4KDAuMDYxNzI4Mzk1MDYxNzI4MzksMCwwLDAuMDYxNzI4Mzk1MDYxNzI4MzksMTEuMTExMTExMTExMTExMTEsMCkiLz48dXNlIHhsaW5rOmhyZWY9IiNhcyIgdHJhbnNmb3JtPSJtYXRyaXgoMC4wNjE3MjgzOTUwNjE3MjgzOSwwLDAsMC4wNjE3MjgzOTUwNjE3MjgzOSwyMy40NTY3OTAxMjM0NTY3OSwwKSIvPjx1c2UgeGxpbms6aHJlZj0iI2FLIiB0cmFuc2Zvcm09Im1hdHJpeCgwLjA2MTcyODM5NTA2MTcyODM5LDAsMCwwLjA2MTcyODM5NTA2MTcyODM5LDI4LjMzMzMzMzMzMzMzMzMzNiwwKSIvPjwvZz48ZyBpZD0ibiI+PHVzZSB4bGluazpocmVmPSIjYUkiIHRyYW5zZm9ybT0ibWF0cml4KDAuMDYxNzI4Mzk1MDYxNzI4MzksMCwwLDAuMDYxNzI4Mzk1MDYxNzI4MzksMCwwKSIvPjx1c2UgeGxpbms6aHJlZj0iI2F4IiB0cmFuc2Zvcm09Im1hdHJpeCgwLjA2MTcyODM5NTA2MTcyODM5LDAsMCwwLjA2MTcyODM5NTA2MTcyODM5LDE1Ljk4NzY1NDMyMDk4NzY1MywwKSIvPjx1c2UgeGxpbms6aHJlZj0iI2FzIiB0cmFuc2Zvcm09Im1hdHJpeCgwLjA2MTcyODM5NTA2MTcyODM5LDAsMCwwLjA2MTcyODM5NTA2MTcyODM5LDIwLjg2NDE5NzUzMDg2NDE5NiwwKSIvPjx1c2UgeGxpbms6aHJlZj0iI2FqIiB0cmFuc2Zvcm09Im1hdHJpeCgwLjA2MTcyODM5NTA2MTcyODM5LDAsMCwwLjA2MTcyODM5NTA2MTcyODM5LDI1Ljc0MDc0MDc0MDc0MDc0LDApIi8+PHVzZSB4bGluazpocmVmPSIjYXQiIHRyYW5zZm9ybT0ibWF0cml4KDAuMDYxNzI4Mzk1MDYxNzI4MzksMCwwLDAuMDYxNzI4Mzk1MDYxNzI4MzksMzguMDg2NDE5NzUzMDg2NDIsMCkiLz48dXNlIHhsaW5rOmhyZWY9IiNhdSIgdHJhbnNmb3JtPSJtYXRyaXgoMC4wNjE3MjgzOTUwNjE3MjgzOSwwLDAsMC4wNjE3MjgzOTUwNjE3MjgzOSw1MC40MzIwOTg3NjU0MzIwOTQsMCkiLz48dXNlIHhsaW5rOmhyZWY9IiNhSiIgdHJhbnNmb3JtPSJtYXRyaXgoMC4wNjE3MjgzOTUwNjE3MjgzOSwwLDAsMC4wNjE3MjgzOTUwNjE3MjgzOSw1Ni42MDQ5MzgyNzE2MDQ5NCwwKSIvPjx1c2UgeGxpbms6aHJlZj0iI2FCIiB0cmFuc2Zvcm09Im1hdHJpeCgwLjA2MTcyODM5NTA2MTcyODM5LDAsMCwwLjA2MTcyODM5NTA2MTcyODM5LDcyLjU5MjU5MjU5MjU5MjYsMCkiLz48dXNlIHhsaW5rOmhyZWY9IiNhdCIgdHJhbnNmb3JtPSJtYXRyaXgoMC4wNjE3MjgzOTUwNjE3MjgzOSwwLDAsMC4wNjE3MjgzOTUwNjE3MjgzOSw4NC45MzgyNzE2MDQ5MzgyOCwwKSIvPjx1c2UgeGxpbms6aHJlZj0iI2FLIiB0cmFuc2Zvcm09Im1hdHJpeCgwLjA2MTcyODM5NTA2MTcyODM5LDAsMCwwLjA2MTcyODM5NTA2MTcyODM5LDk3LjI4Mzk1MDYxNzI4Mzk2LDApIi8+PHVzZSB4bGluazpocmVmPSIjYXgiIHRyYW5zZm9ybT0ibWF0cml4KDAuMDYxNzI4Mzk1MDYxNzI4MzksMCwwLDAuMDYxNzI4Mzk1MDYxNzI4MzksMTA5LjYyOTYyOTYyOTYyOTY1LDApIi8+PHVzZSB4bGluazpocmVmPSIjYWoiIHRyYW5zZm9ybT0ibWF0cml4KDAuMDYxNzI4Mzk1MDYxNzI4MzksMCwwLDAuMDYxNzI4Mzk1MDYxNzI4MzksMTE0LjUwNjE3MjgzOTUwNjE5LDApIi8+PHVzZSB4bGluazpocmVmPSIjYWsiIHRyYW5zZm9ybT0ibWF0cml4KDAuMDYxNzI4Mzk1MDYxNzI4MzksMCwwLDAuMDYxNzI4Mzk1MDYxNzI4MzksMTI2Ljg1MTg1MTg1MTg1MTg4LDApIi8+PC9nPjxwYXRoIGlkPSJhUSIgZD0iTTk2LTE2OWMtNDAgMC00OCAzMy00OCA3M3M5IDc1IDQ4IDc1YzI0IDAgNDEtMTQgNDMtMzhsMzIgMmMtNiAzNy0zMSA2MS03NCA2MS01OSAwLTc2LTQxLTgyLTk5LTEwLTkzIDEwMS0xMzEgMTQ3LTY0IDQgNyA1IDE0IDcgMjJsLTMyIDNjLTQtMjEtMTYtMzUtNDEtMzUiLz48ZyBpZD0ibyI+PHVzZSB4bGluazpocmVmPSIjYXoiIHRyYW5zZm9ybT0ibWF0cml4KDAuMDYxNzI4Mzk1MDYxNzI4MzksMCwwLDAuMDYxNzI4Mzk1MDYxNzI4MzksMCwwKSIvPjx1c2UgeGxpbms6aHJlZj0iI2F5IiB0cmFuc2Zvcm09Im1hdHJpeCgwLjA2MTcyODM5NTA2MTcyODM5LDAsMCwwLjA2MTcyODM5NTA2MTcyODM5LDExLjExMTExMTExMTExMTExLDApIi8+PHVzZSB4bGluazpocmVmPSIjYVEiIHRyYW5zZm9ybT0ibWF0cml4KDAuMDYxNzI4Mzk1MDYxNzI4MzksMCwwLDAuMDYxNzI4Mzk1MDYxNzI4MzksMjMuNDU2NzkwMTIzNDU2NzksMCkiLz48dXNlIHhsaW5rOmhyZWY9IiNhRCIgdHJhbnNmb3JtPSJtYXRyaXgoMC4wNjE3MjgzOTUwNjE3MjgzOSwwLDAsMC4wNjE3MjgzOTUwNjE3MjgzOSwzNC41Njc5MDEyMzQ1Njc5LDApIi8+PHVzZSB4bGluazpocmVmPSIjYWoiIHRyYW5zZm9ybT0ibWF0cml4KDAuMDYxNzI4Mzk1MDYxNzI4MzksMCwwLDAuMDYxNzI4Mzk1MDYxNzI4MzksNDUuNjc5MDEyMzQ1Njc5MDEsMCkiLz48dXNlIHhsaW5rOmhyZWY9IiNhdSIgdHJhbnNmb3JtPSJtYXRyaXgoMC4wNjE3MjgzOTUwNjE3MjgzOSwwLDAsMC4wNjE3MjgzOTUwNjE3MjgzOSw1OC4wMjQ2OTEzNTgwMjQ2OSwwKSIvPjx1c2UgeGxpbms6aHJlZj0iI2FyIiB0cmFuc2Zvcm09Im1hdHJpeCgwLjA2MTcyODM5NTA2MTcyODM5LDAsMCwwLjA2MTcyODM5NTA2MTcyODM5LDY0LjE5NzUzMDg2NDE5NzUzLDApIi8+PC9nPjxnIGlkPSJwIj48dXNlIHhsaW5rOmhyZWY9IiNhaSIgdHJhbnNmb3JtPSJtYXRyaXgoMC4wNjE3MjgzOTUwNjE3MjgzOSwwLDAsMC4wNjE3MjgzOTUwNjE3MjgzOSwwLDApIi8+PHVzZSB4bGluazpocmVmPSIjYXkiIHRyYW5zZm9ybT0ibWF0cml4KDAuMDYxNzI4Mzk1MDYxNzI4MzksMCwwLDAuMDYxNzI4Mzk1MDYxNzI4MzksMTQuODE0ODE0ODE0ODE0ODEzLDApIi8+PHVzZSB4bGluazpocmVmPSIjYVEiIHRyYW5zZm9ybT0ibWF0cml4KDAuMDYxNzI4Mzk1MDYxNzI4MzksMCwwLDAuMDYxNzI4Mzk1MDYxNzI4MzksMjcuMTYwNDkzODI3MTYwNDk0LDApIi8+PHVzZSB4bGluazpocmVmPSIjYUQiIHRyYW5zZm9ybT0ibWF0cml4KDAuMDYxNzI4Mzk1MDYxNzI4MzksMCwwLDAuMDYxNzI4Mzk1MDYxNzI4MzksMzguMjcxNjA0OTM4MjcxNjEsMCkiLz48dXNlIHhsaW5rOmhyZWY9IiNhaiIgdHJhbnNmb3JtPSJtYXRyaXgoMC4wNjE3MjgzOTUwNjE3MjgzOSwwLDAsMC4wNjE3MjgzOTUwNjE3MjgzOSw0OS4zODI3MTYwNDkzODI3MiwwKSIvPjx1c2UgeGxpbms6aHJlZj0iI2F1IiB0cmFuc2Zvcm09Im1hdHJpeCgwLjA2MTcyODM5NTA2MTcyODM5LDAsMCwwLjA2MTcyODM5NTA2MTcyODM5LDYxLjcyODM5NTA2MTcyODQsMCkiLz48L2c+PHBhdGggaWQ9ImFSIiBkPSJNODQgNEMtNSA4IDMwLTExMiAyMy0xOTBoMzJ2MTIwYzAgMzEgNyA1MCAzOSA0OSA3Mi0yIDQ1LTEwMSA1MC0xNjloMzFsMSAxOTBoLTMwYy0xLTEwIDEtMjUtMi0zMy0xMSAyMi0yOCAzNi02MCAzNyIvPjxnIGlkPSJxIj48dXNlIHhsaW5rOmhyZWY9IiNhayIgdHJhbnNmb3JtPSJtYXRyaXgoMC4wNjE3MjgzOTUwNjE3MjgzOSwwLDAsMC4wNjE3MjgzOTUwNjE3MjgzOSwwLDApIi8+PHVzZSB4bGluazpocmVmPSIjYVIiIHRyYW5zZm9ybT0ibWF0cml4KDAuMDYxNzI4Mzk1MDYxNzI4MzksMCwwLDAuMDYxNzI4Mzk1MDYxNzI4MzksNy4zNDU2NzkwMTIzNDU2NzksMCkiLz48dXNlIHhsaW5rOmhyZWY9IiNhdCIgdHJhbnNmb3JtPSJtYXRyaXgoMC4wNjE3MjgzOTUwNjE3MjgzOSwwLDAsMC4wNjE3MjgzOTUwNjE3MjgzOSwxOS42OTEzNTgwMjQ2OTEzNTgsMCkiLz48dXNlIHhsaW5rOmhyZWY9IiNhTiIgdHJhbnNmb3JtPSJtYXRyaXgoMC4wNjE3MjgzOTUwNjE3MjgzOSwwLDAsMC4wNjE3MjgzOTUwNjE3MjgzOSwzMi4wMzcwMzcwMzcwMzcwNCwwKSIvPjx1c2UgeGxpbms6aHJlZj0iI2FQIiB0cmFuc2Zvcm09Im1hdHJpeCgwLjA2MTcyODM5NTA2MTcyODM5LDAsMCwwLjA2MTcyODM5NTA2MTcyODM5LDM5LjM4MjcxNjA0OTM4MjcxNSwwKSIvPjx1c2UgeGxpbms6aHJlZj0iI2FyIiB0cmFuc2Zvcm09Im1hdHJpeCgwLjA2MTcyODM5NTA2MTcyODM5LDAsMCwwLjA2MTcyODM5NTA2MTcyODM5LDQ2LjcyODM5NTA2MTcyODM5LDApIi8+PC9nPjxnIGlkPSJyIj48dXNlIHhsaW5rOmhyZWY9IiNhbCIgdHJhbnNmb3JtPSJtYXRyaXgoMC4wNjE3MjgzOTUwNjE3MjgzOSwwLDAsMC4wNjE3MjgzOTUwNjE3MjgzOSwwLDApIi8+PHVzZSB4bGluazpocmVmPSIjYXkiIHRyYW5zZm9ybT0ibWF0cml4KDAuMDYxNzI4Mzk1MDYxNzI4MzksMCwwLDAuMDYxNzI4Mzk1MDYxNzI4MzksMTEuMTExMTExMTExMTExMTEsMCkiLz48dXNlIHhsaW5rOmhyZWY9IiNhcyIgdHJhbnNmb3JtPSJtYXRyaXgoMC4wNjE3MjgzOTUwNjE3MjgzOSwwLDAsMC4wNjE3MjgzOTUwNjE3MjgzOSwyMy40NTY3OTAxMjM0NTY3OSwwKSIvPjx1c2UgeGxpbms6aHJlZj0iI2FLIiB0cmFuc2Zvcm09Im1hdHJpeCgwLjA2MTcyODM5NTA2MTcyODM5LDAsMCwwLjA2MTcyODM5NTA2MTcyODM5LDI4LjMzMzMzMzMzMzMzMzMzNiwwKSIvPjwvZz48ZyBpZD0icyI+PHVzZSB4bGluazpocmVmPSIjYWsiIHRyYW5zZm9ybT0ibWF0cml4KDAuMDYxNzI4Mzk1MDYxNzI4MzksMCwwLDAuMDYxNzI4Mzk1MDYxNzI4MzksMCwwKSIvPjx1c2UgeGxpbms6aHJlZj0iI2FqIiB0cmFuc2Zvcm09Im1hdHJpeCgwLjA2MTcyODM5NTA2MTcyODM5LDAsMCwwLjA2MTcyODM5NTA2MTcyODM5LDcuMzQ1Njc5MDEyMzQ1Njc5LDApIi8+PHVzZSB4bGluazpocmVmPSIjYU8iIHRyYW5zZm9ybT0ibWF0cml4KDAuMDYxNzI4Mzk1MDYxNzI4MzksMCwwLDAuMDYxNzI4Mzk1MDYxNzI4MzksMTkuNjkxMzU4MDI0NjkxMzU4LDApIi8+PHVzZSB4bGluazpocmVmPSIjYXMiIHRyYW5zZm9ybT0ibWF0cml4KDAuMDYxNzI4Mzk1MDYxNzI4MzksMCwwLDAuMDYxNzI4Mzk1MDYxNzI4MzksMzIuMDM3MDM3MDM3MDM3MDQsMCkiLz48dXNlIHhsaW5rOmhyZWY9IiNheiIgdHJhbnNmb3JtPSJtYXRyaXgoMC4wNjE3MjgzOTUwNjE3MjgzOSwwLDAsMC4wNjE3MjgzOTUwNjE3MjgzOSwzNi45MTM1ODAyNDY5MTM1OCwwKSIvPjx1c2UgeGxpbms6aHJlZj0iI2F1IiB0cmFuc2Zvcm09Im1hdHJpeCgwLjA2MTcyODM5NTA2MTcyODM5LDAsMCwwLjA2MTcyODM5NTA2MTcyODM5LDQ4LjAyNDY5MTM1ODAyNDcsMCkiLz48dXNlIHhsaW5rOmhyZWY9IiNhaiIgdHJhbnNmb3JtPSJtYXRyaXgoMC4wNjE3MjgzOTUwNjE3MjgzOSwwLDAsMC4wNjE3MjgzOTUwNjE3MjgzOSw1NC4xOTc1MzA4NjQxOTc1NCwwKSIvPjx1c2UgeGxpbms6aHJlZj0iI2FrIiB0cmFuc2Zvcm09Im1hdHJpeCgwLjA2MTcyODM5NTA2MTcyODM5LDAsMCwwLjA2MTcyODM5NTA2MTcyODM5LDY2LjU0MzIwOTg3NjU0MzIyLDApIi8+PHVzZSB4bGluazpocmVmPSIjYW4iIHRyYW5zZm9ybT0ibWF0cml4KDAuMDYxNzI4Mzk1MDYxNzI4MzksMCwwLDAuMDYxNzI4Mzk1MDYxNzI4MzksNzMuODg4ODg4ODg4ODg4OSwwKSIvPjx1c2UgeGxpbms6aHJlZj0iI2F3IiB0cmFuc2Zvcm09Im1hdHJpeCgwLjA2MTcyODM5NTA2MTcyODM5LDAsMCwwLjA2MTcyODM5NTA2MTcyODM5LDg4LjcwMzcwMzcwMzcwMzcxLDApIi8+PHVzZSB4bGluazpocmVmPSIjYXMiIHRyYW5zZm9ybT0ibWF0cml4KDAuMDYxNzI4Mzk1MDYxNzI4MzksMCwwLDAuMDYxNzI4Mzk1MDYxNzI4MzksMTAxLjA0OTM4MjcxNjA0OTQsMCkiLz48dXNlIHhsaW5rOmhyZWY9IiNheCIgdHJhbnNmb3JtPSJtYXRyaXgoMC4wNjE3MjgzOTUwNjE3MjgzOSwwLDAsMC4wNjE3MjgzOTUwNjE3MjgzOSwxMDUuOTI1OTI1OTI1OTI1OTQsMCkiLz48dXNlIHhsaW5rOmhyZWY9IiNheSIgdHJhbnNmb3JtPSJtYXRyaXgoMC4wNjE3MjgzOTUwNjE3MjgzOSwwLDAsMC4wNjE3MjgzOTUwNjE3MjgzOSwxMTAuODAyNDY5MTM1ODAyNDgsMCkiLz48dXNlIHhsaW5rOmhyZWY9IiNheiIgdHJhbnNmb3JtPSJtYXRyaXgoMC4wNjE3MjgzOTUwNjE3MjgzOSwwLDAsMC4wNjE3MjgzOTUwNjE3MjgzOSwxMjMuMTQ4MTQ4MTQ4MTQ4MTcsMCkiLz48dXNlIHhsaW5rOmhyZWY9IiNheSIgdHJhbnNmb3JtPSJtYXRyaXgoMC4wNjE3MjgzOTUwNjE3MjgzOSwwLDAsMC4wNjE3MjgzOTUwNjE3MjgzOSwxMzQuMjU5MjU5MjU5MjU5MjcsMCkiLz48dXNlIHhsaW5rOmhyZWY9IiNhdiIgdHJhbnNmb3JtPSJtYXRyaXgoMC4wNjE3MjgzOTUwNjE3MjgzOSwwLDAsMC4wNjE3MjgzOTUwNjE3MjgzOSwxNDYuNjA0OTM4MjcxNjA0OTQsMCkiLz48dXNlIHhsaW5rOmhyZWY9IiNhdyIgdHJhbnNmb3JtPSJtYXRyaXgoMC4wNjE3MjgzOTUwNjE3MjgzOSwwLDAsMC4wNjE3MjgzOTUwNjE3MjgzOSwxNTguOTUwNjE3MjgzOTUwNiwwKSIvPjx1c2UgeGxpbms6aHJlZj0iI2FqIiB0cmFuc2Zvcm09Im1hdHJpeCgwLjA2MTcyODM5NTA2MTcyODM5LDAsMCwwLjA2MTcyODM5NTA2MTcyODM5LDE3MS4yOTYyOTYyOTYyOTYyOCwwKSIvPjx1c2UgeGxpbms6aHJlZj0iI2FrIiB0cmFuc2Zvcm09Im1hdHJpeCgwLjA2MTcyODM5NTA2MTcyODM5LDAsMCwwLjA2MTcyODM5NTA2MTcyODM5LDE4My42NDE5NzUzMDg2NDE5NSwwKSIvPjx1c2UgeGxpbms6aHJlZj0iI2FOIiB0cmFuc2Zvcm09Im1hdHJpeCgwLjA2MTcyODM5NTA2MTcyODM5LDAsMCwwLjA2MTcyODM5NTA2MTcyODM5LDE5MC45ODc2NTQzMjA5ODc2MiwwKSIvPjx1c2UgeGxpbms6aHJlZj0iI2FpIiB0cmFuc2Zvcm09Im1hdHJpeCgwLjA2MTcyODM5NTA2MTcyODM5LDAsMCwwLjA2MTcyODM5NTA2MTcyODM5LDE5OC4zMzMzMzMzMzMzMzMzLDApIi8+PHVzZSB4bGluazpocmVmPSIjYXUiIHRyYW5zZm9ybT0ibWF0cml4KDAuMDYxNzI4Mzk1MDYxNzI4MzksMCwwLDAuMDYxNzI4Mzk1MDYxNzI4MzksMjEzLjE0ODE0ODE0ODE0ODEsMCkiLz48dXNlIHhsaW5rOmhyZWY9IiNhayIgdHJhbnNmb3JtPSJtYXRyaXgoMC4wNjE3MjgzOTUwNjE3MjgzOSwwLDAsMC4wNjE3MjgzOTUwNjE3MjgzOSwyMTkuMzIwOTg3NjU0MzIwOTMsMCkiLz48dXNlIHhsaW5rOmhyZWY9IiNhcyIgdHJhbnNmb3JtPSJtYXRyaXgoMC4wNjE3MjgzOTUwNjE3MjgzOSwwLDAsMC4wNjE3MjgzOTUwNjE3MjgzOSwyMjYuNjY2NjY2NjY2NjY2NiwwKSIvPjx1c2UgeGxpbms6aHJlZj0iI2F0IiB0cmFuc2Zvcm09Im1hdHJpeCgwLjA2MTcyODM5NTA2MTcyODM5LDAsMCwwLjA2MTcyODM5NTA2MTcyODM5LDIzMS41NDMyMDk4NzY1NDMxMywwKSIvPjx1c2UgeGxpbms6aHJlZj0iI2FPIiB0cmFuc2Zvcm09Im1hdHJpeCgwLjA2MTcyODM5NTA2MTcyODM5LDAsMCwwLjA2MTcyODM5NTA2MTcyODM5LDI0My44ODg4ODg4ODg4ODg4LDApIi8+PHVzZSB4bGluazpocmVmPSIjYVAiIHRyYW5zZm9ybT0ibWF0cml4KDAuMDYxNzI4Mzk1MDYxNzI4MzksMCwwLDAuMDYxNzI4Mzk1MDYxNzI4MzksMjU2LjIzNDU2NzkwMTIzNDQ3LDApIi8+PHVzZSB4bGluazpocmVmPSIjYXIiIHRyYW5zZm9ybT0ibWF0cml4KDAuMDYxNzI4Mzk1MDYxNzI4MzksMCwwLDAuMDYxNzI4Mzk1MDYxNzI4MzksMjYzLjU4MDI0NjkxMzU4MDE0LDApIi8+PC9nPjxwYXRoIGlkPSJhUyIgZD0iTTE0NS0zMUMxMzQtOSAxMTYgNCA4NSA0IDMyIDQgMTYtMzUgMTUtOTRjMC01OSAxNy05OSA3MC0xMDAgMzItMSA0OCAxNCA2MCAzMyAwLTExLTEtMjQgMi0zMmgzMGwtMSAyNjhoLTMyek05My0yMWM0MSAwIDUxLTMzIDUxLTc2cy04LTczLTUwLTczYy00MCAwLTQ2IDM1LTQ2IDc1czUgNzQgNDUgNzQiLz48ZyBpZD0idCI+PHVzZSB4bGluazpocmVmPSIjYWsiIHRyYW5zZm9ybT0ibWF0cml4KDAuMDYxNzI4Mzk1MDYxNzI4MzksMCwwLDAuMDYxNzI4Mzk1MDYxNzI4MzksMCwwKSIvPjx1c2UgeGxpbms6aHJlZj0iI2FqIiB0cmFuc2Zvcm09Im1hdHJpeCgwLjA2MTcyODM5NTA2MTcyODM5LDAsMCwwLjA2MTcyODM5NTA2MTcyODM5LDcuMzQ1Njc5MDEyMzQ1Njc5LDApIi8+PHVzZSB4bGluazpocmVmPSIjYVMiIHRyYW5zZm9ybT0ibWF0cml4KDAuMDYxNzI4Mzk1MDYxNzI4MzksMCwwLDAuMDYxNzI4Mzk1MDYxNzI4MzksMTkuNjkxMzU4MDI0NjkxMzU4LDApIi8+PHVzZSB4bGluazpocmVmPSIjYVIiIHRyYW5zZm9ybT0ibWF0cml4KDAuMDYxNzI4Mzk1MDYxNzI4MzksMCwwLDAuMDYxNzI4Mzk1MDYxNzI4MzksMzIuMDM3MDM3MDM3MDM3MDQsMCkiLz48dXNlIHhsaW5rOmhyZWY9IiNhaiIgdHJhbnNmb3JtPSJtYXRyaXgoMC4wNjE3MjgzOTUwNjE3MjgzOSwwLDAsMC4wNjE3MjgzOTUwNjE3MjgzOSw0NC4zODI3MTYwNDkzODI3MTUsMCkiLz48dXNlIHhsaW5rOmhyZWY9IiNheiIgdHJhbnNmb3JtPSJtYXRyaXgoMC4wNjE3MjgzOTUwNjE3MjgzOSwwLDAsMC4wNjE3MjgzOTUwNjE3MjgzOSw1Ni43MjgzOTUwNjE3MjgzOSwwKSIvPjx1c2UgeGxpbms6aHJlZj0iI2F1IiB0cmFuc2Zvcm09Im1hdHJpeCgwLjA2MTcyODM5NTA2MTcyODM5LDAsMCwwLjA2MTcyODM5NTA2MTcyODM5LDY3LjgzOTUwNjE3MjgzOTUsMCkiLz48dXNlIHhsaW5rOmhyZWY9IiNhRSIgdHJhbnNmb3JtPSJtYXRyaXgoMC4wNjE3MjgzOTUwNjE3MjgzOSwwLDAsMC4wNjE3MjgzOTUwNjE3MjgzOSw3NC4wMTIzNDU2NzkwMTIzNCwwKSIvPjx1c2UgeGxpbms6aHJlZj0iI2F5IiB0cmFuc2Zvcm09Im1hdHJpeCgwLjA2MTcyODM5NTA2MTcyODM5LDAsMCwwLjA2MTcyODM5NTA2MTcyODM5LDg3LjUzMDg2NDE5NzUzMDg2LDApIi8+PHVzZSB4bGluazpocmVmPSIjYWsiIHRyYW5zZm9ybT0ibWF0cml4KDAuMDYxNzI4Mzk1MDYxNzI4MzksMCwwLDAuMDYxNzI4Mzk1MDYxNzI4MzksOTkuODc2NTQzMjA5ODc2NTQsMCkiLz48dXNlIHhsaW5rOmhyZWY9IiNhRCIgdHJhbnNmb3JtPSJtYXRyaXgoMC4wNjE3MjgzOTUwNjE3MjgzOSwwLDAsMC4wNjE3MjgzOTUwNjE3MjgzOSwxMDcuMjIyMjIyMjIyMjIyMjMsMCkiLz48dXNlIHhsaW5rOmhyZWY9IiNhTiIgdHJhbnNmb3JtPSJtYXRyaXgoMC4wNjE3MjgzOTUwNjE3MjgzOSwwLDAsMC4wNjE3MjgzOTUwNjE3MjgzOSwxMTguMzMzMzMzMzMzMzMzMzQsMCkiLz48dXNlIHhsaW5rOmhyZWY9IiNhaSIgdHJhbnNmb3JtPSJtYXRyaXgoMC4wNjE3MjgzOTUwNjE3MjgzOSwwLDAsMC4wNjE3MjgzOTUwNjE3MjgzOSwxMjUuNjc5MDEyMzQ1Njc5MDMsMCkiLz48dXNlIHhsaW5rOmhyZWY9IiNhdSIgdHJhbnNmb3JtPSJtYXRyaXgoMC4wNjE3MjgzOTUwNjE3MjgzOSwwLDAsMC4wNjE3MjgzOTUwNjE3MjgzOSwxNDAuNDkzODI3MTYwNDkzODUsMCkiLz48dXNlIHhsaW5rOmhyZWY9IiNhayIgdHJhbnNmb3JtPSJtYXRyaXgoMC4wNjE3MjgzOTUwNjE3MjgzOSwwLDAsMC4wNjE3MjgzOTUwNjE3MjgzOSwxNDYuNjY2NjY2NjY2NjY2NjksMCkiLz48dXNlIHhsaW5rOmhyZWY9IiNhcyIgdHJhbnNmb3JtPSJtYXRyaXgoMC4wNjE3MjgzOTUwNjE3MjgzOSwwLDAsMC4wNjE3MjgzOTUwNjE3MjgzOSwxNTQuMDEyMzQ1Njc5MDEyMzYsMCkiLz48dXNlIHhsaW5rOmhyZWY9IiNhdCIgdHJhbnNmb3JtPSJtYXRyaXgoMC4wNjE3MjgzOTUwNjE3MjgzOSwwLDAsMC4wNjE3MjgzOTUwNjE3MjgzOSwxNTguODg4ODg4ODg4ODg4ODksMCkiLz48dXNlIHhsaW5rOmhyZWY9IiNhTyIgdHJhbnNmb3JtPSJtYXRyaXgoMC4wNjE3MjgzOTUwNjE3MjgzOSwwLDAsMC4wNjE3MjgzOTUwNjE3MjgzOSwxNzEuMjM0NTY3OTAxMjM0NTYsMCkiLz48dXNlIHhsaW5rOmhyZWY9IiNhUCIgdHJhbnNmb3JtPSJtYXRyaXgoMC4wNjE3MjgzOTUwNjE3MjgzOSwwLDAsMC4wNjE3MjgzOTUwNjE3MjgzOSwxODMuNTgwMjQ2OTEzNTgwMjMsMCkiLz48dXNlIHhsaW5rOmhyZWY9IiNhciIgdHJhbnNmb3JtPSJtYXRyaXgoMC4wNjE3MjgzOTUwNjE3MjgzOSwwLDAsMC4wNjE3MjgzOTUwNjE3MjgzOSwxOTAuOTI1OTI1OTI1OTI1OSwwKSIvPjwvZz48ZyBpZD0idSI+PHVzZSB4bGluazpocmVmPSIjYWkiIHRyYW5zZm9ybT0ibWF0cml4KDAuMDYxNzI4Mzk1MDYxNzI4MzksMCwwLDAuMDYxNzI4Mzk1MDYxNzI4MzksMCwwKSIvPjx1c2UgeGxpbms6aHJlZj0iI2F1IiB0cmFuc2Zvcm09Im1hdHJpeCgwLjA2MTcyODM5NTA2MTcyODM5LDAsMCwwLjA2MTcyODM5NTA2MTcyODM5LDE0LjgxNDgxNDgxNDgxNDgxMywwKSIvPjx1c2UgeGxpbms6aHJlZj0iI2FrIiB0cmFuc2Zvcm09Im1hdHJpeCgwLjA2MTcyODM5NTA2MTcyODM5LDAsMCwwLjA2MTcyODM5NTA2MTcyODM5LDIwLjk4NzY1NDMyMDk4NzY1LDApIi8+PHVzZSB4bGluazpocmVmPSIjYXMiIHRyYW5zZm9ybT0ibWF0cml4KDAuMDYxNzI4Mzk1MDYxNzI4MzksMCwwLDAuMDYxNzI4Mzk1MDYxNzI4MzksMjguMzMzMzMzMzMzMzMzMzMsMCkiLz48dXNlIHhsaW5rOmhyZWY9IiNhdCIgdHJhbnNmb3JtPSJtYXRyaXgoMC4wNjE3MjgzOTUwNjE3MjgzOSwwLDAsMC4wNjE3MjgzOTUwNjE3MjgzOSwzMy4yMDk4NzY1NDMyMDk4NywwKSIvPjx1c2UgeGxpbms6aHJlZj0iI2FPIiB0cmFuc2Zvcm09Im1hdHJpeCgwLjA2MTcyODM5NTA2MTcyODM5LDAsMCwwLjA2MTcyODM5NTA2MTcyODM5LDQ1LjU1NTU1NTU1NTU1NTU1LDApIi8+PC9nPjxnIGlkPSJ2Ij48dXNlIHhsaW5rOmhyZWY9IiNhayIgdHJhbnNmb3JtPSJtYXRyaXgoMC4wNjE3MjgzOTUwNjE3MjgzOSwwLDAsMC4wNjE3MjgzOTUwNjE3MjgzOSwwLDApIi8+PHVzZSB4bGluazpocmVmPSIjYWoiIHRyYW5zZm9ybT0ibWF0cml4KDAuMDYxNzI4Mzk1MDYxNzI4MzksMCwwLDAuMDYxNzI4Mzk1MDYxNzI4MzksNy4zNDU2NzkwMTIzNDU2NzksMCkiLz48dXNlIHhsaW5rOmhyZWY9IiNheCIgdHJhbnNmb3JtPSJtYXRyaXgoMC4wNjE3MjgzOTUwNjE3MjgzOSwwLDAsMC4wNjE3MjgzOTUwNjE3MjgzOSwxOS42OTEzNTgwMjQ2OTEzNTgsMCkiLz48dXNlIHhsaW5rOmhyZWY9IiNhaiIgdHJhbnNmb3JtPSJtYXRyaXgoMC4wNjE3MjgzOTUwNjE3MjgzOSwwLDAsMC4wNjE3MjgzOTUwNjE3MjgzOSwyNC41Njc5MDEyMzQ1Njc5LDApIi8+PHVzZSB4bGluazpocmVmPSIjYUIiIHRyYW5zZm9ybT0ibWF0cml4KDAuMDYxNzI4Mzk1MDYxNzI4MzksMCwwLDAuMDYxNzI4Mzk1MDYxNzI4MzksMzYuOTEzNTgwMjQ2OTEzNTc1LDApIi8+PHVzZSB4bGluazpocmVmPSIjYXoiIHRyYW5zZm9ybT0ibWF0cml4KDAuMDYxNzI4Mzk1MDYxNzI4MzksMCwwLDAuMDYxNzI4Mzk1MDYxNzI4MzksNDkuMjU5MjU5MjU5MjU5MjUsMCkiLz48dXNlIHhsaW5rOmhyZWY9IiNhaiIgdHJhbnNmb3JtPSJtYXRyaXgoMC4wNjE3MjgzOTUwNjE3MjgzOSwwLDAsMC4wNjE3MjgzOTUwNjE3MjgzOSw2MC4zNzAzNzAzNzAzNzAzNywwKSIvPjx1c2UgeGxpbms6aHJlZj0iI2FFIiB0cmFuc2Zvcm09Im1hdHJpeCgwLjA2MTcyODM5NTA2MTcyODM5LDAsMCwwLjA2MTcyODM5NTA2MTcyODM5LDcyLjcxNjA0OTM4MjcxNjA1LDApIi8+PHVzZSB4bGluazpocmVmPSIjYXkiIHRyYW5zZm9ybT0ibWF0cml4KDAuMDYxNzI4Mzk1MDYxNzI4MzksMCwwLDAuMDYxNzI4Mzk1MDYxNzI4MzksODYuMjM0NTY3OTAxMjM0NTcsMCkiLz48dXNlIHhsaW5rOmhyZWY9IiNhayIgdHJhbnNmb3JtPSJtYXRyaXgoMC4wNjE3MjgzOTUwNjE3MjgzOSwwLDAsMC4wNjE3MjgzOTUwNjE3MjgzOSw5OC41ODAyNDY5MTM1ODAyNSwwKSIvPjx1c2UgeGxpbms6aHJlZj0iI2FEIiB0cmFuc2Zvcm09Im1hdHJpeCgwLjA2MTcyODM5NTA2MTcyODM5LDAsMCwwLjA2MTcyODM5NTA2MTcyODM5LDEwNS45MjU5MjU5MjU5MjU5NCwwKSIvPjx1c2UgeGxpbms6aHJlZj0iI2FOIiB0cmFuc2Zvcm09Im1hdHJpeCgwLjA2MTcyODM5NTA2MTcyODM5LDAsMCwwLjA2MTcyODM5NTA2MTcyODM5LDExNy4wMzcwMzcwMzcwMzcwNSwwKSIvPjx1c2UgeGxpbms6aHJlZj0iI2FpIiB0cmFuc2Zvcm09Im1hdHJpeCgwLjA2MTcyODM5NTA2MTcyODM5LDAsMCwwLjA2MTcyODM5NTA2MTcyODM5LDEyNC4zODI3MTYwNDkzODI3NCwwKSIvPjx1c2UgeGxpbms6aHJlZj0iI2F1IiB0cmFuc2Zvcm09Im1hdHJpeCgwLjA2MTcyODM5NTA2MTcyODM5LDAsMCwwLjA2MTcyODM5NTA2MTcyODM5LDEzOS4xOTc1MzA4NjQxOTc1NSwwKSIvPjx1c2UgeGxpbms6aHJlZj0iI2FrIiB0cmFuc2Zvcm09Im1hdHJpeCgwLjA2MTcyODM5NTA2MTcyODM5LDAsMCwwLjA2MTcyODM5NTA2MTcyODM5LDE0NS4zNzAzNzAzNzAzNzAzOCwwKSIvPjx1c2UgeGxpbms6aHJlZj0iI2FzIiB0cmFuc2Zvcm09Im1hdHJpeCgwLjA2MTcyODM5NTA2MTcyODM5LDAsMCwwLjA2MTcyODM5NTA2MTcyODM5LDE1Mi43MTYwNDkzODI3MTYwNSwwKSIvPjx1c2UgeGxpbms6aHJlZj0iI2F0IiB0cmFuc2Zvcm09Im1hdHJpeCgwLjA2MTcyODM5NTA2MTcyODM5LDAsMCwwLjA2MTcyODM5NTA2MTcyODM5LDE1Ny41OTI1OTI1OTI1OTI1OCwwKSIvPjx1c2UgeGxpbms6aHJlZj0iI2FPIiB0cmFuc2Zvcm09Im1hdHJpeCgwLjA2MTcyODM5NTA2MTcyODM5LDAsMCwwLjA2MTcyODM5NTA2MTcyODM5LDE2OS45MzgyNzE2MDQ5MzgyNSwwKSIvPjx1c2UgeGxpbms6aHJlZj0iI2FQIiB0cmFuc2Zvcm09Im1hdHJpeCgwLjA2MTcyODM5NTA2MTcyODM5LDAsMCwwLjA2MTcyODM5NTA2MTcyODM5LDE4Mi4yODM5NTA2MTcyODM5MiwwKSIvPjx1c2UgeGxpbms6aHJlZj0iI2FyIiB0cmFuc2Zvcm09Im1hdHJpeCgwLjA2MTcyODM5NTA2MTcyODM5LDAsMCwwLjA2MTcyODM5NTA2MTcyODM5LDE4OS42Mjk2Mjk2Mjk2Mjk2LDApIi8+PC9nPjxnIGlkPSJ3Ij48dXNlIHhsaW5rOmhyZWY9IiNheCIgdHJhbnNmb3JtPSJtYXRyaXgoMC4wNjE3MjgzOTUwNjE3MjgzOSwwLDAsMC4wNjE3MjgzOTUwNjE3MjgzOSwwLDApIi8+PHVzZSB4bGluazpocmVmPSIjYXkiIHRyYW5zZm9ybT0ibWF0cml4KDAuMDYxNzI4Mzk1MDYxNzI4MzksMCwwLDAuMDYxNzI4Mzk1MDYxNzI4MzksNC44NzY1NDMyMDk4NzY1NDMsMCkiLz48dXNlIHhsaW5rOmhyZWY9IiNhTyIgdHJhbnNmb3JtPSJtYXRyaXgoMC4wNjE3MjgzOTUwNjE3MjgzOSwwLDAsMC4wNjE3MjgzOTUwNjE3MjgzOSwxNy4yMjIyMjIyMjIyMjIyMiwwKSIvPjx1c2UgeGxpbms6aHJlZj0iI2FxIiB0cmFuc2Zvcm09Im1hdHJpeCgwLjA2MTcyODM5NTA2MTcyODM5LDAsMCwwLjA2MTcyODM5NTA2MTcyODM5LDI5LjU2NzkwMTIzNDU2NzksMCkiLz48dXNlIHhsaW5rOmhyZWY9IiNhdyIgdHJhbnNmb3JtPSJtYXRyaXgoMC4wNjE3MjgzOTUwNjE3MjgzOSwwLDAsMC4wNjE3MjgzOTUwNjE3MjgzOSw0My4wODY0MTk3NTMwODY0MiwwKSIvPjx1c2UgeGxpbms6aHJlZj0iI2FzIiB0cmFuc2Zvcm09Im1hdHJpeCgwLjA2MTcyODM5NTA2MTcyODM5LDAsMCwwLjA2MTcyODM5NTA2MTcyODM5LDU1LjQzMjA5ODc2NTQzMjA5NCwwKSIvPjx1c2UgeGxpbms6aHJlZj0iI2F0IiB0cmFuc2Zvcm09Im1hdHJpeCgwLjA2MTcyODM5NTA2MTcyODM5LDAsMCwwLjA2MTcyODM5NTA2MTcyODM5LDYwLjMwODY0MTk3NTMwODY0LDApIi8+PHVzZSB4bGluazpocmVmPSIjYUQiIHRyYW5zZm9ybT0ibWF0cml4KDAuMDYxNzI4Mzk1MDYxNzI4MzksMCwwLDAuMDYxNzI4Mzk1MDYxNzI4MzksNzIuNjU0MzIwOTg3NjU0MzIsMCkiLz48dXNlIHhsaW5rOmhyZWY9IiNhTiIgdHJhbnNmb3JtPSJtYXRyaXgoMC4wNjE3MjgzOTUwNjE3MjgzOSwwLDAsMC4wNjE3MjgzOTUwNjE3MjgzOSw4My43NjU0MzIwOTg3NjU0MywwKSIvPjx1c2UgeGxpbms6aHJlZj0iI2FpIiB0cmFuc2Zvcm09Im1hdHJpeCgwLjA2MTcyODM5NTA2MTcyODM5LDAsMCwwLjA2MTcyODM5NTA2MTcyODM5LDkxLjExMTExMTExMTExMTExLDApIi8+PHVzZSB4bGluazpocmVmPSIjYXUiIHRyYW5zZm9ybT0ibWF0cml4KDAuMDYxNzI4Mzk1MDYxNzI4MzksMCwwLDAuMDYxNzI4Mzk1MDYxNzI4MzksMTA1LjkyNTkyNTkyNTkyNTkyLDApIi8+PHVzZSB4bGluazpocmVmPSIjYWsiIHRyYW5zZm9ybT0ibWF0cml4KDAuMDYxNzI4Mzk1MDYxNzI4MzksMCwwLDAuMDYxNzI4Mzk1MDYxNzI4MzksMTEyLjA5ODc2NTQzMjA5ODc2LDApIi8+PHVzZSB4bGluazpocmVmPSIjYXMiIHRyYW5zZm9ybT0ibWF0cml4KDAuMDYxNzI4Mzk1MDYxNzI4MzksMCwwLDAuMDYxNzI4Mzk1MDYxNzI4MzksMTE5LjQ0NDQ0NDQ0NDQ0NDQ0LDApIi8+PHVzZSB4bGluazpocmVmPSIjYXQiIHRyYW5zZm9ybT0ibWF0cml4KDAuMDYxNzI4Mzk1MDYxNzI4MzksMCwwLDAuMDYxNzI4Mzk1MDYxNzI4MzksMTI0LjMyMDk4NzY1NDMyMDk5LDApIi8+PHVzZSB4bGluazpocmVmPSIjYU8iIHRyYW5zZm9ybT0ibWF0cml4KDAuMDYxNzI4Mzk1MDYxNzI4MzksMCwwLDAuMDYxNzI4Mzk1MDYxNzI4MzksMTM2LjY2NjY2NjY2NjY2NjY2LDApIi8+PHVzZSB4bGluazpocmVmPSIjYVAiIHRyYW5zZm9ybT0ibWF0cml4KDAuMDYxNzI4Mzk1MDYxNzI4MzksMCwwLDAuMDYxNzI4Mzk1MDYxNzI4MzksMTQ5LjAxMjM0NTY3OTAxMjMzLDApIi8+PHVzZSB4bGluazpocmVmPSIjYXIiIHRyYW5zZm9ybT0ibWF0cml4KDAuMDYxNzI4Mzk1MDYxNzI4MzksMCwwLDAuMDYxNzI4Mzk1MDYxNzI4MzksMTU2LjM1ODAyNDY5MTM1OCwwKSIvPjwvZz48cGF0aCBpZD0iYVQiIGQ9Ik0zMCAwdi0yNDhoMTg3djI4SDYzdjc5aDE0NHYyN0g2M3Y4N2gxNjJWMEgzMCIvPjxnIGlkPSJ4Ij48dXNlIHhsaW5rOmhyZWY9IiNheCIgdHJhbnNmb3JtPSJtYXRyaXgoMC4wNjE3MjgzOTUwNjE3MjgzOSwwLDAsMC4wNjE3MjgzOTUwNjE3MjgzOSwwLDApIi8+PHVzZSB4bGluazpocmVmPSIjYXkiIHRyYW5zZm9ybT0ibWF0cml4KDAuMDYxNzI4Mzk1MDYxNzI4MzksMCwwLDAuMDYxNzI4Mzk1MDYxNzI4MzksNC44NzY1NDMyMDk4NzY1NDMsMCkiLz48dXNlIHhsaW5rOmhyZWY9IiNhTyIgdHJhbnNmb3JtPSJtYXRyaXgoMC4wNjE3MjgzOTUwNjE3MjgzOSwwLDAsMC4wNjE3MjgzOTUwNjE3MjgzOSwxNy4yMjIyMjIyMjIyMjIyMiwwKSIvPjx1c2UgeGxpbms6aHJlZj0iI2FUIiB0cmFuc2Zvcm09Im1hdHJpeCgwLjA2MTcyODM5NTA2MTcyODM5LDAsMCwwLjA2MTcyODM5NTA2MTcyODM5LDI5LjU2NzkwMTIzNDU2NzksMCkiLz48dXNlIHhsaW5rOmhyZWY9IiNhQiIgdHJhbnNmb3JtPSJtYXRyaXgoMC4wNjE3MjgzOTUwNjE3MjgzOSwwLDAsMC4wNjE3MjgzOTUwNjE3MjgzOSw0NC4zODI3MTYwNDkzODI3MSwwKSIvPjx1c2UgeGxpbms6aHJlZj0iI2F1IiB0cmFuc2Zvcm09Im1hdHJpeCgwLjA2MTcyODM5NTA2MTcyODM5LDAsMCwwLjA2MTcyODM5NTA2MTcyODM5LDU2LjcyODM5NTA2MTcyODM4NSwwKSIvPjx1c2UgeGxpbms6aHJlZj0iI2FOIiB0cmFuc2Zvcm09Im1hdHJpeCgwLjA2MTcyODM5NTA2MTcyODM5LDAsMCwwLjA2MTcyODM5NTA2MTcyODM5LDYyLjkwMTIzNDU2NzkwMTIzLDApIi8+PHVzZSB4bGluazpocmVmPSIjYWkiIHRyYW5zZm9ybT0ibWF0cml4KDAuMDYxNzI4Mzk1MDYxNzI4MzksMCwwLDAuMDYxNzI4Mzk1MDYxNzI4MzksNzAuMjQ2OTEzNTgwMjQ2OTEsMCkiLz48dXNlIHhsaW5rOmhyZWY9IiNhdSIgdHJhbnNmb3JtPSJtYXRyaXgoMC4wNjE3MjgzOTUwNjE3MjgzOSwwLDAsMC4wNjE3MjgzOTUwNjE3MjgzOSw4NS4wNjE3MjgzOTUwNjE3MiwwKSIvPjx1c2UgeGxpbms6aHJlZj0iI2FrIiB0cmFuc2Zvcm09Im1hdHJpeCgwLjA2MTcyODM5NTA2MTcyODM5LDAsMCwwLjA2MTcyODM5NTA2MTcyODM5LDkxLjIzNDU2NzkwMTIzNDU2LDApIi8+PHVzZSB4bGluazpocmVmPSIjYXMiIHRyYW5zZm9ybT0ibWF0cml4KDAuMDYxNzI4Mzk1MDYxNzI4MzksMCwwLDAuMDYxNzI4Mzk1MDYxNzI4MzksOTguNTgwMjQ2OTEzNTgwMjQsMCkiLz48dXNlIHhsaW5rOmhyZWY9IiNhdCIgdHJhbnNmb3JtPSJtYXRyaXgoMC4wNjE3MjgzOTUwNjE3MjgzOSwwLDAsMC4wNjE3MjgzOTUwNjE3MjgzOSwxMDMuNDU2NzkwMTIzNDU2NzgsMCkiLz48dXNlIHhsaW5rOmhyZWY9IiNhTyIgdHJhbnNmb3JtPSJtYXRyaXgoMC4wNjE3MjgzOTUwNjE3MjgzOSwwLDAsMC4wNjE3MjgzOTUwNjE3MjgzOSwxMTUuODAyNDY5MTM1ODAyNDcsMCkiLz48dXNlIHhsaW5rOmhyZWY9IiNhUCIgdHJhbnNmb3JtPSJtYXRyaXgoMC4wNjE3MjgzOTUwNjE3MjgzOSwwLDAsMC4wNjE3MjgzOTUwNjE3MjgzOSwxMjguMTQ4MTQ4MTQ4MTQ4MTUsMCkiLz48dXNlIHhsaW5rOmhyZWY9IiNhciIgdHJhbnNmb3JtPSJtYXRyaXgoMC4wNjE3MjgzOTUwNjE3MjgzOSwwLDAsMC4wNjE3MjgzOTUwNjE3MjgzOSwxMzUuNDkzODI3MTYwNDkzODIsMCkiLz48L2c+PGcgaWQ9InkiPjx1c2UgeGxpbms6aHJlZj0iI2FuIiB0cmFuc2Zvcm09Im1hdHJpeCgwLjA2MTcyODM5NTA2MTcyODM5LDAsMCwwLjA2MTcyODM5NTA2MTcyODM5LDAsMCkiLz48dXNlIHhsaW5rOmhyZWY9IiNhdyIgdHJhbnNmb3JtPSJtYXRyaXgoMC4wNjE3MjgzOTUwNjE3MjgzOSwwLDAsMC4wNjE3MjgzOTUwNjE3MjgzOSwxNC44MTQ4MTQ4MTQ4MTQ4MTMsMCkiLz48dXNlIHhsaW5rOmhyZWY9IiNhcyIgdHJhbnNmb3JtPSJtYXRyaXgoMC4wNjE3MjgzOTUwNjE3MjgzOSwwLDAsMC4wNjE3MjgzOTUwNjE3MjgzOSwyNy4xNjA0OTM4MjcxNjA0OTQsMCkiLz48dXNlIHhsaW5rOmhyZWY9IiNheCIgdHJhbnNmb3JtPSJtYXRyaXgoMC4wNjE3MjgzOTUwNjE3MjgzOSwwLDAsMC4wNjE3MjgzOTUwNjE3MjgzOSwzMi4wMzcwMzcwMzcwMzcwNCwwKSIvPjx1c2UgeGxpbms6aHJlZj0iI2F5IiB0cmFuc2Zvcm09Im1hdHJpeCgwLjA2MTcyODM5NTA2MTcyODM5LDAsMCwwLjA2MTcyODM5NTA2MTcyODM5LDM2LjkxMzU4MDI0NjkxMzU4LDApIi8+PHVzZSB4bGluazpocmVmPSIjYXoiIHRyYW5zZm9ybT0ibWF0cml4KDAuMDYxNzI4Mzk1MDYxNzI4MzksMCwwLDAuMDYxNzI4Mzk1MDYxNzI4MzksNDkuMjU5MjU5MjU5MjU5MjYsMCkiLz48dXNlIHhsaW5rOmhyZWY9IiNheSIgdHJhbnNmb3JtPSJtYXRyaXgoMC4wNjE3MjgzOTUwNjE3MjgzOSwwLDAsMC4wNjE3MjgzOTUwNjE3MjgzOSw2MC4zNzAzNzAzNzAzNzAzNywwKSIvPjx1c2UgeGxpbms6aHJlZj0iI2F2IiB0cmFuc2Zvcm09Im1hdHJpeCgwLjA2MTcyODM5NTA2MTcyODM5LDAsMCwwLjA2MTcyODM5NTA2MTcyODM5LDcyLjcxNjA0OTM4MjcxNjA1LDApIi8+PHVzZSB4bGluazpocmVmPSIjYXciIHRyYW5zZm9ybT0ibWF0cml4KDAuMDYxNzI4Mzk1MDYxNzI4MzksMCwwLDAuMDYxNzI4Mzk1MDYxNzI4MzksODUuMDYxNzI4Mzk1MDYxNzMsMCkiLz48dXNlIHhsaW5rOmhyZWY9IiNhaiIgdHJhbnNmb3JtPSJtYXRyaXgoMC4wNjE3MjgzOTUwNjE3MjgzOSwwLDAsMC4wNjE3MjgzOTUwNjE3MjgzOSw5Ny40MDc0MDc0MDc0MDc0MiwwKSIvPjx1c2UgeGxpbms6aHJlZj0iI2FrIiB0cmFuc2Zvcm09Im1hdHJpeCgwLjA2MTcyODM5NTA2MTcyODM5LDAsMCwwLjA2MTcyODM5NTA2MTcyODM5LDEwOS43NTMwODY0MTk3NTMxLDApIi8+PC9nPjxnIGlkPSJ6Ij48dXNlIHhsaW5rOmhyZWY9IiNhcyIgdHJhbnNmb3JtPSJtYXRyaXgoMC4wNjE3MjgzOTUwNjE3MjgzOSwwLDAsMC4wNjE3MjgzOTUwNjE3MjgzOSwwLDApIi8+PHVzZSB4bGluazpocmVmPSIjYUsiIHRyYW5zZm9ybT0ibWF0cml4KDAuMDYxNzI4Mzk1MDYxNzI4MzksMCwwLDAuMDYxNzI4Mzk1MDYxNzI4MzksNC44NzY1NDMyMDk4NzY1NDMsMCkiLz48dXNlIHhsaW5rOmhyZWY9IiNhciIgdHJhbnNmb3JtPSJtYXRyaXgoMC4wNjE3MjgzOTUwNjE3MjgzOSwwLDAsMC4wNjE3MjgzOTUwNjE3MjgzOSwxNy4yMjIyMjIyMjIyMjIyMiwwKSIvPjwvZz48ZyBpZD0iQSI+PHVzZSB4bGluazpocmVmPSIjYXQiIHRyYW5zZm9ybT0ibWF0cml4KDAuMDYxNzI4Mzk1MDYxNzI4MzksMCwwLDAuMDYxNzI4Mzk1MDYxNzI4MzksMCwwKSIvPjx1c2UgeGxpbms6aHJlZj0iI2FCIiB0cmFuc2Zvcm09Im1hdHJpeCgwLjA2MTcyODM5NTA2MTcyODM5LDAsMCwwLjA2MTcyODM5NTA2MTcyODM5LDEyLjM0NTY3OTAxMjM0NTY3OSwwKSIvPjx1c2UgeGxpbms6aHJlZj0iI2FNIiB0cmFuc2Zvcm09Im1hdHJpeCgwLjA2MTcyODM5NTA2MTcyODM5LDAsMCwwLjA2MTcyODM5NTA2MTcyODM5LDI0LjY5MTM1ODAyNDY5MTM1OCwwKSIvPjx1c2UgeGxpbms6aHJlZj0iI2FqIiB0cmFuc2Zvcm09Im1hdHJpeCgwLjA2MTcyODM5NTA2MTcyODM5LDAsMCwwLjA2MTcyODM5NTA2MTcyODM5LDQzLjE0ODE0ODE0ODE0ODE0NSwwKSIvPjx1c2UgeGxpbms6aHJlZj0iI2FyIiB0cmFuc2Zvcm09Im1hdHJpeCgwLjA2MTcyODM5NTA2MTcyODM5LDAsMCwwLjA2MTcyODM5NTA2MTcyODM5LDU1LjQ5MzgyNzE2MDQ5MzgyLDApIi8+PC9nPjxnIGlkPSJCIj48dXNlIHhsaW5rOmhyZWY9IiNhdSIgdHJhbnNmb3JtPSJtYXRyaXgoMC4wNjE3MjgzOTUwNjE3MjgzOSwwLDAsMC4wNjE3MjgzOTUwNjE3MjgzOSwwLDApIi8+PHVzZSB4bGluazpocmVmPSIjYXciIHRyYW5zZm9ybT0ibWF0cml4KDAuMDYxNzI4Mzk1MDYxNzI4MzksMCwwLDAuMDYxNzI4Mzk1MDYxNzI4MzksNi4xNzI4Mzk1MDYxNzI4MzksMCkiLz48dXNlIHhsaW5rOmhyZWY9IiNheSIgdHJhbnNmb3JtPSJtYXRyaXgoMC4wNjE3MjgzOTUwNjE3MjgzOSwwLDAsMC4wNjE3MjgzOTUwNjE3MjgzOSwxOC41MTg1MTg1MTg1MTg1MiwwKSIvPjx1c2UgeGxpbms6aHJlZj0iI2FSIiB0cmFuc2Zvcm09Im1hdHJpeCgwLjA2MTcyODM5NTA2MTcyODM5LDAsMCwwLjA2MTcyODM5NTA2MTcyODM5LDMwLjg2NDE5NzUzMDg2NDE5NiwwKSIvPjx1c2UgeGxpbms6aHJlZj0iI2FPIiB0cmFuc2Zvcm09Im1hdHJpeCgwLjA2MTcyODM5NTA2MTcyODM5LDAsMCwwLjA2MTcyODM5NTA2MTcyODM5LDQzLjIwOTg3NjU0MzIwOTg3LDApIi8+PHVzZSB4bGluazpocmVmPSIjYXciIHRyYW5zZm9ybT0ibWF0cml4KDAuMDYxNzI4Mzk1MDYxNzI4MzksMCwwLDAuMDYxNzI4Mzk1MDYxNzI4MzksNTUuNTU1NTU1NTU1NTU1NTUsMCkiLz48dXNlIHhsaW5rOmhyZWY9IiNhdSIgdHJhbnNmb3JtPSJtYXRyaXgoMC4wNjE3MjgzOTUwNjE3MjgzOSwwLDAsMC4wNjE3MjgzOTUwNjE3MjgzOSw2Ny45MDEyMzQ1Njc5MDEyMywwKSIvPjx1c2UgeGxpbms6aHJlZj0iI2F6IiB0cmFuc2Zvcm09Im1hdHJpeCgwLjA2MTcyODM5NTA2MTcyODM5LDAsMCwwLjA2MTcyODM5NTA2MTcyODM5LDc0LjA3NDA3NDA3NDA3NDA2LDApIi8+PHVzZSB4bGluazpocmVmPSIjYXIiIHRyYW5zZm9ybT0ibWF0cml4KDAuMDYxNzI4Mzk1MDYxNzI4MzksMCwwLDAuMDYxNzI4Mzk1MDYxNzI4MzksODUuMTg1MTg1MTg1MTg1MTgsMCkiLz48L2c+PGcgaWQ9IkMiPjx1c2UgeGxpbms6aHJlZj0iI2FNIiB0cmFuc2Zvcm09Im1hdHJpeCgwLjA2MTcyODM5NTA2MTcyODM5LDAsMCwwLjA2MTcyODM5NTA2MTcyODM5LDAsMCkiLz48dXNlIHhsaW5rOmhyZWY9IiNhaiIgdHJhbnNmb3JtPSJtYXRyaXgoMC4wNjE3MjgzOTUwNjE3MjgzOSwwLDAsMC4wNjE3MjgzOTUwNjE3MjgzOSwxOC40NTY3OTAxMjM0NTY3ODgsMCkiLz48dXNlIHhsaW5rOmhyZWY9IiNhQiIgdHJhbnNmb3JtPSJtYXRyaXgoMC4wNjE3MjgzOTUwNjE3MjgzOSwwLDAsMC4wNjE3MjgzOTUwNjE3MjgzOSwzMC44MDI0NjkxMzU4MDI0NywwKSIvPjx1c2UgeGxpbms6aHJlZj0iI2F4IiB0cmFuc2Zvcm09Im1hdHJpeCgwLjA2MTcyODM5NTA2MTcyODM5LDAsMCwwLjA2MTcyODM5NTA2MTcyODM5LDQzLjE0ODE0ODE0ODE0ODE0NSwwKSIvPjx1c2UgeGxpbms6aHJlZj0iI2F6IiB0cmFuc2Zvcm09Im1hdHJpeCgwLjA2MTcyODM5NTA2MTcyODM5LDAsMCwwLjA2MTcyODM5NTA2MTcyODM5LDQ4LjAyNDY5MTM1ODAyNDY5LDApIi8+PHVzZSB4bGluazpocmVmPSIjYXIiIHRyYW5zZm9ybT0ibWF0cml4KDAuMDYxNzI4Mzk1MDYxNzI4MzksMCwwLDAuMDYxNzI4Mzk1MDYxNzI4MzksNTkuMTM1ODAyNDY5MTM1OCwwKSIvPjwvZz48ZyBpZD0iRCI+PHVzZSB4bGluazpocmVmPSIjYXMiIHRyYW5zZm9ybT0ibWF0cml4KDAuMDYxNzI4Mzk1MDYxNzI4MzksMCwwLDAuMDYxNzI4Mzk1MDYxNzI4MzksMCwwKSIvPjx1c2UgeGxpbms6aHJlZj0iI2F0IiB0cmFuc2Zvcm09Im1hdHJpeCgwLjA2MTcyODM5NTA2MTcyODM5LDAsMCwwLjA2MTcyODM5NTA2MTcyODM5LDQuODc2NTQzMjA5ODc2NTQzLDApIi8+PHVzZSB4bGluazpocmVmPSIjYXUiIHRyYW5zZm9ybT0ibWF0cml4KDAuMDYxNzI4Mzk1MDYxNzI4MzksMCwwLDAuMDYxNzI4Mzk1MDYxNzI4MzksMTcuMjIyMjIyMjIyMjIyMjIsMCkiLz48L2c+PHBhdGggaWQ9ImFVIiBkPSJNMTkwIDBMNTgtMjExIDU5IDBIMzB2LTI0OGgzOUwyMDItMzVsLTItMjEzaDMxVjBoLTQxIi8+PGcgaWQ9IkUiPjx1c2UgeGxpbms6aHJlZj0iI2FPIiB0cmFuc2Zvcm09Im1hdHJpeCgwLjA2MTcyODM5NTA2MTcyODM5LDAsMCwwLjA2MTcyODM5NTA2MTcyODM5LDAsMCkiLz48dXNlIHhsaW5rOmhyZWY9IiNhaiIgdHJhbnNmb3JtPSJtYXRyaXgoMC4wNjE3MjgzOTUwNjE3MjgzOSwwLDAsMC4wNjE3MjgzOTUwNjE3MjgzOSwxMi4zNDU2NzkwMTIzNDU2NzksMCkiLz48dXNlIHhsaW5rOmhyZWY9IiNhdSIgdHJhbnNmb3JtPSJtYXRyaXgoMC4wNjE3MjgzOTUwNjE3MjgzOSwwLDAsMC4wNjE3MjgzOTUwNjE3MjgzOSwyNC42OTEzNTgwMjQ2OTEzNTgsMCkiLz48dXNlIHhsaW5rOmhyZWY9IiNhVSIgdHJhbnNmb3JtPSJtYXRyaXgoMC4wNjE3MjgzOTUwNjE3MjgzOSwwLDAsMC4wNjE3MjgzOTUwNjE3MjgzOSwzMC44NjQxOTc1MzA4NjQxOTYsMCkiLz48dXNlIHhsaW5rOmhyZWY9IiNhQiIgdHJhbnNmb3JtPSJtYXRyaXgoMC4wNjE3MjgzOTUwNjE3MjgzOSwwLDAsMC4wNjE3MjgzOTUwNjE3MjgzOSw0Ni44NTE4NTE4NTE4NTE4NSwwKSIvPjx1c2UgeGxpbms6aHJlZj0iI2FNIiB0cmFuc2Zvcm09Im1hdHJpeCgwLjA2MTcyODM5NTA2MTcyODM5LDAsMCwwLjA2MTcyODM5NTA2MTcyODM5LDU5LjE5NzUzMDg2NDE5NzUyNSwwKSIvPjx1c2UgeGxpbms6aHJlZj0iI2FqIiB0cmFuc2Zvcm09Im1hdHJpeCgwLjA2MTcyODM5NTA2MTcyODM5LDAsMCwwLjA2MTcyODM5NTA2MTcyODM5LDc3LjY1NDMyMDk4NzY1NDMyLDApIi8+PHVzZSB4bGluazpocmVmPSIjYU4iIHRyYW5zZm9ybT0ibWF0cml4KDAuMDYxNzI4Mzk1MDYxNzI4MzksMCwwLDAuMDYxNzI4Mzk1MDYxNzI4MzksOTAsMCkiLz48dXNlIHhsaW5rOmhyZWY9IiNhUCIgdHJhbnNmb3JtPSJtYXRyaXgoMC4wNjE3MjgzOTUwNjE3MjgzOSwwLDAsMC4wNjE3MjgzOTUwNjE3MjgzOSw5Ny4zNDU2NzkwMTIzNDU2OCwwKSIvPjx1c2UgeGxpbms6aHJlZj0iI2FyIiB0cmFuc2Zvcm09Im1hdHJpeCgwLjA2MTcyODM5NTA2MTcyODM5LDAsMCwwLjA2MTcyODM5NTA2MTcyODM5LDEwNC42OTEzNTgwMjQ2OTEzNywwKSIvPjwvZz48ZyBpZD0iRiI+PHVzZSB4bGluazpocmVmPSIjYXMiIHRyYW5zZm9ybT0ibWF0cml4KDAuMDYxNzI4Mzk1MDYxNzI4MzksMCwwLDAuMDYxNzI4Mzk1MDYxNzI4MzksMCwwKSIvPjx1c2UgeGxpbms6aHJlZj0iI2F0IiB0cmFuc2Zvcm09Im1hdHJpeCgwLjA2MTcyODM5NTA2MTcyODM5LDAsMCwwLjA2MTcyODM5NTA2MTcyODM5LDQuODc2NTQzMjA5ODc2NTQzLDApIi8+PHVzZSB4bGluazpocmVmPSIjYVEiIHRyYW5zZm9ybT0ibWF0cml4KDAuMDYxNzI4Mzk1MDYxNzI4MzksMCwwLDAuMDYxNzI4Mzk1MDYxNzI4MzksMTcuMjIyMjIyMjIyMjIyMjIsMCkiLz48dXNlIHhsaW5rOmhyZWY9IiNhayIgdHJhbnNmb3JtPSJtYXRyaXgoMC4wNjE3MjgzOTUwNjE3MjgzOSwwLDAsMC4wNjE3MjgzOTUwNjE3MjgzOSwyOC4zMzMzMzMzMzMzMzMzMzIsMCkiLz48dXNlIHhsaW5rOmhyZWY9IiNhaiIgdHJhbnNmb3JtPSJtYXRyaXgoMC4wNjE3MjgzOTUwNjE3MjgzOSwwLDAsMC4wNjE3MjgzOTUwNjE3MjgzOSwzNS42NzkwMTIzNDU2NzkwMSwwKSIvPjx1c2UgeGxpbms6aHJlZj0iI2FNIiB0cmFuc2Zvcm09Im1hdHJpeCgwLjA2MTcyODM5NTA2MTcyODM5LDAsMCwwLjA2MTcyODM5NTA2MTcyODM5LDQ4LjAyNDY5MTM1ODAyNDY5LDApIi8+PHVzZSB4bGluazpocmVmPSIjYWoiIHRyYW5zZm9ybT0ibWF0cml4KDAuMDYxNzI4Mzk1MDYxNzI4MzksMCwwLDAuMDYxNzI4Mzk1MDYxNzI4MzksNjYuNDgxNDgxNDgxNDgxNDgsMCkiLz48dXNlIHhsaW5rOmhyZWY9IiNhdCIgdHJhbnNmb3JtPSJtYXRyaXgoMC4wNjE3MjgzOTUwNjE3MjgzOSwwLDAsMC4wNjE3MjgzOTUwNjE3MjgzOSw3OC44MjcxNjA0OTM4MjcxNywwKSIvPjx1c2UgeGxpbms6aHJlZj0iI2F1IiB0cmFuc2Zvcm09Im1hdHJpeCgwLjA2MTcyODM5NTA2MTcyODM5LDAsMCwwLjA2MTcyODM5NTA2MTcyODM5LDkxLjE3MjgzOTUwNjE3Mjg1LDApIi8+PHVzZSB4bGluazpocmVmPSIjYXEiIHRyYW5zZm9ybT0ibWF0cml4KDAuMDYxNzI4Mzk1MDYxNzI4MzksMCwwLDAuMDYxNzI4Mzk1MDYxNzI4MzksOTcuMzQ1Njc5MDEyMzQ1NjgsMCkiLz48dXNlIHhsaW5rOmhyZWY9IiNhdyIgdHJhbnNmb3JtPSJtYXRyaXgoMC4wNjE3MjgzOTUwNjE3MjgzOSwwLDAsMC4wNjE3MjgzOTUwNjE3MjgzOSwxMTAuODY0MTk3NTMwODY0MiwwKSIvPjx1c2UgeGxpbms6aHJlZj0iI2F5IiB0cmFuc2Zvcm09Im1hdHJpeCgwLjA2MTcyODM5NTA2MTcyODM5LDAsMCwwLjA2MTcyODM5NTA2MTcyODM5LDEyMy4yMDk4NzY1NDMyMDk4OSwwKSIvPjx1c2UgeGxpbms6aHJlZj0iI2FSIiB0cmFuc2Zvcm09Im1hdHJpeCgwLjA2MTcyODM5NTA2MTcyODM5LDAsMCwwLjA2MTcyODM5NTA2MTcyODM5LDEzNS41NTU1NTU1NTU1NTU1NywwKSIvPjx1c2UgeGxpbms6aHJlZj0iI2FPIiB0cmFuc2Zvcm09Im1hdHJpeCgwLjA2MTcyODM5NTA2MTcyODM5LDAsMCwwLjA2MTcyODM5NTA2MTcyODM5LDE0Ny45MDEyMzQ1Njc5MDEyNCwwKSIvPjx1c2UgeGxpbms6aHJlZj0iI2F3IiB0cmFuc2Zvcm09Im1hdHJpeCgwLjA2MTcyODM5NTA2MTcyODM5LDAsMCwwLjA2MTcyODM5NTA2MTcyODM5LDE2MC4yNDY5MTM1ODAyNDY5LDApIi8+PHVzZSB4bGluazpocmVmPSIjYXUiIHRyYW5zZm9ybT0ibWF0cml4KDAuMDYxNzI4Mzk1MDYxNzI4MzksMCwwLDAuMDYxNzI4Mzk1MDYxNzI4MzksMTcyLjU5MjU5MjU5MjU5MjU4LDApIi8+PHVzZSB4bGluazpocmVmPSIjYXoiIHRyYW5zZm9ybT0ibWF0cml4KDAuMDYxNzI4Mzk1MDYxNzI4MzksMCwwLDAuMDYxNzI4Mzk1MDYxNzI4MzksMTc4Ljc2NTQzMjA5ODc2NTQyLDApIi8+PHVzZSB4bGluazpocmVmPSIjYU4iIHRyYW5zZm9ybT0ibWF0cml4KDAuMDYxNzI4Mzk1MDYxNzI4MzksMCwwLDAuMDYxNzI4Mzk1MDYxNzI4MzksMTg5Ljg3NjU0MzIwOTg3NjUzLDApIi8+PHVzZSB4bGluazpocmVmPSIjYVAiIHRyYW5zZm9ybT0ibWF0cml4KDAuMDYxNzI4Mzk1MDYxNzI4MzksMCwwLDAuMDYxNzI4Mzk1MDYxNzI4MzksMTk3LjIyMjIyMjIyMjIyMjIsMCkiLz48dXNlIHhsaW5rOmhyZWY9IiNhciIgdHJhbnNmb3JtPSJtYXRyaXgoMC4wNjE3MjgzOTUwNjE3MjgzOSwwLDAsMC4wNjE3MjgzOTUwNjE3MjgzOSwyMDQuNTY3OTAxMjM0NTY3ODcsMCkiLz48L2c+PGcgaWQ9IkciPjx1c2UgeGxpbms6aHJlZj0iI2FzIiB0cmFuc2Zvcm09Im1hdHJpeCgwLjA2MTcyODM5NTA2MTcyODM5LDAsMCwwLjA2MTcyODM5NTA2MTcyODM5LDAsMCkiLz48dXNlIHhsaW5rOmhyZWY9IiNhdCIgdHJhbnNmb3JtPSJtYXRyaXgoMC4wNjE3MjgzOTUwNjE3MjgzOSwwLDAsMC4wNjE3MjgzOTUwNjE3MjgzOSw0Ljg3NjU0MzIwOTg3NjU0MywwKSIvPjx1c2UgeGxpbms6aHJlZj0iI2FRIiB0cmFuc2Zvcm09Im1hdHJpeCgwLjA2MTcyODM5NTA2MTcyODM5LDAsMCwwLjA2MTcyODM5NTA2MTcyODM5LDE3LjIyMjIyMjIyMjIyMjIyLDApIi8+PHVzZSB4bGluazpocmVmPSIjYWsiIHRyYW5zZm9ybT0ibWF0cml4KDAuMDYxNzI4Mzk1MDYxNzI4MzksMCwwLDAuMDYxNzI4Mzk1MDYxNzI4MzksMjguMzMzMzMzMzMzMzMzMzMyLDApIi8+PHVzZSB4bGluazpocmVmPSIjYWoiIHRyYW5zZm9ybT0ibWF0cml4KDAuMDYxNzI4Mzk1MDYxNzI4MzksMCwwLDAuMDYxNzI4Mzk1MDYxNzI4MzksMzUuNjc5MDEyMzQ1Njc5MDEsMCkiLz48dXNlIHhsaW5rOmhyZWY9IiNhTSIgdHJhbnNmb3JtPSJtYXRyaXgoMC4wNjE3MjgzOTUwNjE3MjgzOSwwLDAsMC4wNjE3MjgzOTUwNjE3MjgzOSw0OC4wMjQ2OTEzNTgwMjQ2OSwwKSIvPjx1c2UgeGxpbms6aHJlZj0iI2FqIiB0cmFuc2Zvcm09Im1hdHJpeCgwLjA2MTcyODM5NTA2MTcyODM5LDAsMCwwLjA2MTcyODM5NTA2MTcyODM5LDY2LjQ4MTQ4MTQ4MTQ4MTQ4LDApIi8+PHVzZSB4bGluazpocmVmPSIjYXQiIHRyYW5zZm9ybT0ibWF0cml4KDAuMDYxNzI4Mzk1MDYxNzI4MzksMCwwLDAuMDYxNzI4Mzk1MDYxNzI4MzksNzguODI3MTYwNDkzODI3MTcsMCkiLz48dXNlIHhsaW5rOmhyZWY9IiNhdSIgdHJhbnNmb3JtPSJtYXRyaXgoMC4wNjE3MjgzOTUwNjE3MjgzOSwwLDAsMC4wNjE3MjgzOTUwNjE3MjgzOSw5MS4xNzI4Mzk1MDYxNzI4NSwwKSIvPjx1c2UgeGxpbms6aHJlZj0iI2FBIiB0cmFuc2Zvcm09Im1hdHJpeCgwLjA2MTcyODM5NTA2MTcyODM5LDAsMCwwLjA2MTcyODM5NTA2MTcyODM5LDk3LjM0NTY3OTAxMjM0NTY4LDApIi8+PHVzZSB4bGluazpocmVmPSIjYWoiIHRyYW5zZm9ybT0ibWF0cml4KDAuMDYxNzI4Mzk1MDYxNzI4MzksMCwwLDAuMDYxNzI4Mzk1MDYxNzI4MzksMTE1LjgwMjQ2OTEzNTgwMjQ3LDApIi8+PHVzZSB4bGluazpocmVmPSIjYUIiIHRyYW5zZm9ybT0ibWF0cml4KDAuMDYxNzI4Mzk1MDYxNzI4MzksMCwwLDAuMDYxNzI4Mzk1MDYxNzI4MzksMTI4LjE0ODE0ODE0ODE0ODE1LDApIi8+PHVzZSB4bGluazpocmVmPSIjYXgiIHRyYW5zZm9ybT0ibWF0cml4KDAuMDYxNzI4Mzk1MDYxNzI4MzksMCwwLDAuMDYxNzI4Mzk1MDYxNzI4MzksMTQwLjQ5MzgyNzE2MDQ5MzgyLDApIi8+PHVzZSB4bGluazpocmVmPSIjYXoiIHRyYW5zZm9ybT0ibWF0cml4KDAuMDYxNzI4Mzk1MDYxNzI4MzksMCwwLDAuMDYxNzI4Mzk1MDYxNzI4MzksMTQ1LjM3MDM3MDM3MDM3MDM1LDApIi8+PHVzZSB4bGluazpocmVmPSIjYU4iIHRyYW5zZm9ybT0ibWF0cml4KDAuMDYxNzI4Mzk1MDYxNzI4MzksMCwwLDAuMDYxNzI4Mzk1MDYxNzI4MzksMTU2LjQ4MTQ4MTQ4MTQ4MTQ3LDApIi8+PHVzZSB4bGluazpocmVmPSIjYVAiIHRyYW5zZm9ybT0ibWF0cml4KDAuMDYxNzI4Mzk1MDYxNzI4MzksMCwwLDAuMDYxNzI4Mzk1MDYxNzI4MzksMTYzLjgyNzE2MDQ5MzgyNzE0LDApIi8+PHVzZSB4bGluazpocmVmPSIjYXIiIHRyYW5zZm9ybT0ibWF0cml4KDAuMDYxNzI4Mzk1MDYxNzI4MzksMCwwLDAuMDYxNzI4Mzk1MDYxNzI4MzksMTcxLjE3MjgzOTUwNjE3MjgsMCkiLz48L2c+PGcgaWQ9IkgiPjx1c2UgeGxpbms6aHJlZj0iI2FPIiB0cmFuc2Zvcm09Im1hdHJpeCgwLjA2MTcyODM5NTA2MTcyODM5LDAsMCwwLjA2MTcyODM5NTA2MTcyODM5LDAsMCkiLz48dXNlIHhsaW5rOmhyZWY9IiNhaiIgdHJhbnNmb3JtPSJtYXRyaXgoMC4wNjE3MjgzOTUwNjE3MjgzOSwwLDAsMC4wNjE3MjgzOTUwNjE3MjgzOSwxMi4zNDU2NzkwMTIzNDU2NzksMCkiLz48dXNlIHhsaW5rOmhyZWY9IiNhdSIgdHJhbnNmb3JtPSJtYXRyaXgoMC4wNjE3MjgzOTUwNjE3MjgzOSwwLDAsMC4wNjE3MjgzOTUwNjE3MjgzOSwyNC42OTEzNTgwMjQ2OTEzNTgsMCkiLz48dXNlIHhsaW5rOmhyZWY9IiNhcSIgdHJhbnNmb3JtPSJtYXRyaXgoMC4wNjE3MjgzOTUwNjE3MjgzOSwwLDAsMC4wNjE3MjgzOTUwNjE3MjgzOSwzMC44NjQxOTc1MzA4NjQxOTYsMCkiLz48dXNlIHhsaW5rOmhyZWY9IiNhdyIgdHJhbnNmb3JtPSJtYXRyaXgoMC4wNjE3MjgzOTUwNjE3MjgzOSwwLDAsMC4wNjE3MjgzOTUwNjE3MjgzOSw0NC4zODI3MTYwNDkzODI3MTUsMCkiLz48dXNlIHhsaW5rOmhyZWY9IiNheSIgdHJhbnNmb3JtPSJtYXRyaXgoMC4wNjE3MjgzOTUwNjE3MjgzOSwwLDAsMC4wNjE3MjgzOTUwNjE3MjgzOSw1Ni43MjgzOTUwNjE3MjgzOSwwKSIvPjx1c2UgeGxpbms6aHJlZj0iI2FSIiB0cmFuc2Zvcm09Im1hdHJpeCgwLjA2MTcyODM5NTA2MTcyODM5LDAsMCwwLjA2MTcyODM5NTA2MTcyODM5LDY5LjA3NDA3NDA3NDA3NDA4LDApIi8+PHVzZSB4bGluazpocmVmPSIjYU8iIHRyYW5zZm9ybT0ibWF0cml4KDAuMDYxNzI4Mzk1MDYxNzI4MzksMCwwLDAuMDYxNzI4Mzk1MDYxNzI4MzksODEuNDE5NzUzMDg2NDE5NzYsMCkiLz48dXNlIHhsaW5rOmhyZWY9IiNhdyIgdHJhbnNmb3JtPSJtYXRyaXgoMC4wNjE3MjgzOTUwNjE3MjgzOSwwLDAsMC4wNjE3MjgzOTUwNjE3MjgzOSw5My43NjU0MzIwOTg3NjU0NCwwKSIvPjx1c2UgeGxpbms6aHJlZj0iI2F1IiB0cmFuc2Zvcm09Im1hdHJpeCgwLjA2MTcyODM5NTA2MTcyODM5LDAsMCwwLjA2MTcyODM5NTA2MTcyODM5LDEwNi4xMTExMTExMTExMTExMywwKSIvPjx1c2UgeGxpbms6aHJlZj0iI2F6IiB0cmFuc2Zvcm09Im1hdHJpeCgwLjA2MTcyODM5NTA2MTcyODM5LDAsMCwwLjA2MTcyODM5NTA2MTcyODM5LDExMi4yODM5NTA2MTcyODM5NiwwKSIvPjx1c2UgeGxpbms6aHJlZj0iI2FOIiB0cmFuc2Zvcm09Im1hdHJpeCgwLjA2MTcyODM5NTA2MTcyODM5LDAsMCwwLjA2MTcyODM5NTA2MTcyODM5LDEyMy4zOTUwNjE3MjgzOTUwOCwwKSIvPjx1c2UgeGxpbms6aHJlZj0iI2FQIiB0cmFuc2Zvcm09Im1hdHJpeCgwLjA2MTcyODM5NTA2MTcyODM5LDAsMCwwLjA2MTcyODM5NTA2MTcyODM5LDEzMC43NDA3NDA3NDA3NDA3NiwwKSIvPjx1c2UgeGxpbms6aHJlZj0iI2FyIiB0cmFuc2Zvcm09Im1hdHJpeCgwLjA2MTcyODM5NTA2MTcyODM5LDAsMCwwLjA2MTcyODM5NTA2MTcyODM5LDEzOC4wODY0MTk3NTMwODY0MywwKSIvPjwvZz48ZyBpZD0iSSI+PHVzZSB4bGluazpocmVmPSIjYU8iIHRyYW5zZm9ybT0ibWF0cml4KDAuMDYxNzI4Mzk1MDYxNzI4MzksMCwwLDAuMDYxNzI4Mzk1MDYxNzI4MzksMCwwKSIvPjx1c2UgeGxpbms6aHJlZj0iI2FqIiB0cmFuc2Zvcm09Im1hdHJpeCgwLjA2MTcyODM5NTA2MTcyODM5LDAsMCwwLjA2MTcyODM5NTA2MTcyODM5LDEyLjM0NTY3OTAxMjM0NTY3OSwwKSIvPjx1c2UgeGxpbms6aHJlZj0iI2F1IiB0cmFuc2Zvcm09Im1hdHJpeCgwLjA2MTcyODM5NTA2MTcyODM5LDAsMCwwLjA2MTcyODM5NTA2MTcyODM5LDI0LjY5MTM1ODAyNDY5MTM1OCwwKSIvPjx1c2UgeGxpbms6aHJlZj0iI2FBIiB0cmFuc2Zvcm09Im1hdHJpeCgwLjA2MTcyODM5NTA2MTcyODM5LDAsMCwwLjA2MTcyODM5NTA2MTcyODM5LDMwLjg2NDE5NzUzMDg2NDE5NiwwKSIvPjx1c2UgeGxpbms6aHJlZj0iI2FqIiB0cmFuc2Zvcm09Im1hdHJpeCgwLjA2MTcyODM5NTA2MTcyODM5LDAsMCwwLjA2MTcyODM5NTA2MTcyODM5LDQ5LjMyMDk4NzY1NDMyMDk5LDApIi8+PHVzZSB4bGluazpocmVmPSIjYUIiIHRyYW5zZm9ybT0ibWF0cml4KDAuMDYxNzI4Mzk1MDYxNzI4MzksMCwwLDAuMDYxNzI4Mzk1MDYxNzI4MzksNjEuNjY2NjY2NjY2NjY2NjY0LDApIi8+PHVzZSB4bGluazpocmVmPSIjYXgiIHRyYW5zZm9ybT0ibWF0cml4KDAuMDYxNzI4Mzk1MDYxNzI4MzksMCwwLDAuMDYxNzI4Mzk1MDYxNzI4MzksNzQuMDEyMzQ1Njc5MDEyMzQsMCkiLz48dXNlIHhsaW5rOmhyZWY9IiNheiIgdHJhbnNmb3JtPSJtYXRyaXgoMC4wNjE3MjgzOTUwNjE3MjgzOSwwLDAsMC4wNjE3MjgzOTUwNjE3MjgzOSw3OC44ODg4ODg4ODg4ODg4OSwwKSIvPjx1c2UgeGxpbms6aHJlZj0iI2FOIiB0cmFuc2Zvcm09Im1hdHJpeCgwLjA2MTcyODM5NTA2MTcyODM5LDAsMCwwLjA2MTcyODM5NTA2MTcyODM5LDkwLDApIi8+PHVzZSB4bGluazpocmVmPSIjYVAiIHRyYW5zZm9ybT0ibWF0cml4KDAuMDYxNzI4Mzk1MDYxNzI4MzksMCwwLDAuMDYxNzI4Mzk1MDYxNzI4MzksOTcuMzQ1Njc5MDEyMzQ1NjgsMCkiLz48dXNlIHhsaW5rOmhyZWY9IiNhciIgdHJhbnNmb3JtPSJtYXRyaXgoMC4wNjE3MjgzOTUwNjE3MjgzOSwwLDAsMC4wNjE3MjgzOTUwNjE3MjgzOSwxMDQuNjkxMzU4MDI0NjkxMzcsMCkiLz48L2c+PGcgaWQ9IkoiPjx1c2UgeGxpbms6aHJlZj0iI2FuIiB0cmFuc2Zvcm09Im1hdHJpeCgwLjA2MTcyODM5NTA2MTcyODM5LDAsMCwwLjA2MTcyODM5NTA2MTcyODM5LDAsMCkiLz48dXNlIHhsaW5rOmhyZWY9IiNhdyIgdHJhbnNmb3JtPSJtYXRyaXgoMC4wNjE3MjgzOTUwNjE3MjgzOSwwLDAsMC4wNjE3MjgzOTUwNjE3MjgzOSwxNC44MTQ4MTQ4MTQ4MTQ4MTMsMCkiLz48dXNlIHhsaW5rOmhyZWY9IiNhcyIgdHJhbnNmb3JtPSJtYXRyaXgoMC4wNjE3MjgzOTUwNjE3MjgzOSwwLDAsMC4wNjE3MjgzOTUwNjE3MjgzOSwyNy4xNjA0OTM4MjcxNjA0OTQsMCkiLz48dXNlIHhsaW5rOmhyZWY9IiNheCIgdHJhbnNmb3JtPSJtYXRyaXgoMC4wNjE3MjgzOTUwNjE3MjgzOSwwLDAsMC4wNjE3MjgzOTUwNjE3MjgzOSwzMi4wMzcwMzcwMzcwMzcwNCwwKSIvPjx1c2UgeGxpbms6aHJlZj0iI2F5IiB0cmFuc2Zvcm09Im1hdHJpeCgwLjA2MTcyODM5NTA2MTcyODM5LDAsMCwwLjA2MTcyODM5NTA2MTcyODM5LDM2LjkxMzU4MDI0NjkxMzU4LDApIi8+PHVzZSB4bGluazpocmVmPSIjYXoiIHRyYW5zZm9ybT0ibWF0cml4KDAuMDYxNzI4Mzk1MDYxNzI4MzksMCwwLDAuMDYxNzI4Mzk1MDYxNzI4MzksNDkuMjU5MjU5MjU5MjU5MjYsMCkiLz48dXNlIHhsaW5rOmhyZWY9IiNheSIgdHJhbnNmb3JtPSJtYXRyaXgoMC4wNjE3MjgzOTUwNjE3MjgzOSwwLDAsMC4wNjE3MjgzOTUwNjE3MjgzOSw2MC4zNzAzNzAzNzAzNzAzNywwKSIvPjx1c2UgeGxpbms6aHJlZj0iI2F2IiB0cmFuc2Zvcm09Im1hdHJpeCgwLjA2MTcyODM5NTA2MTcyODM5LDAsMCwwLjA2MTcyODM5NTA2MTcyODM5LDcyLjcxNjA0OTM4MjcxNjA1LDApIi8+PHVzZSB4bGluazpocmVmPSIjYXciIHRyYW5zZm9ybT0ibWF0cml4KDAuMDYxNzI4Mzk1MDYxNzI4MzksMCwwLDAuMDYxNzI4Mzk1MDYxNzI4MzksODUuMDYxNzI4Mzk1MDYxNzMsMCkiLz48dXNlIHhsaW5rOmhyZWY9IiNhaiIgdHJhbnNmb3JtPSJtYXRyaXgoMC4wNjE3MjgzOTUwNjE3MjgzOSwwLDAsMC4wNjE3MjgzOTUwNjE3MjgzOSw5Ny40MDc0MDc0MDc0MDc0MiwwKSIvPjx1c2UgeGxpbms6aHJlZj0iI2FrIiB0cmFuc2Zvcm09Im1hdHJpeCgwLjA2MTcyODM5NTA2MTcyODM5LDAsMCwwLjA2MTcyODM5NTA2MTcyODM5LDEwOS43NTMwODY0MTk3NTMxLDApIi8+PHVzZSB4bGluazpocmVmPSIjYUkiIHRyYW5zZm9ybT0ibWF0cml4KDAuMDYxNzI4Mzk1MDYxNzI4MzksMCwwLDAuMDYxNzI4Mzk1MDYxNzI4MzksMTE3LjA5ODc2NTQzMjA5ODc5LDApIi8+PHVzZSB4bGluazpocmVmPSIjYXgiIHRyYW5zZm9ybT0ibWF0cml4KDAuMDYxNzI4Mzk1MDYxNzI4MzksMCwwLDAuMDYxNzI4Mzk1MDYxNzI4MzksMTMzLjA4NjQxOTc1MzA4NjQzLDApIi8+PHVzZSB4bGluazpocmVmPSIjYXMiIHRyYW5zZm9ybT0ibWF0cml4KDAuMDYxNzI4Mzk1MDYxNzI4MzksMCwwLDAuMDYxNzI4Mzk1MDYxNzI4MzksMTM3Ljk2Mjk2Mjk2Mjk2Mjk2LDApIi8+PHVzZSB4bGluazpocmVmPSIjYWoiIHRyYW5zZm9ybT0ibWF0cml4KDAuMDYxNzI4Mzk1MDYxNzI4MzksMCwwLDAuMDYxNzI4Mzk1MDYxNzI4MzksMTQyLjgzOTUwNjE3MjgzOTUsMCkiLz48dXNlIHhsaW5rOmhyZWY9IiNhdCIgdHJhbnNmb3JtPSJtYXRyaXgoMC4wNjE3MjgzOTUwNjE3MjgzOSwwLDAsMC4wNjE3MjgzOTUwNjE3MjgzOSwxNTUuMTg1MTg1MTg1MTg1MTYsMCkiLz48dXNlIHhsaW5rOmhyZWY9IiNhdSIgdHJhbnNmb3JtPSJtYXRyaXgoMC4wNjE3MjgzOTUwNjE3MjgzOSwwLDAsMC4wNjE3MjgzOTUwNjE3MjgzOSwxNjcuNTMwODY0MTk3NTMwODMsMCkiLz48L2c+PHBhdGggaWQ9ImFWIiBkPSJNMTM3IDBoLTM0TDItMjQ4aDM1bDgzIDIxOCA4My0yMThoMzYiLz48cGF0aCBpZD0iYVciIGQ9Ik0tNSA3MlY0OWgyMDl2MjNILTUiLz48cGF0aCBpZD0iYVgiIGQ9Ik0yMDUgMGwtMjgtNzJINjRMMzYgMEgxbDEwMS0yNDhoMzhMMjM5IDBoLTM0em0tMzgtOTlsLTQ3LTEyM2MtMTIgNDUtMzEgODItNDYgMTIzaDkzIi8+PHBhdGggaWQ9ImFZIiBkPSJNMzAtMjQ4YzExOC03IDIxNiA4IDIxMyAxMjJDMjQwLTQ4IDIwMCAwIDEyMiAwSDMwdi0yNDh6TTYzLTI3Yzg5IDggMTQ2LTE2IDE0Ni05OXMtNjAtMTAxLTE0Ni05NXYxOTQiLz48ZyBpZD0iSyI+PHVzZSB4bGluazpocmVmPSIjYWkiIHRyYW5zZm9ybT0ibWF0cml4KDAuMDYxNzI4Mzk1MDYxNzI4MzksMCwwLDAuMDYxNzI4Mzk1MDYxNzI4MzksMCwwKSIvPjx1c2UgeGxpbms6aHJlZj0iI2FUIiB0cmFuc2Zvcm09Im1hdHJpeCgwLjA2MTcyODM5NTA2MTcyODM5LDAsMCwwLjA2MTcyODM5NTA2MTcyODM5LDE0LjgxNDgxNDgxNDgxNDgxMywwKSIvPjx1c2UgeGxpbms6aHJlZj0iI2FwIiB0cmFuc2Zvcm09Im1hdHJpeCgwLjA2MTcyODM5NTA2MTcyODM5LDAsMCwwLjA2MTcyODM5NTA2MTcyODM5LDI5LjYyOTYyOTYyOTYyOTYyNiwwKSIvPjx1c2UgeGxpbms6aHJlZj0iI2FWIiB0cmFuc2Zvcm09Im1hdHJpeCgwLjA2MTcyODM5NTA2MTcyODM5LDAsMCwwLjA2MTcyODM5NTA2MTcyODM5LDQ1LjE4NTE4NTE4NTE4NTE4LDApIi8+PHVzZSB4bGluazpocmVmPSIjYVQiIHRyYW5zZm9ybT0ibWF0cml4KDAuMDYxNzI4Mzk1MDYxNzI4MzksMCwwLDAuMDYxNzI4Mzk1MDYxNzI4MzksNjAsMCkiLz48dXNlIHhsaW5rOmhyZWY9IiNhcCIgdHJhbnNmb3JtPSJtYXRyaXgoMC4wNjE3MjgzOTUwNjE3MjgzOSwwLDAsMC4wNjE3MjgzOTUwNjE3MjgzOSw3NC44MTQ4MTQ4MTQ4MTQ4MSwwKSIvPjx1c2UgeGxpbms6aHJlZj0iI2FXIiB0cmFuc2Zvcm09Im1hdHJpeCgwLjA2MTcyODM5NTA2MTcyODM5LDAsMCwwLjA2MTcyODM5NTA2MTcyODM5LDkwLjgwMjQ2OTEzNTgwMjQ3LDApIi8+PHVzZSB4bGluazpocmVmPSIjYVgiIHRyYW5zZm9ybT0ibWF0cml4KDAuMDYxNzI4Mzk1MDYxNzI4MzksMCwwLDAuMDYxNzI4Mzk1MDYxNzI4MzksMTAzLjE0ODE0ODE0ODE0ODE1LDApIi8+PHVzZSB4bGluazpocmVmPSIjYVkiIHRyYW5zZm9ybT0ibWF0cml4KDAuMDYxNzI4Mzk1MDYxNzI4MzksMCwwLDAuMDYxNzI4Mzk1MDYxNzI4MzksMTE3Ljk2Mjk2Mjk2Mjk2Mjk2LDApIi8+PHVzZSB4bGluazpocmVmPSIjYVkiIHRyYW5zZm9ybT0ibWF0cml4KDAuMDYxNzI4Mzk1MDYxNzI4MzksMCwwLDAuMDYxNzI4Mzk1MDYxNzI4MzksMTMzLjk1MDYxNzI4Mzk1MDYsMCkiLz48dXNlIHhsaW5rOmhyZWY9IiNhcCIgdHJhbnNmb3JtPSJtYXRyaXgoMC4wNjE3MjgzOTUwNjE3MjgzOSwwLDAsMC4wNjE3MjgzOTUwNjE3MjgzOSwxNDkuOTM4MjcxNjA0OTM4MjUsMCkiLz48dXNlIHhsaW5rOmhyZWY9IiNhVCIgdHJhbnNmb3JtPSJtYXRyaXgoMC4wNjE3MjgzOTUwNjE3MjgzOSwwLDAsMC4wNjE3MjgzOTUwNjE3MjgzOSwxNjUuOTI1OTI1OTI1OTI1OSwwKSIvPjx1c2UgeGxpbms6aHJlZj0iI2FpIiB0cmFuc2Zvcm09Im1hdHJpeCgwLjA2MTcyODM5NTA2MTcyODM5LDAsMCwwLjA2MTcyODM5NTA2MTcyODM5LDE4MC43NDA3NDA3NDA3NDA3LDApIi8+PHVzZSB4bGluazpocmVmPSIjYWkiIHRyYW5zZm9ybT0ibWF0cml4KDAuMDYxNzI4Mzk1MDYxNzI4MzksMCwwLDAuMDYxNzI4Mzk1MDYxNzI4MzksMTk1LjU1NTU1NTU1NTU1NTUxLDApIi8+PHVzZSB4bGluazpocmVmPSIjYXIiIHRyYW5zZm9ybT0ibWF0cml4KDAuMDYxNzI4Mzk1MDYxNzI4MzksMCwwLDAuMDYxNzI4Mzk1MDYxNzI4MzksMjEwLjM3MDM3MDM3MDM3MDMyLDApIi8+PC9nPjxnIGlkPSJMIj48dXNlIHhsaW5rOmhyZWY9IiNhaSIgdHJhbnNmb3JtPSJtYXRyaXgoMC4wNjE3MjgzOTUwNjE3MjgzOSwwLDAsMC4wNjE3MjgzOTUwNjE3MjgzOSwwLDApIi8+PHVzZSB4bGluazpocmVmPSIjYVQiIHRyYW5zZm9ybT0ibWF0cml4KDAuMDYxNzI4Mzk1MDYxNzI4MzksMCwwLDAuMDYxNzI4Mzk1MDYxNzI4MzksMTQuODE0ODE0ODE0ODE0ODEzLDApIi8+PHVzZSB4bGluazpocmVmPSIjYXAiIHRyYW5zZm9ybT0ibWF0cml4KDAuMDYxNzI4Mzk1MDYxNzI4MzksMCwwLDAuMDYxNzI4Mzk1MDYxNzI4MzksMjkuNjI5NjI5NjI5NjI5NjI2LDApIi8+PHVzZSB4bGluazpocmVmPSIjYVYiIHRyYW5zZm9ybT0ibWF0cml4KDAuMDYxNzI4Mzk1MDYxNzI4MzksMCwwLDAuMDYxNzI4Mzk1MDYxNzI4MzksNDUuMTg1MTg1MTg1MTg1MTgsMCkiLz48dXNlIHhsaW5rOmhyZWY9IiNhVCIgdHJhbnNmb3JtPSJtYXRyaXgoMC4wNjE3MjgzOTUwNjE3MjgzOSwwLDAsMC4wNjE3MjgzOTUwNjE3MjgzOSw2MCwwKSIvPjx1c2UgeGxpbms6aHJlZj0iI2FwIiB0cmFuc2Zvcm09Im1hdHJpeCgwLjA2MTcyODM5NTA2MTcyODM5LDAsMCwwLjA2MTcyODM5NTA2MTcyODM5LDc0LjgxNDgxNDgxNDgxNDgxLDApIi8+PHVzZSB4bGluazpocmVmPSIjYVciIHRyYW5zZm9ybT0ibWF0cml4KDAuMDYxNzI4Mzk1MDYxNzI4MzksMCwwLDAuMDYxNzI4Mzk1MDYxNzI4MzksOTAuODAyNDY5MTM1ODAyNDcsMCkiLz48dXNlIHhsaW5rOmhyZWY9IiNhbiIgdHJhbnNmb3JtPSJtYXRyaXgoMC4wNjE3MjgzOTUwNjE3MjgzOSwwLDAsMC4wNjE3MjgzOTUwNjE3MjgzOSwxMDMuMTQ4MTQ4MTQ4MTQ4MTUsMCkiLz48dXNlIHhsaW5rOmhyZWY9IiNhbyIgdHJhbnNmb3JtPSJtYXRyaXgoMC4wNjE3MjgzOTUwNjE3MjgzOSwwLDAsMC4wNjE3MjgzOTUwNjE3MjgzOSwxMTcuOTYyOTYyOTYyOTYyOTYsMCkiLz48dXNlIHhsaW5rOmhyZWY9IiNhcCIgdHJhbnNmb3JtPSJtYXRyaXgoMC4wNjE3MjgzOTUwNjE3MjgzOSwwLDAsMC4wNjE3MjgzOTUwNjE3MjgzOSwxMzUuMjQ2OTEzNTgwMjQ2OSwwKSIvPjx1c2UgeGxpbms6aHJlZj0iI2FxIiB0cmFuc2Zvcm09Im1hdHJpeCgwLjA2MTcyODM5NTA2MTcyODM5LDAsMCwwLjA2MTcyODM5NTA2MTcyODM5LDE1MC44MDI0NjkxMzU4MDI0NSwwKSIvPjx1c2UgeGxpbms6aHJlZj0iI2FyIiB0cmFuc2Zvcm09Im1hdHJpeCgwLjA2MTcyODM5NTA2MTcyODM5LDAsMCwwLjA2MTcyODM5NTA2MTcyODM5LDE2MS44NTE4NTE4NTE4NTE4MiwwKSIvPjwvZz48ZyBpZD0iTSI+PHVzZSB4bGluazpocmVmPSIjYWkiIHRyYW5zZm9ybT0ibWF0cml4KDAuMDYxNzI4Mzk1MDYxNzI4MzksMCwwLDAuMDYxNzI4Mzk1MDYxNzI4MzksMCwwKSIvPjx1c2UgeGxpbms6aHJlZj0iI2F1IiB0cmFuc2Zvcm09Im1hdHJpeCgwLjA2MTcyODM5NTA2MTcyODM5LDAsMCwwLjA2MTcyODM5NTA2MTcyODM5LDE0LjgxNDgxNDgxNDgxNDgxMywwKSIvPjx1c2UgeGxpbms6aHJlZj0iI2FrIiB0cmFuc2Zvcm09Im1hdHJpeCgwLjA2MTcyODM5NTA2MTcyODM5LDAsMCwwLjA2MTcyODM5NTA2MTcyODM5LDIwLjk4NzY1NDMyMDk4NzY1LDApIi8+PHVzZSB4bGluazpocmVmPSIjYXMiIHRyYW5zZm9ybT0ibWF0cml4KDAuMDYxNzI4Mzk1MDYxNzI4MzksMCwwLDAuMDYxNzI4Mzk1MDYxNzI4MzksMjguMzMzMzMzMzMzMzMzMzMsMCkiLz48dXNlIHhsaW5rOmhyZWY9IiNhdCIgdHJhbnNmb3JtPSJtYXRyaXgoMC4wNjE3MjgzOTUwNjE3MjgzOSwwLDAsMC4wNjE3MjgzOTUwNjE3MjgzOSwzMy4yMDk4NzY1NDMyMDk4NywwKSIvPjx1c2UgeGxpbms6aHJlZj0iI2FPIiB0cmFuc2Zvcm09Im1hdHJpeCgwLjA2MTcyODM5NTA2MTcyODM5LDAsMCwwLjA2MTcyODM5NTA2MTcyODM5LDQ1LjU1NTU1NTU1NTU1NTU1LDApIi8+PC9nPjxnIGlkPSJOIj48dXNlIHhsaW5rOmhyZWY9IiNheiIgdHJhbnNmb3JtPSJtYXRyaXgoMC4wNjE3MjgzOTUwNjE3MjgzOSwwLDAsMC4wNjE3MjgzOTUwNjE3MjgzOSwwLDApIi8+PHVzZSB4bGluazpocmVmPSIjYXUiIHRyYW5zZm9ybT0ibWF0cml4KDAuMDYxNzI4Mzk1MDYxNzI4MzksMCwwLDAuMDYxNzI4Mzk1MDYxNzI4MzksMTEuMTExMTExMTExMTExMTEsMCkiLz48dXNlIHhsaW5rOmhyZWY9IiNhQiIgdHJhbnNmb3JtPSJtYXRyaXgoMC4wNjE3MjgzOTUwNjE3MjgzOSwwLDAsMC4wNjE3MjgzOTUwNjE3MjgzOSwxNy4yODM5NTA2MTcyODM5NSwwKSIvPjx1c2UgeGxpbms6aHJlZj0iI2FrIiB0cmFuc2Zvcm09Im1hdHJpeCgwLjA2MTcyODM5NTA2MTcyODM5LDAsMCwwLjA2MTcyODM5NTA2MTcyODM5LDI5LjYyOTYyOTYyOTYyOTYyNiwwKSIvPjx1c2UgeGxpbms6aHJlZj0iI2F1IiB0cmFuc2Zvcm09Im1hdHJpeCgwLjA2MTcyODM5NTA2MTcyODM5LDAsMCwwLjA2MTcyODM5NTA2MTcyODM5LDM2Ljk3NTMwODY0MTk3NTMsMCkiLz48dXNlIHhsaW5rOmhyZWY9IiNhTiIgdHJhbnNmb3JtPSJtYXRyaXgoMC4wNjE3MjgzOTUwNjE3MjgzOSwwLDAsMC4wNjE3MjgzOTUwNjE3MjgzOSw0My4xNDgxNDgxNDgxNDgxNDUsMCkiLz48dXNlIHhsaW5rOmhyZWY9IiNhUCIgdHJhbnNmb3JtPSJtYXRyaXgoMC4wNjE3MjgzOTUwNjE3MjgzOSwwLDAsMC4wNjE3MjgzOTUwNjE3MjgzOSw1MC40OTM4MjcxNjA0OTM4MiwwKSIvPjx1c2UgeGxpbms6aHJlZj0iI2FyIiB0cmFuc2Zvcm09Im1hdHJpeCgwLjA2MTcyODM5NTA2MTcyODM5LDAsMCwwLjA2MTcyODM5NTA2MTcyODM5LDU3LjgzOTUwNjE3MjgzOTUsMCkiLz48L2c+PHBhdGggaWQ9ImFaIiBkPSJNMjY2IDBoLTQwbC01Ni0yMTBMMTE1IDBINzVMMi0yNDhoMzVMOTYtMzBsMTUtNjQgNDMtMTU0aDMybDU5IDIxOCA1OS0yMThoMzUiLz48cGF0aCBpZD0iYmEiIGQ9Ik02OC0zOGMxIDM0IDAgNjUtMTQgODRIMzJjOS0xMyAxNy0yNiAxNy00NkgzM3YtMzhoMzUiLz48ZyBpZD0iTyI+PHVzZSB4bGluazpocmVmPSIjYXUiIHRyYW5zZm9ybT0ibWF0cml4KDAuMDYxNzI4Mzk1MDYxNzI4MzksMCwwLDAuMDYxNzI4Mzk1MDYxNzI4MzksMCwwKSIvPjx1c2UgeGxpbms6aHJlZj0iI2F3IiB0cmFuc2Zvcm09Im1hdHJpeCgwLjA2MTcyODM5NTA2MTcyODM5LDAsMCwwLjA2MTcyODM5NTA2MTcyODM5LDYuMTcyODM5NTA2MTcyODM5LDApIi8+PHVzZSB4bGluazpocmVmPSIjYXMiIHRyYW5zZm9ybT0ibWF0cml4KDAuMDYxNzI4Mzk1MDYxNzI4MzksMCwwLDAuMDYxNzI4Mzk1MDYxNzI4MzksMTguNTE4NTE4NTE4NTE4NTIsMCkiLz48dXNlIHhsaW5rOmhyZWY9IiNhdCIgdHJhbnNmb3JtPSJtYXRyaXgoMC4wNjE3MjgzOTUwNjE3MjgzOSwwLDAsMC4wNjE3MjgzOTUwNjE3MjgzOSwyMy4zOTUwNjE3MjgzOTUwNjMsMCkiLz48dXNlIHhsaW5rOmhyZWY9IiNhRCIgdHJhbnNmb3JtPSJtYXRyaXgoMC4wNjE3MjgzOTUwNjE3MjgzOSwwLDAsMC4wNjE3MjgzOTUwNjE3MjgzOSwzNS43NDA3NDA3NDA3NDA3NCwwKSIvPjx1c2UgeGxpbms6aHJlZj0iI2FOIiB0cmFuc2Zvcm09Im1hdHJpeCgwLjA2MTcyODM5NTA2MTcyODM5LDAsMCwwLjA2MTcyODM5NTA2MTcyODM5LDQ2Ljg1MTg1MTg1MTg1MTg1LDApIi8+PHVzZSB4bGluazpocmVmPSIjYW4iIHRyYW5zZm9ybT0ibWF0cml4KDAuMDYxNzI4Mzk1MDYxNzI4MzksMCwwLDAuMDYxNzI4Mzk1MDYxNzI4MzksNTQuMTk3NTMwODY0MTk3NTI1LDApIi8+PHVzZSB4bGluazpocmVmPSIjYWsiIHRyYW5zZm9ybT0ibWF0cml4KDAuMDYxNzI4Mzk1MDYxNzI4MzksMCwwLDAuMDYxNzI4Mzk1MDYxNzI4MzksNjkuMDEyMzQ1Njc5MDEyMzQsMCkiLz48dXNlIHhsaW5rOmhyZWY9IiNhcyIgdHJhbnNmb3JtPSJtYXRyaXgoMC4wNjE3MjgzOTUwNjE3MjgzOSwwLDAsMC4wNjE3MjgzOTUwNjE3MjgzOSw3Ni4zNTgwMjQ2OTEzNTgwMywwKSIvPjx1c2UgeGxpbms6aHJlZj0iI2F0IiB0cmFuc2Zvcm09Im1hdHJpeCgwLjA2MTcyODM5NTA2MTcyODM5LDAsMCwwLjA2MTcyODM5NTA2MTcyODM5LDgxLjIzNDU2NzkwMTIzNDU3LDApIi8+PHVzZSB4bGluazpocmVmPSIjYXUiIHRyYW5zZm9ybT0ibWF0cml4KDAuMDYxNzI4Mzk1MDYxNzI4MzksMCwwLDAuMDYxNzI4Mzk1MDYxNzI4MzksOTMuNTgwMjQ2OTEzNTgwMjUsMCkiLz48dXNlIHhsaW5rOmhyZWY9IiNhWiIgdHJhbnNmb3JtPSJtYXRyaXgoMC4wNjE3MjgzOTUwNjE3MjgzOSwwLDAsMC4wNjE3MjgzOTUwNjE3MjgzOSw5OS43NTMwODY0MTk3NTMwOSwwKSIvPjx1c2UgeGxpbms6aHJlZj0iI2FrIiB0cmFuc2Zvcm09Im1hdHJpeCgwLjA2MTcyODM5NTA2MTcyODM5LDAsMCwwLjA2MTcyODM5NTA2MTcyODM5LDEyMC4yNDY5MTM1ODAyNDY5MSwwKSIvPjx1c2UgeGxpbms6aHJlZj0iI2FzIiB0cmFuc2Zvcm09Im1hdHJpeCgwLjA2MTcyODM5NTA2MTcyODM5LDAsMCwwLjA2MTcyODM5NTA2MTcyODM5LDEyNy41OTI1OTI1OTI1OTI1OCwwKSIvPjx1c2UgeGxpbms6aHJlZj0iI2F1IiB0cmFuc2Zvcm09Im1hdHJpeCgwLjA2MTcyODM5NTA2MTcyODM5LDAsMCwwLjA2MTcyODM5NTA2MTcyODM5LDEzMi40NjkxMzU4MDI0NjkxNCwwKSIvPjx1c2UgeGxpbms6aHJlZj0iI2FqIiB0cmFuc2Zvcm09Im1hdHJpeCgwLjA2MTcyODM5NTA2MTcyODM5LDAsMCwwLjA2MTcyODM5NTA2MTcyODM5LDEzOC42NDE5NzUzMDg2NDE5NywwKSIvPjx1c2UgeGxpbms6aHJlZj0iI2FrIiB0cmFuc2Zvcm09Im1hdHJpeCgwLjA2MTcyODM5NTA2MTcyODM5LDAsMCwwLjA2MTcyODM5NTA2MTcyODM5LDE1MC45ODc2NTQzMjA5ODc2NCwwKSIvPjx1c2UgeGxpbms6aHJlZj0iI2JhIiB0cmFuc2Zvcm09Im1hdHJpeCgwLjA2MTcyODM5NTA2MTcyODM5LDAsMCwwLjA2MTcyODM5NTA2MTcyODM5LDE1Ny4wOTg3NjU0MzIwOTg3NiwwKSIvPjwvZz48cGF0aCBpZD0iYmIiIGQ9Ik0xNjAtMTMxYzM1IDUgNjEgMjMgNjEgNjFDMjIxIDE3IDExNS0yIDMwIDB2LTI0OGM3NiAzIDE3Ny0xNyAxNzcgNjAgMCAzMy0xOSA1MC00NyA1N3ptLTk3LTExYzUwLTEgMTEwIDkgMTEwLTQyIDAtNDctNjMtMzYtMTEwLTM3djc5em0wIDExNWM1NS0yIDEyNCAxNCAxMjQtNDUgMC01Ni03MC00Mi0xMjQtNDR2ODkiLz48ZyBpZD0iUCI+PHVzZSB4bGluazpocmVmPSIjYmIiIHRyYW5zZm9ybT0ibWF0cml4KDAuMDYxNzI4Mzk1MDYxNzI4MzksMCwwLDAuMDYxNzI4Mzk1MDYxNzI4MzksMCwwKSIvPjx1c2UgeGxpbms6aHJlZj0iI2FSIiB0cmFuc2Zvcm09Im1hdHJpeCgwLjA2MTcyODM5NTA2MTcyODM5LDAsMCwwLjA2MTcyODM5NTA2MTcyODM5LDE0LjgxNDgxNDgxNDgxNDgxMywwKSIvPjx1c2UgeGxpbms6aHJlZj0iI2FDIiB0cmFuc2Zvcm09Im1hdHJpeCgwLjA2MTcyODM5NTA2MTcyODM5LDAsMCwwLjA2MTcyODM5NTA2MTcyODM5LDI3LjE2MDQ5MzgyNzE2MDQ5NCwwKSIvPjx1c2UgeGxpbms6aHJlZj0iI2FDIiB0cmFuc2Zvcm09Im1hdHJpeCgwLjA2MTcyODM5NTA2MTcyODM5LDAsMCwwLjA2MTcyODM5NTA2MTcyODM5LDMyLjkwMTIzNDU2NzkwMTIzNCwwKSIvPjx1c2UgeGxpbms6aHJlZj0iI2FqIiB0cmFuc2Zvcm09Im1hdHJpeCgwLjA2MTcyODM5NTA2MTcyODM5LDAsMCwwLjA2MTcyODM5NTA2MTcyODM5LDM5LjA3NDA3NDA3NDA3NDA3NiwwKSIvPjx1c2UgeGxpbms6aHJlZj0iI2FrIiB0cmFuc2Zvcm09Im1hdHJpeCgwLjA2MTcyODM5NTA2MTcyODM5LDAsMCwwLjA2MTcyODM5NTA2MTcyODM5LDUxLjQxOTc1MzA4NjQxOTc1LDApIi8+PHVzZSB4bGluazpocmVmPSIjYWoiIHRyYW5zZm9ybT0ibWF0cml4KDAuMDYxNzI4Mzk1MDYxNzI4MzksMCwwLDAuMDYxNzI4Mzk1MDYxNzI4MzksNTguNzY1NDMyMDk4NzY1NDMsMCkiLz48dXNlIHhsaW5rOmhyZWY9IiNhSyIgdHJhbnNmb3JtPSJtYXRyaXgoMC4wNjE3MjgzOTUwNjE3MjgzOSwwLDAsMC4wNjE3MjgzOTUwNjE3MjgzOSw3MS4xMTExMTExMTExMTExMSwwKSIvPjx1c2UgeGxpbms6aHJlZj0iI2FwIiB0cmFuc2Zvcm09Im1hdHJpeCgwLjA2MTcyODM5NTA2MTcyODM5LDAsMCwwLjA2MTcyODM5NTA2MTcyODM5LDgzLjQ1Njc5MDEyMzQ1NjgsMCkiLz48dXNlIHhsaW5rOmhyZWY9IiNhaiIgdHJhbnNmb3JtPSJtYXRyaXgoMC4wNjE3MjgzOTUwNjE3MjgzOSwwLDAsMC4wNjE3MjgzOTUwNjE3MjgzOSw5OS40NDQ0NDQ0NDQ0NDQ0NiwwKSIvPjx1c2UgeGxpbms6aHJlZj0iI2FCIiB0cmFuc2Zvcm09Im1hdHJpeCgwLjA2MTcyODM5NTA2MTcyODM5LDAsMCwwLjA2MTcyODM5NTA2MTcyODM5LDExMS43OTAxMjM0NTY3OTAxNCwwKSIvPjx1c2UgeGxpbms6aHJlZj0iI2FLIiB0cmFuc2Zvcm09Im1hdHJpeCgwLjA2MTcyODM5NTA2MTcyODM5LDAsMCwwLjA2MTcyODM5NTA2MTcyODM5LDEyNC4xMzU4MDI0NjkxMzU4MywwKSIvPjx1c2UgeGxpbms6aHJlZj0iI2FqIiB0cmFuc2Zvcm09Im1hdHJpeCgwLjA2MTcyODM5NTA2MTcyODM5LDAsMCwwLjA2MTcyODM5NTA2MTcyODM5LDEzNi40ODE0ODE0ODE0ODE1LDApIi8+PHVzZSB4bGluazpocmVmPSIjYWsiIHRyYW5zZm9ybT0ibWF0cml4KDAuMDYxNzI4Mzk1MDYxNzI4MzksMCwwLDAuMDYxNzI4Mzk1MDYxNzI4MzksMTQ4LjgyNzE2MDQ5MzgyNzE3LDApIi8+PHVzZSB4bGluazpocmVmPSIjYmEiIHRyYW5zZm9ybT0ibWF0cml4KDAuMDYxNzI4Mzk1MDYxNzI4MzksMCwwLDAuMDYxNzI4Mzk1MDYxNzI4MzksMTU0LjkzODI3MTYwNDkzODI4LDApIi8+PC9nPjxnIGlkPSJRIj48dXNlIHhsaW5rOmhyZWY9IiNhcCIgdHJhbnNmb3JtPSJtYXRyaXgoMC4wNjE3MjgzOTUwNjE3MjgzOSwwLDAsMC4wNjE3MjgzOTUwNjE3MjgzOSwwLDApIi8+PHVzZSB4bGluazpocmVmPSIjYUIiIHRyYW5zZm9ybT0ibWF0cml4KDAuMDYxNzI4Mzk1MDYxNzI4MzksMCwwLDAuMDYxNzI4Mzk1MDYxNzI4MzksMTUuOTg3NjU0MzIwOTg3NjUzLDApIi8+PHVzZSB4bGluazpocmVmPSIjYXQiIHRyYW5zZm9ybT0ibWF0cml4KDAuMDYxNzI4Mzk1MDYxNzI4MzksMCwwLDAuMDYxNzI4Mzk1MDYxNzI4MzksMjguMzMzMzMzMzMzMzMzMzMyLDApIi8+PHVzZSB4bGluazpocmVmPSIjYUsiIHRyYW5zZm9ybT0ibWF0cml4KDAuMDYxNzI4Mzk1MDYxNzI4MzksMCwwLDAuMDYxNzI4Mzk1MDYxNzI4MzksNDAuNjc5MDEyMzQ1Njc5MDEsMCkiLz48dXNlIHhsaW5rOmhyZWY9IiNheSIgdHJhbnNmb3JtPSJtYXRyaXgoMC4wNjE3MjgzOTUwNjE3MjgzOSwwLDAsMC4wNjE3MjgzOTUwNjE3MjgzOSw1My4wMjQ2OTEzNTgwMjQ2OSwwKSIvPjx1c2UgeGxpbms6aHJlZj0iI2FNIiB0cmFuc2Zvcm09Im1hdHJpeCgwLjA2MTcyODM5NTA2MTcyODM5LDAsMCwwLjA2MTcyODM5NTA2MTcyODM5LDY1LjM3MDM3MDM3MDM3MDM3LDApIi8+PHVzZSB4bGluazpocmVmPSIjYVAiIHRyYW5zZm9ybT0ibWF0cml4KDAuMDYxNzI4Mzk1MDYxNzI4MzksMCwwLDAuMDYxNzI4Mzk1MDYxNzI4MzksODMuODI3MTYwNDkzODI3MTUsMCkiLz48dXNlIHhsaW5rOmhyZWY9IiNhciIgdHJhbnNmb3JtPSJtYXRyaXgoMC4wNjE3MjgzOTUwNjE3MjgzOSwwLDAsMC4wNjE3MjgzOTUwNjE3MjgzOSw5MS4xNzI4Mzk1MDYxNzI4MywwKSIvPjwvZz48ZyBpZD0iUiI+PHVzZSB4bGluazpocmVmPSIjYWsiIHRyYW5zZm9ybT0ibWF0cml4KDAuMDYxNzI4Mzk1MDYxNzI4MzksMCwwLDAuMDYxNzI4Mzk1MDYxNzI4MzksMCwwKSIvPjx1c2UgeGxpbms6aHJlZj0iI2FqIiB0cmFuc2Zvcm09Im1hdHJpeCgwLjA2MTcyODM5NTA2MTcyODM5LDAsMCwwLjA2MTcyODM5NTA2MTcyODM5LDcuMzQ1Njc5MDEyMzQ1Njc5LDApIi8+PHVzZSB4bGluazpocmVmPSIjYVMiIHRyYW5zZm9ybT0ibWF0cml4KDAuMDYxNzI4Mzk1MDYxNzI4MzksMCwwLDAuMDYxNzI4Mzk1MDYxNzI4MzksMTkuNjkxMzU4MDI0NjkxMzU4LDApIi8+PHVzZSB4bGluazpocmVmPSIjYVIiIHRyYW5zZm9ybT0ibWF0cml4KDAuMDYxNzI4Mzk1MDYxNzI4MzksMCwwLDAuMDYxNzI4Mzk1MDYxNzI4MzksMzIuMDM3MDM3MDM3MDM3MDQsMCkiLz48dXNlIHhsaW5rOmhyZWY9IiNhaiIgdHJhbnNmb3JtPSJtYXRyaXgoMC4wNjE3MjgzOTUwNjE3MjgzOSwwLDAsMC4wNjE3MjgzOTUwNjE3MjgzOSw0NC4zODI3MTYwNDkzODI3MTUsMCkiLz48dXNlIHhsaW5rOmhyZWY9IiNheiIgdHJhbnNmb3JtPSJtYXRyaXgoMC4wNjE3MjgzOTUwNjE3MjgzOSwwLDAsMC4wNjE3MjgzOTUwNjE3MjgzOSw1Ni43MjgzOTUwNjE3MjgzOSwwKSIvPjx1c2UgeGxpbms6aHJlZj0iI2F1IiB0cmFuc2Zvcm09Im1hdHJpeCgwLjA2MTcyODM5NTA2MTcyODM5LDAsMCwwLjA2MTcyODM5NTA2MTcyODM5LDY3LjgzOTUwNjE3MjgzOTUsMCkiLz48dXNlIHhsaW5rOmhyZWY9IiNhRSIgdHJhbnNmb3JtPSJtYXRyaXgoMC4wNjE3MjgzOTUwNjE3MjgzOSwwLDAsMC4wNjE3MjgzOTUwNjE3MjgzOSw3NC4wMTIzNDU2NzkwMTIzNCwwKSIvPjx1c2UgeGxpbms6aHJlZj0iI2F5IiB0cmFuc2Zvcm09Im1hdHJpeCgwLjA2MTcyODM5NTA2MTcyODM5LDAsMCwwLjA2MTcyODM5NTA2MTcyODM5LDg3LjUzMDg2NDE5NzUzMDg2LDApIi8+PHVzZSB4bGluazpocmVmPSIjYWsiIHRyYW5zZm9ybT0ibWF0cml4KDAuMDYxNzI4Mzk1MDYxNzI4MzksMCwwLDAuMDYxNzI4Mzk1MDYxNzI4MzksOTkuODc2NTQzMjA5ODc2NTQsMCkiLz48dXNlIHhsaW5rOmhyZWY9IiNhRCIgdHJhbnNmb3JtPSJtYXRyaXgoMC4wNjE3MjgzOTUwNjE3MjgzOSwwLDAsMC4wNjE3MjgzOTUwNjE3MjgzOSwxMDcuMjIyMjIyMjIyMjIyMjMsMCkiLz48dXNlIHhsaW5rOmhyZWY9IiNhTiIgdHJhbnNmb3JtPSJtYXRyaXgoMC4wNjE3MjgzOTUwNjE3MjgzOSwwLDAsMC4wNjE3MjgzOTUwNjE3MjgzOSwxMTguMzMzMzMzMzMzMzMzMzQsMCkiLz48dXNlIHhsaW5rOmhyZWY9IiNhbiIgdHJhbnNmb3JtPSJtYXRyaXgoMC4wNjE3MjgzOTUwNjE3MjgzOSwwLDAsMC4wNjE3MjgzOTUwNjE3MjgzOSwxMjUuNjc5MDEyMzQ1Njc5MDMsMCkiLz48dXNlIHhsaW5rOmhyZWY9IiNhayIgdHJhbnNmb3JtPSJtYXRyaXgoMC4wNjE3MjgzOTUwNjE3MjgzOSwwLDAsMC4wNjE3MjgzOTUwNjE3MjgzOSwxNDAuNDkzODI3MTYwNDkzODUsMCkiLz48dXNlIHhsaW5rOmhyZWY9IiNhcyIgdHJhbnNmb3JtPSJtYXRyaXgoMC4wNjE3MjgzOTUwNjE3MjgzOSwwLDAsMC4wNjE3MjgzOTUwNjE3MjgzOSwxNDcuODM5NTA2MTcyODM5NTIsMCkiLz48dXNlIHhsaW5rOmhyZWY9IiNhdCIgdHJhbnNmb3JtPSJtYXRyaXgoMC4wNjE3MjgzOTUwNjE3MjgzOSwwLDAsMC4wNjE3MjgzOTUwNjE3MjgzOSwxNTIuNzE2MDQ5MzgyNzE2MDUsMCkiLz48dXNlIHhsaW5rOmhyZWY9IiNhdSIgdHJhbnNmb3JtPSJtYXRyaXgoMC4wNjE3MjgzOTUwNjE3MjgzOSwwLDAsMC4wNjE3MjgzOTUwNjE3MjgzOSwxNjUuMDYxNzI4Mzk1MDYxNzIsMCkiLz48dXNlIHhsaW5rOmhyZWY9IiNhWiIgdHJhbnNmb3JtPSJtYXRyaXgoMC4wNjE3MjgzOTUwNjE3MjgzOSwwLDAsMC4wNjE3MjgzOTUwNjE3MjgzOSwxNzEuMjM0NTY3OTAxMjM0NTYsMCkiLz48dXNlIHhsaW5rOmhyZWY9IiNhayIgdHJhbnNmb3JtPSJtYXRyaXgoMC4wNjE3MjgzOTUwNjE3MjgzOSwwLDAsMC4wNjE3MjgzOTUwNjE3MjgzOSwxOTEuNzI4Mzk1MDYxNzI4MzgsMCkiLz48dXNlIHhsaW5rOmhyZWY9IiNhcyIgdHJhbnNmb3JtPSJtYXRyaXgoMC4wNjE3MjgzOTUwNjE3MjgzOSwwLDAsMC4wNjE3MjgzOTUwNjE3MjgzOSwxOTkuMDc0MDc0MDc0MDc0MDUsMCkiLz48dXNlIHhsaW5rOmhyZWY9IiNhdSIgdHJhbnNmb3JtPSJtYXRyaXgoMC4wNjE3MjgzOTUwNjE3MjgzOSwwLDAsMC4wNjE3MjgzOTUwNjE3MjgzOSwyMDMuOTUwNjE3MjgzOTUwNTgsMCkiLz48dXNlIHhsaW5rOmhyZWY9IiNhaiIgdHJhbnNmb3JtPSJtYXRyaXgoMC4wNjE3MjgzOTUwNjE3MjgzOSwwLDAsMC4wNjE3MjgzOTUwNjE3MjgzOSwyMTAuMTIzNDU2NzkwMTIzNCwwKSIvPjx1c2UgeGxpbms6aHJlZj0iI2FrIiB0cmFuc2Zvcm09Im1hdHJpeCgwLjA2MTcyODM5NTA2MTcyODM5LDAsMCwwLjA2MTcyODM5NTA2MTcyODM5LDIyMi40NjkxMzU4MDI0NjkwOCwwKSIvPjx1c2UgeGxpbms6aHJlZj0iI2JhIiB0cmFuc2Zvcm09Im1hdHJpeCgwLjA2MTcyODM5NTA2MTcyODM5LDAsMCwwLjA2MTcyODM5NTA2MTcyODM5LDIyOC41ODAyNDY5MTM1ODAyLDApIi8+PC9nPjxnIGlkPSJTIj48dXNlIHhsaW5rOmhyZWY9IiNiYiIgdHJhbnNmb3JtPSJtYXRyaXgoMC4wNjE3MjgzOTUwNjE3MjgzOSwwLDAsMC4wNjE3MjgzOTUwNjE3MjgzOSwwLDApIi8+PHVzZSB4bGluazpocmVmPSIjYVIiIHRyYW5zZm9ybT0ibWF0cml4KDAuMDYxNzI4Mzk1MDYxNzI4MzksMCwwLDAuMDYxNzI4Mzk1MDYxNzI4MzksMTQuODE0ODE0ODE0ODE0ODEzLDApIi8+PHVzZSB4bGluazpocmVmPSIjYUMiIHRyYW5zZm9ybT0ibWF0cml4KDAuMDYxNzI4Mzk1MDYxNzI4MzksMCwwLDAuMDYxNzI4Mzk1MDYxNzI4MzksMjcuMTYwNDkzODI3MTYwNDk0LDApIi8+PHVzZSB4bGluazpocmVmPSIjYUMiIHRyYW5zZm9ybT0ibWF0cml4KDAuMDYxNzI4Mzk1MDYxNzI4MzksMCwwLDAuMDYxNzI4Mzk1MDYxNzI4MzksMzIuOTAxMjM0NTY3OTAxMjM0LDApIi8+PHVzZSB4bGluazpocmVmPSIjYWoiIHRyYW5zZm9ybT0ibWF0cml4KDAuMDYxNzI4Mzk1MDYxNzI4MzksMCwwLDAuMDYxNzI4Mzk1MDYxNzI4MzksMzkuMDc0MDc0MDc0MDc0MDc2LDApIi8+PHVzZSB4bGluazpocmVmPSIjYWsiIHRyYW5zZm9ybT0ibWF0cml4KDAuMDYxNzI4Mzk1MDYxNzI4MzksMCwwLDAuMDYxNzI4Mzk1MDYxNzI4MzksNTEuNDE5NzUzMDg2NDE5NzUsMCkiLz48dXNlIHhsaW5rOmhyZWY9IiNhaiIgdHJhbnNmb3JtPSJtYXRyaXgoMC4wNjE3MjgzOTUwNjE3MjgzOSwwLDAsMC4wNjE3MjgzOTUwNjE3MjgzOSw1OC43NjU0MzIwOTg3NjU0MywwKSIvPjx1c2UgeGxpbms6aHJlZj0iI2FLIiB0cmFuc2Zvcm09Im1hdHJpeCgwLjA2MTcyODM5NTA2MTcyODM5LDAsMCwwLjA2MTcyODM5NTA2MTcyODM5LDcxLjExMTExMTExMTExMTExLDApIi8+PHVzZSB4bGluazpocmVmPSIjYXAiIHRyYW5zZm9ybT0ibWF0cml4KDAuMDYxNzI4Mzk1MDYxNzI4MzksMCwwLDAuMDYxNzI4Mzk1MDYxNzI4MzksODMuNDU2NzkwMTIzNDU2OCwwKSIvPjx1c2UgeGxpbms6aHJlZj0iI2FqIiB0cmFuc2Zvcm09Im1hdHJpeCgwLjA2MTcyODM5NTA2MTcyODM5LDAsMCwwLjA2MTcyODM5NTA2MTcyODM5LDk5LjQ0NDQ0NDQ0NDQ0NDQ2LDApIi8+PHVzZSB4bGluazpocmVmPSIjYUIiIHRyYW5zZm9ybT0ibWF0cml4KDAuMDYxNzI4Mzk1MDYxNzI4MzksMCwwLDAuMDYxNzI4Mzk1MDYxNzI4MzksMTExLjc5MDEyMzQ1Njc5MDE0LDApIi8+PHVzZSB4bGluazpocmVmPSIjYUsiIHRyYW5zZm9ybT0ibWF0cml4KDAuMDYxNzI4Mzk1MDYxNzI4MzksMCwwLDAuMDYxNzI4Mzk1MDYxNzI4MzksMTI0LjEzNTgwMjQ2OTEzNTgzLDApIi8+PHVzZSB4bGluazpocmVmPSIjYWoiIHRyYW5zZm9ybT0ibWF0cml4KDAuMDYxNzI4Mzk1MDYxNzI4MzksMCwwLDAuMDYxNzI4Mzk1MDYxNzI4MzksMTM2LjQ4MTQ4MTQ4MTQ4MTUsMCkiLz48dXNlIHhsaW5rOmhyZWY9IiNhayIgdHJhbnNmb3JtPSJtYXRyaXgoMC4wNjE3MjgzOTUwNjE3MjgzOSwwLDAsMC4wNjE3MjgzOTUwNjE3MjgzOSwxNDguODI3MTYwNDkzODI3MTcsMCkiLz48dXNlIHhsaW5rOmhyZWY9IiNhUCIgdHJhbnNmb3JtPSJtYXRyaXgoMC4wNjE3MjgzOTUwNjE3MjgzOSwwLDAsMC4wNjE3MjgzOTUwNjE3MjgzOSwxNTYuMTcyODM5NTA2MTcyODMsMCkiLz48dXNlIHhsaW5rOmhyZWY9IiNhciIgdHJhbnNmb3JtPSJtYXRyaXgoMC4wNjE3MjgzOTUwNjE3MjgzOSwwLDAsMC4wNjE3MjgzOTUwNjE3MjgzOSwxNjMuNTE4NTE4NTE4NTE4NSwwKSIvPjwvZz48cGF0aCBpZD0iYmMiIGQ9Ik0xMTUtMTk0YzUzIDAgNjkgMzkgNzAgOTggMCA2Ni0yMyAxMDAtNzAgMTAwQzg0IDMgNjYtNyA1Ni0zMEw1NCAwSDIzbDEtMjYxaDMydjEwMWMxMC0yMyAyOC0zNCA1OS0zNHptLTggMTc0YzQwIDAgNDUtMzQgNDUtNzUgMC00MC01LTc1LTQ1LTc0LTQyIDAtNTEgMzItNTEgNzYgMCA0MyAxMCA3MyA1MSA3MyIvPjxnIGlkPSJUIj48dXNlIHhsaW5rOmhyZWY9IiNiYyIgdHJhbnNmb3JtPSJtYXRyaXgoMC4wNjE3MjgzOTUwNjE3MjgzOSwwLDAsMC4wNjE3MjgzOTUwNjE3MjgzOSwwLDApIi8+PHVzZSB4bGluazpocmVmPSIjYXkiIHRyYW5zZm9ybT0ibWF0cml4KDAuMDYxNzI4Mzk1MDYxNzI4MzksMCwwLDAuMDYxNzI4Mzk1MDYxNzI4MzksMTIuMzQ1Njc5MDEyMzQ1Njc5LDApIi8+PHVzZSB4bGluazpocmVmPSIjYXkiIHRyYW5zZm9ybT0ibWF0cml4KDAuMDYxNzI4Mzk1MDYxNzI4MzksMCwwLDAuMDYxNzI4Mzk1MDYxNzI4MzksMjQuNjkxMzU4MDI0NjkxMzU4LDApIi8+PHVzZSB4bGluazpocmVmPSIjYXgiIHRyYW5zZm9ybT0ibWF0cml4KDAuMDYxNzI4Mzk1MDYxNzI4MzksMCwwLDAuMDYxNzI4Mzk1MDYxNzI4MzksMzcuMDM3MDM3MDM3MDM3MDQsMCkiLz48dXNlIHhsaW5rOmhyZWY9IiNhaiIgdHJhbnNmb3JtPSJtYXRyaXgoMC4wNjE3MjgzOTUwNjE3MjgzOSwwLDAsMC4wNjE3MjgzOTUwNjE3MjgzOSw0MS45MTM1ODAyNDY5MTM1OCwwKSIvPjx1c2UgeGxpbms6aHJlZj0iI2FCIiB0cmFuc2Zvcm09Im1hdHJpeCgwLjA2MTcyODM5NTA2MTcyODM5LDAsMCwwLjA2MTcyODM5NTA2MTcyODM5LDU0LjI1OTI1OTI1OTI1OTI2LDApIi8+PHVzZSB4bGluazpocmVmPSIjYXQiIHRyYW5zZm9ybT0ibWF0cml4KDAuMDYxNzI4Mzk1MDYxNzI4MzksMCwwLDAuMDYxNzI4Mzk1MDYxNzI4MzksNjYuNjA0OTM4MjcxNjA0OTQsMCkiLz48L2c+PGcgaWQ9IlUiPjx1c2UgeGxpbms6aHJlZj0iI2FqIiB0cmFuc2Zvcm09Im1hdHJpeCgwLjA2MTcyODM5NTA2MTcyODM5LDAsMCwwLjA2MTcyODM5NTA2MTcyODM5LDAsMCkiLz48dXNlIHhsaW5rOmhyZWY9IiNhQiIgdHJhbnNmb3JtPSJtYXRyaXgoMC4wNjE3MjgzOTUwNjE3MjgzOSwwLDAsMC4wNjE3MjgzOTUwNjE3MjgzOSwxMi4zNDU2NzkwMTIzNDU2NzksMCkiLz48dXNlIHhsaW5rOmhyZWY9IiNhdSIgdHJhbnNmb3JtPSJtYXRyaXgoMC4wNjE3MjgzOTUwNjE3MjgzOSwwLDAsMC4wNjE3MjgzOTUwNjE3MjgzOSwyNC42OTEzNTgwMjQ2OTEzNTgsMCkiLz48dXNlIHhsaW5rOmhyZWY9IiNhTiIgdHJhbnNmb3JtPSJtYXRyaXgoMC4wNjE3MjgzOTUwNjE3MjgzOSwwLDAsMC4wNjE3MjgzOTUwNjE3MjgzOSwzMC44NjQxOTc1MzA4NjQxOTYsMCkiLz48dXNlIHhsaW5rOmhyZWY9IiNhbiIgdHJhbnNmb3JtPSJtYXRyaXgoMC4wNjE3MjgzOTUwNjE3MjgzOSwwLDAsMC4wNjE3MjgzOTUwNjE3MjgzOSwzOC4yMDk4NzY1NDMyMDk4NywwKSIvPjx1c2UgeGxpbms6aHJlZj0iI2FrIiB0cmFuc2Zvcm09Im1hdHJpeCgwLjA2MTcyODM5NTA2MTcyODM5LDAsMCwwLjA2MTcyODM5NTA2MTcyODM5LDUzLjAyNDY5MTM1ODAyNDY4LDApIi8+PHVzZSB4bGluazpocmVmPSIjYXMiIHRyYW5zZm9ybT0ibWF0cml4KDAuMDYxNzI4Mzk1MDYxNzI4MzksMCwwLDAuMDYxNzI4Mzk1MDYxNzI4MzksNjAuMzcwMzcwMzcwMzcwMzYsMCkiLz48dXNlIHhsaW5rOmhyZWY9IiNhdCIgdHJhbnNmb3JtPSJtYXRyaXgoMC4wNjE3MjgzOTUwNjE3MjgzOSwwLDAsMC4wNjE3MjgzOTUwNjE3MjgzOSw2NS4yNDY5MTM1ODAyNDY5LDApIi8+PHVzZSB4bGluazpocmVmPSIjYXUiIHRyYW5zZm9ybT0ibWF0cml4KDAuMDYxNzI4Mzk1MDYxNzI4MzksMCwwLDAuMDYxNzI4Mzk1MDYxNzI4MzksNzcuNTkyNTkyNTkyNTkyNTgsMCkiLz48dXNlIHhsaW5rOmhyZWY9IiNhWiIgdHJhbnNmb3JtPSJtYXRyaXgoMC4wNjE3MjgzOTUwNjE3MjgzOSwwLDAsMC4wNjE3MjgzOTUwNjE3MjgzOSw4My43NjU0MzIwOTg3NjU0MiwwKSIvPjx1c2UgeGxpbms6aHJlZj0iI2FrIiB0cmFuc2Zvcm09Im1hdHJpeCgwLjA2MTcyODM5NTA2MTcyODM5LDAsMCwwLjA2MTcyODM5NTA2MTcyODM5LDEwNC4yNTkyNTkyNTkyNTkyNCwwKSIvPjx1c2UgeGxpbms6aHJlZj0iI2FzIiB0cmFuc2Zvcm09Im1hdHJpeCgwLjA2MTcyODM5NTA2MTcyODM5LDAsMCwwLjA2MTcyODM5NTA2MTcyODM5LDExMS42MDQ5MzgyNzE2MDQ5MiwwKSIvPjx1c2UgeGxpbms6aHJlZj0iI2F1IiB0cmFuc2Zvcm09Im1hdHJpeCgwLjA2MTcyODM5NTA2MTcyODM5LDAsMCwwLjA2MTcyODM5NTA2MTcyODM5LDExNi40ODE0ODE0ODE0ODE0NywwKSIvPjx1c2UgeGxpbms6aHJlZj0iI2FqIiB0cmFuc2Zvcm09Im1hdHJpeCgwLjA2MTcyODM5NTA2MTcyODM5LDAsMCwwLjA2MTcyODM5NTA2MTcyODM5LDEyMi42NTQzMjA5ODc2NTQzLDApIi8+PHVzZSB4bGluazpocmVmPSIjYWsiIHRyYW5zZm9ybT0ibWF0cml4KDAuMDYxNzI4Mzk1MDYxNzI4MzksMCwwLDAuMDYxNzI4Mzk1MDYxNzI4MzksMTM0Ljk5OTk5OTk5OTk5OTk3LDApIi8+PHVzZSB4bGluazpocmVmPSIjYmEiIHRyYW5zZm9ybT0ibWF0cml4KDAuMDYxNzI4Mzk1MDYxNzI4MzksMCwwLDAuMDYxNzI4Mzk1MDYxNzI4MzksMTQxLjExMTExMTExMTExMTEsMCkiLz48L2c+PGcgaWQ9IlYiPjx1c2UgeGxpbms6aHJlZj0iI2FrIiB0cmFuc2Zvcm09Im1hdHJpeCgwLjA2MTcyODM5NTA2MTcyODM5LDAsMCwwLjA2MTcyODM5NTA2MTcyODM5LDAsMCkiLz48dXNlIHhsaW5rOmhyZWY9IiNhaiIgdHJhbnNmb3JtPSJtYXRyaXgoMC4wNjE3MjgzOTUwNjE3MjgzOSwwLDAsMC4wNjE3MjgzOTUwNjE3MjgzOSw3LjM0NTY3OTAxMjM0NTY3OSwwKSIvPjx1c2UgeGxpbms6aHJlZj0iI2F4IiB0cmFuc2Zvcm09Im1hdHJpeCgwLjA2MTcyODM5NTA2MTcyODM5LDAsMCwwLjA2MTcyODM5NTA2MTcyODM5LDE5LjY5MTM1ODAyNDY5MTM1OCwwKSIvPjx1c2UgeGxpbms6aHJlZj0iI2FqIiB0cmFuc2Zvcm09Im1hdHJpeCgwLjA2MTcyODM5NTA2MTcyODM5LDAsMCwwLjA2MTcyODM5NTA2MTcyODM5LDI0LjU2NzkwMTIzNDU2NzksMCkiLz48dXNlIHhsaW5rOmhyZWY9IiNhQiIgdHJhbnNmb3JtPSJtYXRyaXgoMC4wNjE3MjgzOTUwNjE3MjgzOSwwLDAsMC4wNjE3MjgzOTUwNjE3MjgzOSwzNi45MTM1ODAyNDY5MTM1NzUsMCkiLz48dXNlIHhsaW5rOmhyZWY9IiNheiIgdHJhbnNmb3JtPSJtYXRyaXgoMC4wNjE3MjgzOTUwNjE3MjgzOSwwLDAsMC4wNjE3MjgzOTUwNjE3MjgzOSw0OS4yNTkyNTkyNTkyNTkyNSwwKSIvPjx1c2UgeGxpbms6aHJlZj0iI2FqIiB0cmFuc2Zvcm09Im1hdHJpeCgwLjA2MTcyODM5NTA2MTcyODM5LDAsMCwwLjA2MTcyODM5NTA2MTcyODM5LDYwLjM3MDM3MDM3MDM3MDM3LDApIi8+PHVzZSB4bGluazpocmVmPSIjYUUiIHRyYW5zZm9ybT0ibWF0cml4KDAuMDYxNzI4Mzk1MDYxNzI4MzksMCwwLDAuMDYxNzI4Mzk1MDYxNzI4MzksNzIuNzE2MDQ5MzgyNzE2MDUsMCkiLz48dXNlIHhsaW5rOmhyZWY9IiNheSIgdHJhbnNmb3JtPSJtYXRyaXgoMC4wNjE3MjgzOTUwNjE3MjgzOSwwLDAsMC4wNjE3MjgzOTUwNjE3MjgzOSw4Ni4yMzQ1Njc5MDEyMzQ1NywwKSIvPjx1c2UgeGxpbms6aHJlZj0iI2FrIiB0cmFuc2Zvcm09Im1hdHJpeCgwLjA2MTcyODM5NTA2MTcyODM5LDAsMCwwLjA2MTcyODM5NTA2MTcyODM5LDk4LjU4MDI0NjkxMzU4MDI1LDApIi8+PHVzZSB4bGluazpocmVmPSIjYUQiIHRyYW5zZm9ybT0ibWF0cml4KDAuMDYxNzI4Mzk1MDYxNzI4MzksMCwwLDAuMDYxNzI4Mzk1MDYxNzI4MzksMTA1LjkyNTkyNTkyNTkyNTk0LDApIi8+PHVzZSB4bGluazpocmVmPSIjYU4iIHRyYW5zZm9ybT0ibWF0cml4KDAuMDYxNzI4Mzk1MDYxNzI4MzksMCwwLDAuMDYxNzI4Mzk1MDYxNzI4MzksMTE3LjAzNzAzNzAzNzAzNzA1LDApIi8+PHVzZSB4bGluazpocmVmPSIjYW4iIHRyYW5zZm9ybT0ibWF0cml4KDAuMDYxNzI4Mzk1MDYxNzI4MzksMCwwLDAuMDYxNzI4Mzk1MDYxNzI4MzksMTI0LjM4MjcxNjA0OTM4Mjc0LDApIi8+PHVzZSB4bGluazpocmVmPSIjYWsiIHRyYW5zZm9ybT0ibWF0cml4KDAuMDYxNzI4Mzk1MDYxNzI4MzksMCwwLDAuMDYxNzI4Mzk1MDYxNzI4MzksMTM5LjE5NzUzMDg2NDE5NzU1LDApIi8+PHVzZSB4bGluazpocmVmPSIjYXMiIHRyYW5zZm9ybT0ibWF0cml4KDAuMDYxNzI4Mzk1MDYxNzI4MzksMCwwLDAuMDYxNzI4Mzk1MDYxNzI4MzksMTQ2LjU0MzIwOTg3NjU0MzIyLDApIi8+PHVzZSB4bGluazpocmVmPSIjYXQiIHRyYW5zZm9ybT0ibWF0cml4KDAuMDYxNzI4Mzk1MDYxNzI4MzksMCwwLDAuMDYxNzI4Mzk1MDYxNzI4MzksMTUxLjQxOTc1MzA4NjQxOTc1LDApIi8+PHVzZSB4bGluazpocmVmPSIjYXUiIHRyYW5zZm9ybT0ibWF0cml4KDAuMDYxNzI4Mzk1MDYxNzI4MzksMCwwLDAuMDYxNzI4Mzk1MDYxNzI4MzksMTYzLjc2NTQzMjA5ODc2NTQyLDApIi8+PHVzZSB4bGluazpocmVmPSIjYVoiIHRyYW5zZm9ybT0ibWF0cml4KDAuMDYxNzI4Mzk1MDYxNzI4MzksMCwwLDAuMDYxNzI4Mzk1MDYxNzI4MzksMTY5LjkzODI3MTYwNDkzODI1LDApIi8+PHVzZSB4bGluazpocmVmPSIjYWsiIHRyYW5zZm9ybT0ibWF0cml4KDAuMDYxNzI4Mzk1MDYxNzI4MzksMCwwLDAuMDYxNzI4Mzk1MDYxNzI4MzksMTkwLjQzMjA5ODc2NTQzMjA3LDApIi8+PHVzZSB4bGluazpocmVmPSIjYXMiIHRyYW5zZm9ybT0ibWF0cml4KDAuMDYxNzI4Mzk1MDYxNzI4MzksMCwwLDAuMDYxNzI4Mzk1MDYxNzI4MzksMTk3Ljc3Nzc3Nzc3Nzc3Nzc0LDApIi8+PHVzZSB4bGluazpocmVmPSIjYXUiIHRyYW5zZm9ybT0ibWF0cml4KDAuMDYxNzI4Mzk1MDYxNzI4MzksMCwwLDAuMDYxNzI4Mzk1MDYxNzI4MzksMjAyLjY1NDMyMDk4NzY1NDI3LDApIi8+PHVzZSB4bGluazpocmVmPSIjYWoiIHRyYW5zZm9ybT0ibWF0cml4KDAuMDYxNzI4Mzk1MDYxNzI4MzksMCwwLDAuMDYxNzI4Mzk1MDYxNzI4MzksMjA4LjgyNzE2MDQ5MzgyNzEsMCkiLz48dXNlIHhsaW5rOmhyZWY9IiNhayIgdHJhbnNmb3JtPSJtYXRyaXgoMC4wNjE3MjgzOTUwNjE3MjgzOSwwLDAsMC4wNjE3MjgzOTUwNjE3MjgzOSwyMjEuMTcyODM5NTA2MTcyNzgsMCkiLz48dXNlIHhsaW5rOmhyZWY9IiNiYSIgdHJhbnNmb3JtPSJtYXRyaXgoMC4wNjE3MjgzOTUwNjE3MjgzOSwwLDAsMC4wNjE3MjgzOTUwNjE3MjgzOSwyMjcuMjgzOTUwNjE3MjgzOSwwKSIvPjwvZz48cGF0aCBpZD0iYmQiIGQ9Ik0yMjAtMTU3Yy01MyA5LTI4IDEwMC0zNCAxNTdoLTQ5di0xMDdjMS0yNy01LTQ5LTI5LTUwQzU1LTE0NyA4MS01NyA3NSAwSDI1bC0xLTE5MGg0N2MyIDEyLTEgMjggMyAzOCAxMC01MyAxMDEtNTYgMTA4IDAgMTMtMjIgMjQtNDMgNTktNDIgODIgMSA1MSAxMTYgNTcgMTk0aC00OXYtMTA3Yy0xLTI1LTUtNDgtMjktNTAiLz48cGF0aCBpZD0iYmUiIGQ9Ik0xMzMtMzRDMTE3LTE1IDEwMyA1IDY5IDQgMzIgMyAxMS0xNiAxMS01NGMtMS02MCA1NS02MyAxMTYtNjEgMS0yNi0zLTQ3LTI4LTQ3LTE4IDEtMjYgOS0yOCAyN2wtNTItMmM3LTM4IDM2LTU4IDgyLTU3czc0IDIyIDc1IDY4bDEgODJjLTEgMTQgMTIgMTggMjUgMTV2MjdjLTMwIDgtNzEgNS02OS0zMnptLTQ4IDNjMjkgMCA0My0yNCA0Mi01Ny0zMiAwLTY2LTMtNjUgMzAgMCAxNyA4IDI3IDIzIDI3Ii8+PHBhdGggaWQ9ImJmIiBkPSJNMTM1LTE5NGM4Ny0xIDU4IDExMyA2MyAxOTRoLTUwYy03LTU3IDIzLTE1Ny0zNC0xNTctNTkgMC0zNCA5Ny0zOSAxNTdIMjVsLTEtMTkwaDQ3YzIgMTItMSAyOCAzIDM4IDEyLTI2IDI4LTQxIDYxLTQyIi8+PHBhdGggaWQ9ImJnIiBkPSJNMTk1LTZDMjA2IDgyIDc1IDEwMCAzMSA0NmMtNC02LTYtMTMtOC0yMWw0OS02YzMgMTYgMTYgMjQgMzQgMjUgNDAgMCA0Mi0zNyA0MC03OS0xMSAyMi0zMCAzNS02MSAzNS01MyAwLTcwLTQzLTcwLTk3IDAtNTYgMTgtOTYgNzMtOTcgMzAgMCA0NiAxNCA1OSAzNGwyLTMwaDQ3em0tOTAtMjljMzIgMCA0MS0yNyA0MS02MyAwLTM1LTktNjItNDAtNjItMzIgMC0zOSAyOS00MCA2MyAwIDM2IDkgNjIgMzkgNjIiLz48cGF0aCBpZD0iYmgiIGQ9Ik0xODUtNDhjLTEzIDMwLTM3IDUzLTgyIDUyQzQzIDIgMTQtMzMgMTQtOTZzMzAtOTggOTAtOThjNjIgMCA4MyA0NSA4NCAxMDhINjZjMCAzMSA4IDU1IDM5IDU2IDE4IDAgMzAtNyAzNC0yMnptLTQ1LTY5YzUtNDYtNTctNjMtNzAtMjEtMiA2LTQgMTMtNCAyMWg3NCIvPjxwYXRoIGlkPSJiaSIgZD0iTTEzNy0xMzhjMS0yOS03MC0zNC03MS00IDE1IDQ2IDExOCA3IDExOSA4NiAxIDgzLTE2NCA3Ni0xNzIgOWw0My03YzQgMTkgMjAgMjUgNDQgMjUgMzMgOCA1Ny0zMCAyNC00MUM4MS04NCAyMi04MSAyMC0xMzZjLTItODAgMTU0LTc0IDE2MS03Ii8+PGcgaWQ9IlciPjx1c2UgeGxpbms6aHJlZj0iI2JkIiB0cmFuc2Zvcm09Im1hdHJpeCgwLjA0OTM4MjcxNjA0OTM4MjcyLDAsMCwwLjA0OTM4MjcxNjA0OTM4MjcyLDAsMCkiLz48dXNlIHhsaW5rOmhyZWY9IiNiZSIgdHJhbnNmb3JtPSJtYXRyaXgoMC4wNDkzODI3MTYwNDkzODI3MiwwLDAsMC4wNDkzODI3MTYwNDkzODI3MiwxNS44MDI0NjkxMzU4MDI0NywwKSIvPjx1c2UgeGxpbms6aHJlZj0iI2JmIiB0cmFuc2Zvcm09Im1hdHJpeCgwLjA0OTM4MjcxNjA0OTM4MjcyLDAsMCwwLjA0OTM4MjcxNjA0OTM4MjcyLDI1LjY3OTAxMjM0NTY3OTAxNiwwKSIvPjx1c2UgeGxpbms6aHJlZj0iI2JlIiB0cmFuc2Zvcm09Im1hdHJpeCgwLjA0OTM4MjcxNjA0OTM4MjcyLDAsMCwwLjA0OTM4MjcxNjA0OTM4MjcyLDM2LjQ5MzgyNzE2MDQ5MzgzLDApIi8+PHVzZSB4bGluazpocmVmPSIjYmciIHRyYW5zZm9ybT0ibWF0cml4KDAuMDQ5MzgyNzE2MDQ5MzgyNzIsMCwwLDAuMDQ5MzgyNzE2MDQ5MzgyNzIsNDYuMzcwMzcwMzcwMzcwMzc0LDApIi8+PHVzZSB4bGluazpocmVmPSIjYmgiIHRyYW5zZm9ybT0ibWF0cml4KDAuMDQ5MzgyNzE2MDQ5MzgyNzIsMCwwLDAuMDQ5MzgyNzE2MDQ5MzgyNzIsNTcuMTg1MTg1MTg1MTg1MTksMCkiLz48dXNlIHhsaW5rOmhyZWY9IiNiaSIgdHJhbnNmb3JtPSJtYXRyaXgoMC4wNDkzODI3MTYwNDkzODI3MiwwLDAsMC4wNDkzODI3MTYwNDkzODI3Miw2Ny4wNjE3MjgzOTUwNjE3MywwKSIvPjwvZz48cGF0aCBpZD0iYmoiIGQ9Ik04NSA0Qy0yIDUgMjctMTA5IDIyLTE5MGg1MGM3IDU3LTIzIDE1MCAzMyAxNTcgNjAtNSAzNS05NyA0MC0xNTdoNTBsMSAxOTBoLTQ3Yy0yLTEyIDEtMjgtMy0zOC0xMiAyNS0yOCA0Mi02MSA0MiIvPjxnIGlkPSJYIj48dXNlIHhsaW5rOmhyZWY9IiNiaiIgdHJhbnNmb3JtPSJtYXRyaXgoMC4wNDkzODI3MTYwNDkzODI3MiwwLDAsMC4wNDkzODI3MTYwNDkzODI3MiwwLDApIi8+PHVzZSB4bGluazpocmVmPSIjYmkiIHRyYW5zZm9ybT0ibWF0cml4KDAuMDQ5MzgyNzE2MDQ5MzgyNzIsMCwwLDAuMDQ5MzgyNzE2MDQ5MzgyNzIsMTAuODE0ODE0ODE0ODE0ODE1LDApIi8+PHVzZSB4bGluazpocmVmPSIjYmgiIHRyYW5zZm9ybT0ibWF0cml4KDAuMDQ5MzgyNzE2MDQ5MzgyNzIsMCwwLDAuMDQ5MzgyNzE2MDQ5MzgyNzIsMjAuNjkxMzU4MDI0NjkxMzYsMCkiLz48dXNlIHhsaW5rOmhyZWY9IiNiaSIgdHJhbnNmb3JtPSJtYXRyaXgoMC4wNDkzODI3MTYwNDkzODI3MiwwLDAsMC4wNDkzODI3MTYwNDkzODI3MiwzMC41Njc5MDEyMzQ1Njc5MDYsMCkiLz48L2c+PHBhdGggaWQ9ImJrIiBkPSJNMTM1LTE1MGMtMzktMTItNjAgMTMtNjAgNTdWMEgyNWwtMS0xOTBoNDdjMiAxMy0xIDI5IDMgNDAgNi0yOCAyNy01MyA2MS00MXY0MSIvPjxwYXRoIGlkPSJibCIgZD0iTTg0IDRDMzIgNCAxNS00MSAxNS05NWMwLTU1IDE4LTk5IDczLTk5IDI5IDAgNDcgMTIgNTggMzRsMi0zMGg0OGwtMSAyNjVoLTQ5Vi0zMkMxMzYtOSAxMTQgNCA4NCA0em0yMS0zNGMzMiAwIDQxLTI5IDQxLTY2IDAtMzYtOS02NC00MC02NC0zMyAwLTM5IDMwLTQwIDY1IDAgNDMgMTMgNjUgMzkgNjUiLz48cGF0aCBpZD0iYm0iIGQ9Ik0xMTUtM0M3OSAxMSAyOCA0IDI4LTQ1di0xMTJINHYtMzNoMjdsMTUtNDVoMzF2NDVoMzZ2MzNINzd2OTljLTEgMjMgMTYgMzEgMzggMjV2MzAiLz48ZyBpZD0iWSI+PHVzZSB4bGluazpocmVmPSIjYmsiIHRyYW5zZm9ybT0ibWF0cml4KDAuMDQ5MzgyNzE2MDQ5MzgyNzIsMCwwLDAuMDQ5MzgyNzE2MDQ5MzgyNzIsMCwwKSIvPjx1c2UgeGxpbms6aHJlZj0iI2JoIiB0cmFuc2Zvcm09Im1hdHJpeCgwLjA0OTM4MjcxNjA0OTM4MjcyLDAsMCwwLjA0OTM4MjcxNjA0OTM4MjcyLDYuOTEzNTgwMjQ2OTEzNTgxLDApIi8+PHVzZSB4bGluazpocmVmPSIjYmwiIHRyYW5zZm9ybT0ibWF0cml4KDAuMDQ5MzgyNzE2MDQ5MzgyNzIsMCwwLDAuMDQ5MzgyNzE2MDQ5MzgyNzIsMTYuNzkwMTIzNDU2NzkwMTI3LDApIi8+PHVzZSB4bGluazpocmVmPSIjYmoiIHRyYW5zZm9ybT0ibWF0cml4KDAuMDQ5MzgyNzE2MDQ5MzgyNzIsMCwwLDAuMDQ5MzgyNzE2MDQ5MzgyNzIsMjcuNjA0OTM4MjcxNjA0OTQ3LDApIi8+PHVzZSB4bGluazpocmVmPSIjYmgiIHRyYW5zZm9ybT0ibWF0cml4KDAuMDQ5MzgyNzE2MDQ5MzgyNzIsMCwwLDAuMDQ5MzgyNzE2MDQ5MzgyNzIsMzguNDE5NzUzMDg2NDE5NzYsMCkiLz48dXNlIHhsaW5rOmhyZWY9IiNiaSIgdHJhbnNmb3JtPSJtYXRyaXgoMC4wNDkzODI3MTYwNDkzODI3MiwwLDAsMC4wNDkzODI3MTYwNDkzODI3Miw0OC4yOTYyOTYyOTYyOTYzMDUsMCkiLz48dXNlIHhsaW5rOmhyZWY9IiNibSIgdHJhbnNmb3JtPSJtYXRyaXgoMC4wNDkzODI3MTYwNDkzODI3MiwwLDAsMC4wNDkzODI3MTYwNDkzODI3Miw1OC4xNzI4Mzk1MDYxNzI4NCwwKSIvPjx1c2UgeGxpbms6aHJlZj0iI2JpIiB0cmFuc2Zvcm09Im1hdHJpeCgwLjA0OTM4MjcxNjA0OTM4MjcyLDAsMCwwLjA0OTM4MjcxNjA0OTM4MjcyLDY0LjA0OTM4MjcxNjA0OTQsMCkiLz48L2c+PHBhdGggaWQ9ImJuIiBkPSJNMTE0LTE1N0M1NS0xNTcgODAtNjAgNzUgMEgyNXYtMjYxaDUwbC0xIDEwOWMxMi0yNiAyOC00MSA2MS00MiA4Ni0xIDU4IDExMyA2MyAxOTRoLTUwYy03LTU3IDIzLTE1Ny0zNC0xNTciLz48cGF0aCBpZD0iYm8iIGQ9Ik04OC0xOTRjMzEtMSA0NiAxNSA1OCAzNGwtMS0xMDFoNTBsMSAyNjFoLTQ4Yy0yLTEwIDAtMjMtMy0zMUMxMzQtOCAxMTYgNCA4NCA0IDMyIDQgMTYtNDEgMTUtOTVjMC01NiAxOS05NyA3My05OXptMTcgMTY0YzMzIDAgNDAtMzAgNDEtNjYgMS0zNy05LTY0LTQxLTY0cy0zOCAzMC0zOSA2NWMwIDQzIDEzIDY1IDM5IDY1Ii8+PHBhdGggaWQ9ImJwIiBkPSJNMjUgMHYtMjYxaDUwVjBIMjUiLz48ZyBpZD0iWiI+PHVzZSB4bGluazpocmVmPSIjYm4iIHRyYW5zZm9ybT0ibWF0cml4KDAuMDQ5MzgyNzE2MDQ5MzgyNzIsMCwwLDAuMDQ5MzgyNzE2MDQ5MzgyNzIsMCwwKSIvPjx1c2UgeGxpbms6aHJlZj0iI2JlIiB0cmFuc2Zvcm09Im1hdHJpeCgwLjA0OTM4MjcxNjA0OTM4MjcyLDAsMCwwLjA0OTM4MjcxNjA0OTM4MjcyLDEwLjgxNDgxNDgxNDgxNDgxNSwwKSIvPjx1c2UgeGxpbms6aHJlZj0iI2JmIiB0cmFuc2Zvcm09Im1hdHJpeCgwLjA0OTM4MjcxNjA0OTM4MjcyLDAsMCwwLjA0OTM4MjcxNjA0OTM4MjcyLDIwLjY5MTM1ODAyNDY5MTM2LDApIi8+PHVzZSB4bGluazpocmVmPSIjYm8iIHRyYW5zZm9ybT0ibWF0cml4KDAuMDQ5MzgyNzE2MDQ5MzgyNzIsMCwwLDAuMDQ5MzgyNzE2MDQ5MzgyNzIsMzEuNTA2MTcyODM5NTA2MTc0LDApIi8+PHVzZSB4bGluazpocmVmPSIjYnAiIHRyYW5zZm9ybT0ibWF0cml4KDAuMDQ5MzgyNzE2MDQ5MzgyNzIsMCwwLDAuMDQ5MzgyNzE2MDQ5MzgyNzIsNDIuMzIwOTg3NjU0MzIwOTk0LDApIi8+PHVzZSB4bGluazpocmVmPSIjYmgiIHRyYW5zZm9ybT0ibWF0cml4KDAuMDQ5MzgyNzE2MDQ5MzgyNzIsMCwwLDAuMDQ5MzgyNzE2MDQ5MzgyNzIsNDcuMjU5MjU5MjU5MjU5MjcsMCkiLz48dXNlIHhsaW5rOmhyZWY9IiNiaSIgdHJhbnNmb3JtPSJtYXRyaXgoMC4wNDkzODI3MTYwNDkzODI3MiwwLDAsMC4wNDkzODI3MTYwNDkzODI3Miw1Ny4xMzU4MDI0NjkxMzU4MDQsMCkiLz48L2c+PHBhdGggaWQ9ImJxIiBkPSJNMTkwLTYzYy03IDQyLTM4IDY3LTg2IDY3LTU5IDAtODQtMzgtOTAtOTgtMTItMTEwIDE1NC0xMzcgMTc0LTM2bC00OSAyYy0yLTE5LTE1LTMyLTM1LTMyLTMwIDAtMzUgMjgtMzggNjQtNiA3NCA2NSA4NyA3NCAzMCIvPjxwYXRoIGlkPSJiciIgZD0iTTExMC0xOTRjNjQgMCA5NiAzNiA5NiA5OSAwIDY0LTM1IDk5LTk3IDk5LTYxIDAtOTUtMzYtOTUtOTkgMC02MiAzNC05OSA5Ni05OXptLTEgMTY0YzM1IDAgNDUtMjggNDUtNjUgMC00MC0xMC02NS00My02NS0zNCAwLTQ1IDI2LTQ1IDY1IDAgMzYgMTAgNjUgNDMgNjUiLz48cGF0aCBpZD0iYnMiIGQ9Ik0yNS0yMjR2LTM3aDUwdjM3SDI1ek0yNSAwdi0xOTBoNTBWMEgyNSIvPjxnIGlkPSJhYSI+PHVzZSB4bGluazpocmVmPSIjYnEiIHRyYW5zZm9ybT0ibWF0cml4KDAuMDQ5MzgyNzE2MDQ5MzgyNzIsMCwwLDAuMDQ5MzgyNzE2MDQ5MzgyNzIsMCwwKSIvPjx1c2UgeGxpbms6aHJlZj0iI2JyIiB0cmFuc2Zvcm09Im1hdHJpeCgwLjA0OTM4MjcxNjA0OTM4MjcyLDAsMCwwLjA0OTM4MjcxNjA0OTM4MjcyLDkuODc2NTQzMjA5ODc2NTQ0LDApIi8+PHVzZSB4bGluazpocmVmPSIjYmQiIHRyYW5zZm9ybT0ibWF0cml4KDAuMDQ5MzgyNzE2MDQ5MzgyNzIsMCwwLDAuMDQ5MzgyNzE2MDQ5MzgyNzIsMjAuNjkxMzU4MDI0NjkxMzYsMCkiLz48dXNlIHhsaW5rOmhyZWY9IiNiZCIgdHJhbnNmb3JtPSJtYXRyaXgoMC4wNDkzODI3MTYwNDkzODI3MiwwLDAsMC4wNDkzODI3MTYwNDkzODI3MiwzNi40OTM4MjcxNjA0OTM4MywwKSIvPjx1c2UgeGxpbms6aHJlZj0iI2JqIiB0cmFuc2Zvcm09Im1hdHJpeCgwLjA0OTM4MjcxNjA0OTM4MjcyLDAsMCwwLjA0OTM4MjcxNjA0OTM4MjcyLDUyLjI5NjI5NjI5NjI5NjMsMCkiLz48dXNlIHhsaW5rOmhyZWY9IiNiZiIgdHJhbnNmb3JtPSJtYXRyaXgoMC4wNDkzODI3MTYwNDkzODI3MiwwLDAsMC4wNDkzODI3MTYwNDkzODI3Miw2My4xMTExMTExMTExMTExMTQsMCkiLz48dXNlIHhsaW5rOmhyZWY9IiNicyIgdHJhbnNmb3JtPSJtYXRyaXgoMC4wNDkzODI3MTYwNDkzODI3MiwwLDAsMC4wNDkzODI3MTYwNDkzODI3Miw3My45MjU5MjU5MjU5MjU5MiwwKSIvPjx1c2UgeGxpbms6aHJlZj0iI2JxIiB0cmFuc2Zvcm09Im1hdHJpeCgwLjA0OTM4MjcxNjA0OTM4MjcyLDAsMCwwLjA0OTM4MjcxNjA0OTM4MjcyLDc4Ljg2NDE5NzUzMDg2NDIsMCkiLz48dXNlIHhsaW5rOmhyZWY9IiNiZSIgdHJhbnNmb3JtPSJtYXRyaXgoMC4wNDkzODI3MTYwNDkzODI3MiwwLDAsMC4wNDkzODI3MTYwNDkzODI3Miw4OC43NDA3NDA3NDA3NDA3NSwwKSIvPjx1c2UgeGxpbms6aHJlZj0iI2JtIiB0cmFuc2Zvcm09Im1hdHJpeCgwLjA0OTM4MjcxNjA0OTM4MjcyLDAsMCwwLjA0OTM4MjcxNjA0OTM4MjcyLDk4LjYxNzI4Mzk1MDYxNzI5LDApIi8+PHVzZSB4bGluazpocmVmPSIjYmgiIHRyYW5zZm9ybT0ibWF0cml4KDAuMDQ5MzgyNzE2MDQ5MzgyNzIsMCwwLDAuMDQ5MzgyNzE2MDQ5MzgyNzIsMTA0LjQ5MzgyNzE2MDQ5Mzg0LDApIi8+PHVzZSB4bGluazpocmVmPSIjYmkiIHRyYW5zZm9ybT0ibWF0cml4KDAuMDQ5MzgyNzE2MDQ5MzgyNzIsMCwwLDAuMDQ5MzgyNzE2MDQ5MzgyNzIsMTE0LjM3MDM3MDM3MDM3MDM4LDApIi8+PC9nPjxwYXRoIGlkPSJidCIgZD0iTTE5OSAwbC0yMi02M0g4M0w2MSAwSDlsOTAtMjQ4aDYxTDI1MCAwaC01MXptLTMzLTEwMmwtMzYtMTA4Yy0xMCAzOC0yNCA3Mi0zNiAxMDhoNzIiLz48ZyBpZD0iYWIiPjx1c2UgeGxpbms6aHJlZj0iI2J0IiB0cmFuc2Zvcm09Im1hdHJpeCgwLjA0OTM4MjcxNjA0OTM4MjcyLDAsMCwwLjA0OTM4MjcxNjA0OTM4MjcyLDAsMCkiLz48dXNlIHhsaW5rOmhyZWY9IiNiZyIgdHJhbnNmb3JtPSJtYXRyaXgoMC4wNDkzODI3MTYwNDkzODI3MiwwLDAsMC4wNDkzODI3MTYwNDkzODI3MiwxMi43OTAxMjM0NTY3OTAxMjUsMCkiLz48dXNlIHhsaW5rOmhyZWY9IiNiZyIgdHJhbnNmb3JtPSJtYXRyaXgoMC4wNDkzODI3MTYwNDkzODI3MiwwLDAsMC4wNDkzODI3MTYwNDkzODI3MiwyMy42MDQ5MzgyNzE2MDQ5NCwwKSIvPjx1c2UgeGxpbms6aHJlZj0iI2JrIiB0cmFuc2Zvcm09Im1hdHJpeCgwLjA0OTM4MjcxNjA0OTM4MjcyLDAsMCwwLjA0OTM4MjcxNjA0OTM4MjcyLDM0LjQxOTc1MzA4NjQxOTc1LDApIi8+PHVzZSB4bGluazpocmVmPSIjYmgiIHRyYW5zZm9ybT0ibWF0cml4KDAuMDQ5MzgyNzE2MDQ5MzgyNzIsMCwwLDAuMDQ5MzgyNzE2MDQ5MzgyNzIsNDEuMzMzMzMzMzMzMzMzMzM2LDApIi8+PHVzZSB4bGluazpocmVmPSIjYmciIHRyYW5zZm9ybT0ibWF0cml4KDAuMDQ5MzgyNzE2MDQ5MzgyNzIsMCwwLDAuMDQ5MzgyNzE2MDQ5MzgyNzIsNTEuMjA5ODc2NTQzMjA5ODgsMCkiLz48dXNlIHhsaW5rOmhyZWY9IiNiZSIgdHJhbnNmb3JtPSJtYXRyaXgoMC4wNDkzODI3MTYwNDkzODI3MiwwLDAsMC4wNDkzODI3MTYwNDkzODI3Miw2Mi4wMjQ2OTEzNTgwMjQ3LDApIi8+PHVzZSB4bGluazpocmVmPSIjYm0iIHRyYW5zZm9ybT0ibWF0cml4KDAuMDQ5MzgyNzE2MDQ5MzgyNzIsMCwwLDAuMDQ5MzgyNzE2MDQ5MzgyNzIsNzEuOTAxMjM0NTY3OTAxMjQsMCkiLz48dXNlIHhsaW5rOmhyZWY9IiNicyIgdHJhbnNmb3JtPSJtYXRyaXgoMC4wNDkzODI3MTYwNDkzODI3MiwwLDAsMC4wNDkzODI3MTYwNDkzODI3Miw3Ny43Nzc3Nzc3Nzc3Nzc3OSwwKSIvPjx1c2UgeGxpbms6aHJlZj0iI2JyIiB0cmFuc2Zvcm09Im1hdHJpeCgwLjA0OTM4MjcxNjA0OTM4MjcyLDAsMCwwLjA0OTM4MjcxNjA0OTM4MjcyLDgyLjcxNjA0OTM4MjcxNjA1LDApIi8+PHVzZSB4bGluazpocmVmPSIjYmYiIHRyYW5zZm9ybT0ibWF0cml4KDAuMDQ5MzgyNzE2MDQ5MzgyNzIsMCwwLDAuMDQ5MzgyNzE2MDQ5MzgyNzIsOTMuNTMwODY0MTk3NTMwODYsMCkiLz48L2c+PGcgaWQ9ImFjIj48dXNlIHhsaW5rOmhyZWY9IiNhRSIgdHJhbnNmb3JtPSJtYXRyaXgoMC4wNjE3MjgzOTUwNjE3MjgzOSwwLDAsMC4wNjE3MjgzOTUwNjE3MjgzOSwwLDApIi8+PHVzZSB4bGluazpocmVmPSIjYXkiIHRyYW5zZm9ybT0ibWF0cml4KDAuMDYxNzI4Mzk1MDYxNzI4MzksMCwwLDAuMDYxNzI4Mzk1MDYxNzI4MzksMTMuNTE4NTE4NTE4NTE4NTE3LDApIi8+PHVzZSB4bGluazpocmVmPSIjYWsiIHRyYW5zZm9ybT0ibWF0cml4KDAuMDYxNzI4Mzk1MDYxNzI4MzksMCwwLDAuMDYxNzI4Mzk1MDYxNzI4MzksMjUuODY0MTk3NTMwODY0MTk2LDApIi8+PHVzZSB4bGluazpocmVmPSIjYUQiIHRyYW5zZm9ybT0ibWF0cml4KDAuMDYxNzI4Mzk1MDYxNzI4MzksMCwwLDAuMDYxNzI4Mzk1MDYxNzI4MzksMzMuMjA5ODc2NTQzMjA5ODcsMCkiLz48L2c+PGcgaWQ9ImFkIj48dXNlIHhsaW5rOmhyZWY9IiNhQiIgdHJhbnNmb3JtPSJtYXRyaXgoMC4wNjE3MjgzOTUwNjE3MjgzOSwwLDAsMC4wNjE3MjgzOTUwNjE3MjgzOSwwLDApIi8+PHVzZSB4bGluazpocmVmPSIjYWwiIHRyYW5zZm9ybT0ibWF0cml4KDAuMDYxNzI4Mzk1MDYxNzI4MzksMCwwLDAuMDYxNzI4Mzk1MDYxNzI4MzksMTIuMzQ1Njc5MDEyMzQ1Njc5LDApIi8+PHVzZSB4bGluazpocmVmPSIjYUIiIHRyYW5zZm9ybT0ibWF0cml4KDAuMDYxNzI4Mzk1MDYxNzI4MzksMCwwLDAuMDYxNzI4Mzk1MDYxNzI4MzksMjMuNDU2NzkwMTIzNDU2NzksMCkiLz48dXNlIHhsaW5rOmhyZWY9IiNhcyIgdHJhbnNmb3JtPSJtYXRyaXgoMC4wNjE3MjgzOTUwNjE3MjgzOSwwLDAsMC4wNjE3MjgzOTUwNjE3MjgzOSwzNS44MDI0NjkxMzU4MDI0NywwKSIvPjx1c2UgeGxpbms6aHJlZj0iI2F4IiB0cmFuc2Zvcm09Im1hdHJpeCgwLjA2MTcyODM5NTA2MTcyODM5LDAsMCwwLjA2MTcyODM5NTA2MTcyODM5LDQwLjY3OTAxMjM0NTY3OTAxLDApIi8+PHVzZSB4bGluazpocmVmPSIjYUIiIHRyYW5zZm9ybT0ibWF0cml4KDAuMDYxNzI4Mzk1MDYxNzI4MzksMCwwLDAuMDYxNzI4Mzk1MDYxNzI4MzksNDUuNTU1NTU1NTU1NTU1NTYsMCkiLz48dXNlIHhsaW5rOmhyZWY9IiNiYyIgdHJhbnNmb3JtPSJtYXRyaXgoMC4wNjE3MjgzOTUwNjE3MjgzOSwwLDAsMC4wNjE3MjgzOTUwNjE3MjgzOSw1Ny45MDEyMzQ1Njc5MDEyMzQsMCkiLz48dXNlIHhsaW5rOmhyZWY9IiNheCIgdHJhbnNmb3JtPSJtYXRyaXgoMC4wNjE3MjgzOTUwNjE3MjgzOSwwLDAsMC4wNjE3MjgzOTUwNjE3MjgzOSw3MC4yNDY5MTM1ODAyNDY5MSwwKSIvPjx1c2UgeGxpbms6aHJlZj0iI2FqIiB0cmFuc2Zvcm09Im1hdHJpeCgwLjA2MTcyODM5NTA2MTcyODM5LDAsMCwwLjA2MTcyODM5NTA2MTcyODM5LDc1LjEyMzQ1Njc5MDEyMzQ2LDApIi8+PHVzZSB4bGluazpocmVmPSIjYXIiIHRyYW5zZm9ybT0ibWF0cml4KDAuMDYxNzI4Mzk1MDYxNzI4MzksMCwwLDAuMDYxNzI4Mzk1MDYxNzI4MzksODcuNDY5MTM1ODAyNDY5MTQsMCkiLz48L2c+PGcgaWQ9ImFlIj48dXNlIHhsaW5rOmhyZWY9IiNiYyIgdHJhbnNmb3JtPSJtYXRyaXgoMC4wNjE3MjgzOTUwNjE3MjgzOSwwLDAsMC4wNjE3MjgzOTUwNjE3MjgzOSwwLDApIi8+PHVzZSB4bGluazpocmVmPSIjYXkiIHRyYW5zZm9ybT0ibWF0cml4KDAuMDYxNzI4Mzk1MDYxNzI4MzksMCwwLDAuMDYxNzI4Mzk1MDYxNzI4MzksMTIuMzQ1Njc5MDEyMzQ1Njc5LDApIi8+PHVzZSB4bGluazpocmVmPSIjYXkiIHRyYW5zZm9ybT0ibWF0cml4KDAuMDYxNzI4Mzk1MDYxNzI4MzksMCwwLDAuMDYxNzI4Mzk1MDYxNzI4MzksMjQuNjkxMzU4MDI0NjkxMzU4LDApIi8+PHVzZSB4bGluazpocmVmPSIjYXgiIHRyYW5zZm9ybT0ibWF0cml4KDAuMDYxNzI4Mzk1MDYxNzI4MzksMCwwLDAuMDYxNzI4Mzk1MDYxNzI4MzksMzcuMDM3MDM3MDM3MDM3MDQsMCkiLz48dXNlIHhsaW5rOmhyZWY9IiNhaiIgdHJhbnNmb3JtPSJtYXRyaXgoMC4wNjE3MjgzOTUwNjE3MjgzOSwwLDAsMC4wNjE3MjgzOTUwNjE3MjgzOSw0MS45MTM1ODAyNDY5MTM1OCwwKSIvPjx1c2UgeGxpbms6aHJlZj0iI2FCIiB0cmFuc2Zvcm09Im1hdHJpeCgwLjA2MTcyODM5NTA2MTcyODM5LDAsMCwwLjA2MTcyODM5NTA2MTcyODM5LDU0LjI1OTI1OTI1OTI1OTI2LDApIi8+PHVzZSB4bGluazpocmVmPSIjYXQiIHRyYW5zZm9ybT0ibWF0cml4KDAuMDYxNzI4Mzk1MDYxNzI4MzksMCwwLDAuMDYxNzI4Mzk1MDYxNzI4MzksNjYuNjA0OTM4MjcxNjA0OTQsMCkiLz48L2c+PGcgaWQ9ImFmIj48dXNlIHhsaW5rOmhyZWY9IiNhcyIgdHJhbnNmb3JtPSJtYXRyaXgoMC4wNjE3MjgzOTUwNjE3MjgzOSwwLDAsMC4wNjE3MjgzOTUwNjE3MjgzOSwwLDApIi8+PHVzZSB4bGluazpocmVmPSIjYXoiIHRyYW5zZm9ybT0ibWF0cml4KDAuMDYxNzI4Mzk1MDYxNzI4MzksMCwwLDAuMDYxNzI4Mzk1MDYxNzI4MzksNC44NzY1NDMyMDk4NzY1NDMsMCkiLz48dXNlIHhsaW5rOmhyZWY9IiNhWCIgdHJhbnNmb3JtPSJtYXRyaXgoMC4wNjE3MjgzOTUwNjE3MjgzOSwwLDAsMC4wNjE3MjgzOTUwNjE3MjgzOSwxNS45ODc2NTQzMjA5ODc2NTMsMCkiLz48dXNlIHhsaW5rOmhyZWY9IiNhbCIgdHJhbnNmb3JtPSJtYXRyaXgoMC4wNjE3MjgzOTUwNjE3MjgzOSwwLDAsMC4wNjE3MjgzOTUwNjE3MjgzOSwzMC4zNzAzNzAzNzAzNzAzNjcsMCkiLz48dXNlIHhsaW5rOmhyZWY9IiNhQiIgdHJhbnNmb3JtPSJtYXRyaXgoMC4wNjE3MjgzOTUwNjE3MjgzOSwwLDAsMC4wNjE3MjgzOTUwNjE3MjgzOSw0MS40ODE0ODE0ODE0ODE0OCwwKSIvPjx1c2UgeGxpbms6aHJlZj0iI2FzIiB0cmFuc2Zvcm09Im1hdHJpeCgwLjA2MTcyODM5NTA2MTcyODM5LDAsMCwwLjA2MTcyODM5NTA2MTcyODM5LDUzLjgyNzE2MDQ5MzgyNzE2LDApIi8+PHVzZSB4bGluazpocmVmPSIjYXgiIHRyYW5zZm9ybT0ibWF0cml4KDAuMDYxNzI4Mzk1MDYxNzI4MzksMCwwLDAuMDYxNzI4Mzk1MDYxNzI4MzksNTguNzAzNzAzNzAzNzAzNywwKSIvPjx1c2UgeGxpbms6aHJlZj0iI2FCIiB0cmFuc2Zvcm09Im1hdHJpeCgwLjA2MTcyODM5NTA2MTcyODM5LDAsMCwwLjA2MTcyODM5NTA2MTcyODM5LDYzLjU4MDI0NjkxMzU4MDI1LDApIi8+PHVzZSB4bGluazpocmVmPSIjYmMiIHRyYW5zZm9ybT0ibWF0cml4KDAuMDYxNzI4Mzk1MDYxNzI4MzksMCwwLDAuMDYxNzI4Mzk1MDYxNzI4MzksNzUuOTI1OTI1OTI1OTI1OTIsMCkiLz48dXNlIHhsaW5rOmhyZWY9IiNheCIgdHJhbnNmb3JtPSJtYXRyaXgoMC4wNjE3MjgzOTUwNjE3MjgzOSwwLDAsMC4wNjE3MjgzOTUwNjE3MjgzOSw4OC4yNzE2MDQ5MzgyNzE2MSwwKSIvPjx1c2UgeGxpbms6aHJlZj0iI2FqIiB0cmFuc2Zvcm09Im1hdHJpeCgwLjA2MTcyODM5NTA2MTcyODM5LDAsMCwwLjA2MTcyODM5NTA2MTcyODM5LDkzLjE0ODE0ODE0ODE0ODE1LDApIi8+PHVzZSB4bGluazpocmVmPSIjYU4iIHRyYW5zZm9ybT0ibWF0cml4KDAuMDYxNzI4Mzk1MDYxNzI4MzksMCwwLDAuMDYxNzI4Mzk1MDYxNzI4MzksMTA1LjQ5MzgyNzE2MDQ5Mzg0LDApIi8+PHVzZSB4bGluazpocmVmPSIjYVAiIHRyYW5zZm9ybT0ibWF0cml4KDAuMDYxNzI4Mzk1MDYxNzI4MzksMCwwLDAuMDYxNzI4Mzk1MDYxNzI4MzksMTEyLjgzOTUwNjE3MjgzOTUyLDApIi8+PHVzZSB4bGluazpocmVmPSIjYXIiIHRyYW5zZm9ybT0ibWF0cml4KDAuMDYxNzI4Mzk1MDYxNzI4MzksMCwwLDAuMDYxNzI4Mzk1MDYxNzI4MzksMTIwLjE4NTE4NTE4NTE4NTIsMCkiLz48L2c+PHBhdGggaWQ9ImJ1IiBkPSJNMjMyLTkzYy0xIDY1LTQwIDk3LTEwNCA5N0M2NyA0IDI4LTI4IDI4LTkwdi0xNThoMzNjOCA4OS0zMyAyMjQgNjcgMjI0IDEwMiAwIDY0LTEzMyA3MS0yMjRoMzN2MTU1Ii8+PGcgaWQ9ImFnIj48dXNlIHhsaW5rOmhyZWY9IiNhdiIgdHJhbnNmb3JtPSJtYXRyaXgoMC4wNjE3MjgzOTUwNjE3MjgzOSwwLDAsMC4wNjE3MjgzOTUwNjE3MjgzOSwwLDApIi8+PHVzZSB4bGluazpocmVmPSIjYXMiIHRyYW5zZm9ybT0ibWF0cml4KDAuMDYxNzI4Mzk1MDYxNzI4MzksMCwwLDAuMDYxNzI4Mzk1MDYxNzI4MzksMTIuMzQ1Njc5MDEyMzQ1Njc5LDApIi8+PHVzZSB4bGluazpocmVmPSIjYVEiIHRyYW5zZm9ybT0ibWF0cml4KDAuMDYxNzI4Mzk1MDYxNzI4MzksMCwwLDAuMDYxNzI4Mzk1MDYxNzI4MzksMTcuMjIyMjIyMjIyMjIyMjIsMCkiLz48dXNlIHhsaW5rOmhyZWY9IiNhRCIgdHJhbnNmb3JtPSJtYXRyaXgoMC4wNjE3MjgzOTUwNjE3MjgzOSwwLDAsMC4wNjE3MjgzOTUwNjE3MjgzOSwyOC4zMzMzMzMzMzMzMzMzMzIsMCkiLz48dXNlIHhsaW5rOmhyZWY9IiNidSIgdHJhbnNmb3JtPSJtYXRyaXgoMC4wNjE3MjgzOTUwNjE3MjgzOSwwLDAsMC4wNjE3MjgzOTUwNjE3MjgzOSwzOS40NDQ0NDQ0NDQ0NDQ0NCwwKSIvPjx1c2UgeGxpbms6aHJlZj0iI2F2IiB0cmFuc2Zvcm09Im1hdHJpeCgwLjA2MTcyODM5NTA2MTcyODM5LDAsMCwwLjA2MTcyODM5NTA2MTcyODM5LDU1LjQzMjA5ODc2NTQzMjA5NCwwKSIvPjx1c2UgeGxpbms6aHJlZj0iI2FOIiB0cmFuc2Zvcm09Im1hdHJpeCgwLjA2MTcyODM5NTA2MTcyODM5LDAsMCwwLjA2MTcyODM5NTA2MTcyODM5LDY3Ljc3Nzc3Nzc3Nzc3Nzc3LDApIi8+PHVzZSB4bGluazpocmVmPSIjYVAiIHRyYW5zZm9ybT0ibWF0cml4KDAuMDYxNzI4Mzk1MDYxNzI4MzksMCwwLDAuMDYxNzI4Mzk1MDYxNzI4MzksNzUuMTIzNDU2NzkwMTIzNDYsMCkiLz48dXNlIHhsaW5rOmhyZWY9IiNhciIgdHJhbnNmb3JtPSJtYXRyaXgoMC4wNjE3MjgzOTUwNjE3MjgzOSwwLDAsMC4wNjE3MjgzOTUwNjE3MjgzOSw4Mi40NjkxMzU4MDI0NjkxNCwwKSIvPjwvZz48cGF0aCBpZD0iYnYiIGQ9Ik0yMDYgMGgtMzZsLTQwLTE2NEw4OSAwSDUzTC0xLTE5MGgzMkw3MC0yNmw0My0xNjRoMzRsNDEgMTY0IDQyLTE2NGgzMSIvPjxnIGlkPSJhaCI+PHVzZSB4bGluazpocmVmPSIjYXYiIHRyYW5zZm9ybT0ibWF0cml4KDAuMDYxNzI4Mzk1MDYxNzI4MzksMCwwLDAuMDYxNzI4Mzk1MDYxNzI4MzksMCwwKSIvPjx1c2UgeGxpbms6aHJlZj0iI2FSIiB0cmFuc2Zvcm09Im1hdHJpeCgwLjA2MTcyODM5NTA2MTcyODM5LDAsMCwwLjA2MTcyODM5NTA2MTcyODM5LDEyLjM0NTY3OTAxMjM0NTY3OSwwKSIvPjx1c2UgeGxpbms6aHJlZj0iI2F1IiB0cmFuc2Zvcm09Im1hdHJpeCgwLjA2MTcyODM5NTA2MTcyODM5LDAsMCwwLjA2MTcyODM5NTA2MTcyODM5LDI0LjY5MTM1ODAyNDY5MTM1OCwwKSIvPjx1c2UgeGxpbms6aHJlZj0iI2FZIiB0cmFuc2Zvcm09Im1hdHJpeCgwLjA2MTcyODM5NTA2MTcyODM5LDAsMCwwLjA2MTcyODM5NTA2MTcyODM5LDMwLjg2NDE5NzUzMDg2NDE5NiwwKSIvPjx1c2UgeGxpbms6aHJlZj0iI2F5IiB0cmFuc2Zvcm09Im1hdHJpeCgwLjA2MTcyODM5NTA2MTcyODM5LDAsMCwwLjA2MTcyODM5NTA2MTcyODM5LDQ2Ljg1MTg1MTg1MTg1MTg1LDApIi8+PHVzZSB4bGluazpocmVmPSIjYnYiIHRyYW5zZm9ybT0ibWF0cml4KDAuMDYxNzI4Mzk1MDYxNzI4MzksMCwwLDAuMDYxNzI4Mzk1MDYxNzI4MzksNTkuMTk3NTMwODY0MTk3NTI1LDApIi8+PHVzZSB4bGluazpocmVmPSIjYXQiIHRyYW5zZm9ybT0ibWF0cml4KDAuMDYxNzI4Mzk1MDYxNzI4MzksMCwwLDAuMDYxNzI4Mzk1MDYxNzI4MzksNzUuMTg1MTg1MTg1MTg1MTgsMCkiLz48dXNlIHhsaW5rOmhyZWY9IiNhTiIgdHJhbnNmb3JtPSJtYXRyaXgoMC4wNjE3MjgzOTUwNjE3MjgzOSwwLDAsMC4wNjE3MjgzOTUwNjE3MjgzOSw4Ny41MzA4NjQxOTc1MzA4NiwwKSIvPjx1c2UgeGxpbms6aHJlZj0iI2FQIiB0cmFuc2Zvcm09Im1hdHJpeCgwLjA2MTcyODM5NTA2MTcyODM5LDAsMCwwLjA2MTcyODM5NTA2MTcyODM5LDk0Ljg3NjU0MzIwOTg3NjU0LDApIi8+PHVzZSB4bGluazpocmVmPSIjYXIiIHRyYW5zZm9ybT0ibWF0cml4KDAuMDYxNzI4Mzk1MDYxNzI4MzksMCwwLDAuMDYxNzI4Mzk1MDYxNzI4MzksMTAyLjIyMjIyMjIyMjIyMjIzLDApIi8+PC9nPjwvZGVmcz48L2c+PC9zdmc+;" parent="1" vertex="1">
                    <mxGeometry x="-290" y="130" width="1200" height="1031" as="geometry"/>
                </mxCell>
            </root>
        </mxGraphModel>
    </diagram>
</mxfile>